<svg width="151" height="32" viewBox="0 0 151 32" fill="none" xmlns="http://www.w3.org/2000/svg">
<g clip-path="url(#clip0_372_2176)">
<path d="M83.7796 20.9596C86.7559 20.9596 89.0459 19.7554 90.7467 17.8898V11.6319H83.1419V15.1975H86.6845V16.4254C86.1173 16.8982 84.937 17.3702 83.7796 17.3702C81.2056 17.3702 79.3875 15.3863 79.3875 12.8122C79.3875 10.2373 81.2056 8.25429 83.7796 8.25429C85.3145 8.25429 86.5195 9.22201 87.1097 10.262L90.5103 8.49069C89.4243 6.52976 87.2993 4.66406 83.7796 4.66406C79.0797 4.66406 75.2539 7.8053 75.2539 12.8122C75.2539 17.8183 79.0797 20.9596 83.7796 20.9596Z" fill="#444444"/>
<path d="M69.0977 4.88672H73.523V9.31371H69.0977V4.88672Z" fill="#444444"/>
<path d="M69.0977 10.4766H73.5238V20.6954H69.0977V10.4766Z" fill="#444444"/>
<path d="M98.4754 14.826L100.489 8.71696L102.504 14.826H98.4754ZM102.726 4.98047H98.2509L92.0977 20.6441H96.3495L97.2449 18.1832H103.734L104.629 20.6441H108.88L102.726 4.98047Z" fill="#444444"/>
<path d="M117.163 12.1856H114.522V8.5605H117.163C118.348 8.5605 119.154 9.1651 119.154 10.3735C119.154 11.5818 118.348 12.1856 117.163 12.1856ZM120.408 14.9612C122.131 14.2673 123.406 12.8574 123.406 10.2612C123.406 6.1208 120.162 4.98047 116.983 4.98047H110.383V20.6441H114.522V15.542H116.312L120.05 20.6441H124.727L120.408 14.9612Z" fill="#444444"/>
<path d="M124.68 4.98047V8.67189H129.11V20.645H133.25V8.67189H137.659V4.98047H124.68Z" fill="#444444"/>
<path d="M60.9841 17.4H58.1643V14.1321H60.9841C62.2376 14.1321 63.065 14.5351 63.065 15.7665C63.065 16.9969 62.2376 17.4 60.9841 17.4ZM58.1864 8.2246H60.7375C61.8345 8.2246 62.4604 8.78414 62.4604 9.67957C62.4604 10.575 61.8345 11.1345 60.7375 11.1345L58.1864 11.1116V8.2246ZM64.2733 12.3421C65.7725 11.8055 66.6008 10.6643 66.6008 8.94146C66.6008 6.2339 64.542 4.98047 61.1185 4.98047H54.0469V20.645H60.8498C63.826 20.645 67.2275 19.7717 67.2275 16.2138C67.2275 14.0428 65.9519 12.8344 64.2733 12.3421Z" fill="#444444"/>
<path d="M42.276 9.59805L47.0746 4.79945L42.276 0L37.4766 4.79945L42.276 9.59805Z" fill="#27802F"/>
<path d="M24.3257 17.9529L16.8603 10.4875L20.4149 6.93301H28.2373L31.7919 10.4875L24.3257 17.9529ZM30.9032 0H17.749L12.0617 5.68808L6.37367 0L1.57422 4.7986L7.2623 10.4875L11.8126 15.037L24.3257 27.5509L41.3899 10.4875L30.9032 0V0Z" fill="#444444"/>
<path d="M145.631 4.45616C145.631 4.36007 145.605 4.28269 145.554 4.22401C145.502 4.16364 145.43 4.12707 145.336 4.11092C145.29 4.10496 145.149 4.10156 144.916 4.10156H144.465V4.82692H144.893C145.169 4.82692 145.342 4.81502 145.41 4.79206C145.479 4.76825 145.533 4.72828 145.573 4.67131C145.611 4.61348 145.631 4.5429 145.631 4.45616Z" fill="#27802F"/>
<path d="M144.92 5.28362H144.581H144.463V6.47753H143.886V3.61861H145.101C145.406 3.61861 145.628 3.64412 145.767 3.69599C145.905 3.74701 146.015 3.838 146.098 3.97066C146.182 4.10161 146.223 4.25128 146.223 4.41965C146.223 4.63479 146.161 4.81167 146.035 4.95112C145.909 5.09143 145.72 5.17987 145.47 5.21559L146.376 6.47753H145.765L144.92 5.28362ZM144.958 1.24609L141.09 5.11524L144.958 8.9844L148.827 5.11524L144.958 1.24609Z" fill="#27802F"/>
<path d="M76.5938 30.87H77.1278V28.8248C77.1278 28.1658 77.5581 27.6947 78.127 27.6947C78.695 27.6947 79.0479 28.0893 79.0479 28.7619V30.87H79.576V28.8044C79.576 28.0969 80.0258 27.6947 80.5675 27.6947C81.15 27.6947 81.4969 28.0825 81.4969 28.7764V30.87H82.0301V28.6514C82.0301 27.7636 81.5242 27.2091 80.6985 27.2091C80.0743 27.2091 79.6933 27.528 79.4374 27.9234C79.2426 27.5212 78.8685 27.2091 78.286 27.2091C77.6831 27.2091 77.3633 27.5348 77.1278 27.8886V27.2857H76.5938V30.87ZM84.2564 30.9465C84.8873 30.9465 85.2964 30.6548 85.5455 30.3368V30.87H86.0736V28.6794C86.0736 28.2211 85.9477 27.875 85.6986 27.625C85.4418 27.3682 85.0472 27.2295 84.5404 27.2295C84.0132 27.2295 83.6322 27.3546 83.2368 27.5348L83.3967 27.9719C83.7291 27.8197 84.0616 27.7151 84.4851 27.7151C85.1586 27.7151 85.5455 28.0484 85.5455 28.6862V28.7968C85.2275 28.7066 84.9077 28.6437 84.4511 28.6437C83.5421 28.6437 82.9188 29.0459 82.9188 29.8164C82.9188 30.5655 83.5837 30.9465 84.2564 30.9465ZM84.361 30.5171C83.8754 30.5171 83.4587 30.2526 83.4587 29.8019C83.4587 29.3589 83.8397 29.0672 84.5055 29.0672C84.9426 29.0672 85.2896 29.1437 85.5532 29.2194V29.5527C85.5532 30.1216 85.0183 30.5171 84.361 30.5171ZM87.2037 30.87H87.7378V29.4413C87.7378 28.3597 88.3755 27.7984 89.1587 27.7984H89.2004V27.2227C88.5209 27.1955 88.0005 27.625 87.7378 28.2211V27.2857H87.2037V30.87ZM90.0116 30.87H90.5457V29.9346L91.2736 29.199L92.5559 30.87H93.1945L91.6418 28.8248L93.1461 27.2857H92.4802L90.5457 29.3027V25.8086H90.0116V30.87ZM94.1036 29.2959H96.9455C96.9523 29.2126 96.9523 29.1573 96.9523 29.1089C96.9523 28.0553 96.3426 27.2091 95.2813 27.2091C94.2898 27.2091 93.5627 28.0408 93.5627 29.0816C93.5627 30.1973 94.3672 30.9533 95.3511 30.9533C96.0313 30.9533 96.4676 30.6829 96.8281 30.2807L96.4956 29.983C96.204 30.2883 95.857 30.489 95.3647 30.489C94.7337 30.489 94.1793 30.0519 94.1036 29.2959ZM94.1036 28.8656C94.1793 28.1726 94.6512 27.6598 95.2677 27.6598C95.9752 27.6598 96.3494 28.2143 96.4115 28.8656H94.1036ZM99.0893 30.9329C99.3452 30.9329 99.5459 30.8768 99.7338 30.7798V30.3223C99.5459 30.4125 99.3937 30.4473 99.2134 30.4473C98.8528 30.4473 98.6105 30.2883 98.6105 29.8504V27.7568H99.7474V27.2857H98.6105V26.2032H98.0765V27.2857H97.5773V27.7568H98.0765V29.9201C98.0765 30.648 98.5136 30.9329 99.0893 30.9329ZM100.704 26.5016H101.315V25.9123H100.704V26.5016ZM100.739 30.87H101.273V27.2857H100.739V30.87ZM102.515 30.87H103.048V28.8172C103.048 28.1454 103.506 27.6947 104.123 27.6947C104.754 27.6947 105.115 28.1105 105.115 28.7764V30.87H105.649V28.6437C105.649 27.7916 105.142 27.2091 104.276 27.2091C103.658 27.2091 103.284 27.5212 103.048 27.909V27.2857H102.515V30.87ZM108.374 31.9933C108.942 31.9933 109.421 31.8343 109.74 31.5154C110.031 31.2237 110.198 30.8011 110.198 30.2458V27.2857H109.664V27.9302C109.373 27.5416 108.936 27.2091 108.263 27.2091C107.41 27.2091 106.578 27.8537 106.578 28.9005C106.578 29.9482 107.403 30.5927 108.263 30.5927C108.921 30.5927 109.358 30.2526 109.67 29.8368V30.2602C109.67 31.0987 109.158 31.5358 108.367 31.5358C107.854 31.5358 107.396 31.3768 106.987 31.0783L106.744 31.4941C107.223 31.8275 107.777 31.9933 108.374 31.9933ZM108.367 30.1216C107.701 30.1216 107.125 29.6216 107.125 28.9005C107.125 28.1522 107.687 27.6802 108.367 27.6802C109.047 27.6802 109.684 28.159 109.684 28.8937C109.684 29.6293 109.047 30.1216 108.367 30.1216ZM114.538 30.9465C115.17 30.9465 115.579 30.6548 115.829 30.3368V30.87H116.355V28.6794C116.355 28.2211 116.231 27.875 115.98 27.625C115.724 27.3682 115.329 27.2295 114.823 27.2295C114.295 27.2295 113.914 27.3546 113.519 27.5348L113.679 27.9719C114.011 27.8197 114.345 27.7151 114.767 27.7151C115.439 27.7151 115.829 28.0484 115.829 28.6862V28.7968C115.509 28.7066 115.19 28.6437 114.733 28.6437C113.824 28.6437 113.2 29.0459 113.2 29.8164C113.2 30.5655 113.865 30.9465 114.538 30.9465ZM114.642 30.5171C114.157 30.5171 113.741 30.2526 113.741 29.8019C113.741 29.3589 114.122 29.0672 114.788 29.0672C115.225 29.0672 115.572 29.1437 115.835 29.2194V29.5527C115.835 30.1216 115.301 30.5171 114.642 30.5171ZM119.074 31.9933C119.642 31.9933 120.12 31.8343 120.439 31.5154C120.73 31.2237 120.897 30.8011 120.897 30.2458V27.2857H120.363V27.9302C120.072 27.5416 119.635 27.2091 118.962 27.2091C118.109 27.2091 117.278 27.8537 117.278 28.9005C117.278 29.9482 118.103 30.5927 118.962 30.5927C119.621 30.5927 120.057 30.2526 120.37 29.8368V30.2602C120.37 31.0987 119.857 31.5358 119.066 31.5358C118.553 31.5358 118.096 31.3768 117.687 31.0783L117.443 31.4941C117.922 31.8275 118.477 31.9933 119.074 31.9933ZM119.066 30.1216C118.401 30.1216 117.825 29.6216 117.825 28.9005C117.825 28.1522 118.387 27.6802 119.066 27.6802C119.745 27.6802 120.384 28.159 120.384 28.8937C120.384 29.6293 119.745 30.1216 119.066 30.1216ZM122.409 29.2959H125.252C125.258 29.2126 125.258 29.1573 125.258 29.1089C125.258 28.0553 124.649 27.2091 123.587 27.2091C122.596 27.2091 121.868 28.0408 121.868 29.0816C121.868 30.1973 122.672 30.9533 123.657 30.9533C124.336 30.9533 124.774 30.6829 125.133 30.2807L124.801 29.983C124.509 30.2883 124.163 30.489 123.671 30.489C123.04 30.489 122.485 30.0519 122.409 29.2959ZM122.409 28.8656C122.485 28.1726 122.956 27.6598 123.574 27.6598C124.281 27.6598 124.655 28.2143 124.717 28.8656H122.409ZM126.195 30.87H126.729V28.8172C126.729 28.1454 127.186 27.6947 127.803 27.6947C128.434 27.6947 128.795 28.1105 128.795 28.7764V30.87H129.329V28.6437C129.329 27.7916 128.823 27.2091 127.957 27.2091C127.339 27.2091 126.965 27.5212 126.729 27.909V27.2857H126.195V30.87ZM132.082 30.9533C132.754 30.9533 133.184 30.6625 133.545 30.2602L133.191 29.9346C132.907 30.239 132.568 30.4745 132.11 30.4745C131.361 30.4745 130.792 29.858 130.792 29.0816C130.792 28.2976 131.347 27.6802 132.075 27.6802C132.56 27.6802 132.893 27.909 133.178 28.2075L133.517 27.8469C133.184 27.4932 132.761 27.2091 132.082 27.2091C131.035 27.2091 130.245 28.0689 130.245 29.0816C130.245 30.1004 131.035 30.9533 132.082 30.9533ZM134.981 32.0009C135.521 32.0009 135.867 31.7297 136.173 30.9882L137.678 27.2857H137.109L135.958 30.2738L134.655 27.2857H134.065L135.694 30.8563C135.48 31.3623 135.279 31.529 134.959 31.529C134.731 31.529 134.571 31.4873 134.397 31.3972L134.218 31.8207C134.461 31.938 134.683 32.0009 134.981 32.0009Z" fill="#444444"/>
</g>
<defs>
<clipPath id="clip0_372_2176">
<rect width="150.4" height="32" fill="white"/>
</clipPath>
</defs>
</svg>
