<svg width="48" height="48" viewBox="0 0 48 48" fill="none" xmlns="http://www.w3.org/2000/svg">
  <path d="M13.5273 27.375C13.139 27.375 12.8242 27.6897 12.8242 28.0781V32.8479C12.8242 33.0344 12.8983 33.2132 13.0302 33.3452L15.8979 36.2129C16.1726 36.4875 16.6177 36.4874 16.8922 36.2129C17.1668 35.9382 17.1668 35.4931 16.8922 35.2185L14.2304 32.5568V28.0782C14.2305 27.6898 13.9157 27.375 13.5273 27.375Z" fill="currentColor" />
  <path d="M43.69 31.1914H29.8438C29.4554 31.1914 29.1406 31.5061 29.1406 31.8945C29.1406 32.2829 29.4554 32.5977 29.8438 32.5977H43.69C44.0783 32.5977 44.3931 32.2829 44.3931 31.8945C44.3931 31.5061 44.0783 31.1914 43.69 31.1914Z" fill="currentColor" />
  <path d="M44.3931 35.8711C44.3931 35.4827 44.0783 35.168 43.69 35.168H29.8438C29.4554 35.168 29.1406 35.4827 29.1406 35.8711C29.1406 36.2595 29.4554 36.5742 29.8438 36.5742H43.69C44.0783 36.5742 44.3931 36.2595 44.3931 35.8711Z" fill="currentColor" />
  <path d="M29.8437 39.1406C29.4554 39.1406 29.1406 39.4553 29.1406 39.8438C29.1406 40.2322 29.4554 40.5469 29.8437 40.5469H36.7669C37.1552 40.5469 37.47 40.2322 37.47 39.8438C37.47 39.4553 37.1552 39.1406 36.7669 39.1406H29.8437Z" fill="currentColor" />
  <path d="M21.6539 32.8469C21.6539 37.329 18.0075 40.9753 13.5255 40.9753C11.954 40.9753 10.4294 40.5263 9.1164 39.6769C8.79053 39.466 8.35506 39.559 8.14412 39.8853C7.93318 40.2113 8.02646 40.6466 8.35253 40.8575C9.89359 41.8546 11.6823 42.3815 13.5254 42.3815C18.7828 42.3815 23.06 38.1043 23.06 32.8469C23.06 31.0032 22.5328 29.214 21.5353 27.6727C21.3243 27.3467 20.8889 27.2536 20.5629 27.4644C20.2369 27.6754 20.1436 28.1108 20.3547 28.4368C21.2047 29.7499 21.6539 31.275 21.6539 32.8469Z" fill="currentColor" />
  <path d="M3.99219 32.8472C3.99219 34.8612 4.61263 36.7867 5.78647 38.4157C6.014 38.7313 6.45322 38.8018 6.76803 38.5751C7.08303 38.348 7.15447 37.9086 6.92741 37.5935C5.92719 36.2055 5.39844 34.5643 5.39844 32.8472C5.39844 28.3651 9.04484 24.7188 13.5268 24.7188C15.2402 24.7188 16.8787 25.2453 18.2651 26.2417C18.5805 26.4684 19.0198 26.3965 19.2463 26.081C19.4729 25.7658 19.401 25.3263 19.0858 25.0997C17.4588 23.9304 15.5367 23.3125 13.5269 23.3125C8.26944 23.3126 3.99219 27.5898 3.99219 32.8472Z" fill="currentColor" />
  <path d="M47.2604 15.1298C47.6487 15.1298 47.9635 14.815 47.9635 14.4266V10.8809C47.9635 10.1904 47.6947 9.54122 47.2063 9.05278L38.9108 0.757125C38.4224 0.268875 37.7732 0 37.0826 0H14.492C12.4643 0 10.8145 1.64972 10.8145 3.67744V20.6765C9.54601 20.9578 8.32923 21.4386 7.20198 22.1036L6.69779 21.411L9.40117 19.4432C10.0793 18.9497 10.2286 18.0016 9.7351 17.3235C8.4766 15.5945 6.05495 15.2071 4.31917 16.4707L1.63548 18.4241C-0.0968348 19.685 -0.478585 22.1075 0.782634 23.8401C1.27782 24.5204 2.22704 24.6655 2.90223 24.1738L5.56079 22.2386L6.03104 22.8847C2.90504 25.2373 1.05929 28.9088 1.05929 32.8473C1.05929 35.7883 2.0836 38.4942 3.79342 40.6285L1.78351 44.4816C1.22392 45.5542 1.55476 46.8785 2.55301 47.5621C3.55117 48.2455 4.90548 48.0751 5.70329 47.1656L8.32538 44.1759C9.12648 44.5452 9.97323 44.8316 10.8545 45.0248C11.1103 46.7069 12.5664 48 14.3187 48H44.4594C46.3915 48 47.9634 46.428 47.9634 44.4958V17.7193C47.9634 17.3309 47.6486 17.0162 47.2603 17.0162C46.872 17.0162 46.5572 17.3309 46.5572 17.7193V44.4958C46.5572 45.6526 45.616 46.5938 44.4594 46.5938H25.3174C25.6199 45.9395 25.6234 45.1603 25.2692 44.4816L23.2592 40.6283C24.9689 38.4941 25.9932 35.7882 25.9932 32.8471C25.9932 28.7679 24.0239 25.1401 20.9861 22.8643L21.459 22.2146L24.1503 24.1736C24.8251 24.665 25.7744 24.5207 26.27 23.8399C27.5279 22.1115 27.1454 19.682 25.4171 18.4239L22.7334 16.4705C21.0011 15.2096 18.5786 15.5907 17.3176 17.3233C16.8242 18.001 16.9732 18.9495 17.6514 19.4429L20.3221 21.3869L19.8136 22.0854C17.9665 21.0022 15.8179 20.38 13.5263 20.38C13.088 20.38 12.6524 20.4038 12.2207 20.4488V3.67744C12.2207 2.42513 13.2396 1.40625 14.4919 1.40625H37.0825C37.1082 1.40625 37.1336 1.40831 37.159 1.41V7.12706C37.159 9.15478 38.8088 10.8045 40.8365 10.8045H46.5534C46.555 10.8299 46.5572 10.8552 46.5572 10.8809V14.4266C46.5573 14.8149 46.8721 15.1298 47.2604 15.1298ZM2.07479 23.0368C2.0747 23.0368 2.0747 23.0368 2.07479 23.0368C2.04395 23.0592 2.01273 23.0599 1.9922 23.0568C1.97148 23.0535 1.94204 23.0431 1.91973 23.0123C1.1161 21.9085 1.3591 20.3647 2.4632 19.561L5.14688 17.6076C6.24835 16.8058 7.79307 17.0449 8.5982 18.1511C8.62051 18.1818 8.62135 18.213 8.61807 18.2337C8.61479 18.2544 8.60448 18.2838 8.57373 18.3062C7.84867 18.8339 2.79488 22.5127 2.07479 23.0368ZM18.4546 18.151C19.2594 17.0452 20.8039 16.8053 21.9059 17.6075L24.5895 19.5609C25.6909 20.3627 25.9347 21.9109 25.133 23.0123C25.096 23.0631 25.0264 23.0721 24.9778 23.0367L18.4788 18.306C18.4293 18.2699 18.4184 18.2007 18.4546 18.151ZM4.64607 46.2383C4.3172 46.6133 3.75892 46.6836 3.34754 46.4017C2.93598 46.1199 2.79966 45.574 3.03029 45.1319L4.79935 41.7407C5.47895 42.4076 6.23382 42.998 7.05076 43.4965L4.64607 46.2383ZM14.3187 46.5938C13.4313 46.5938 12.6714 46.0396 12.3654 45.2595C12.7478 45.2949 13.1349 45.3141 13.5264 45.3141C15.3818 45.3141 17.1434 44.906 18.7273 44.1759L20.8479 46.5938H14.3187ZM23.7054 46.4017C23.2938 46.6835 22.7354 46.6132 22.4066 46.2383L20.002 43.4966C20.819 42.9981 21.5739 42.4077 22.2534 41.7408L24.0225 45.1321C24.2531 45.5741 24.1167 46.1199 23.7054 46.4017ZM24.587 32.8471C24.587 38.946 19.6252 43.9077 13.5264 43.9077C7.42754 43.9077 2.46573 38.9459 2.46573 32.8471C2.46573 26.7381 7.41676 21.7865 13.5264 21.7865C19.6253 21.7865 24.587 26.7482 24.587 32.8471ZM38.5654 7.12697V2.40056L45.563 9.39816H40.8366C39.5843 9.39816 38.5654 8.37938 38.5654 7.12697Z" fill="currentColor" />
  <path d="M30.5495 9.11781V6.47219C30.5495 5.54191 29.7927 4.78516 28.8625 4.78516H16.3628C15.4326 4.78516 14.6758 5.54191 14.6758 6.47219V9.11781C14.6758 10.0481 15.4326 10.8048 16.3628 10.8048H28.8625C29.7927 10.8048 30.5495 10.0481 30.5495 9.11781ZM29.1433 9.11781C29.1433 9.27259 29.0173 9.39859 28.8625 9.39859H16.3628C16.208 9.39859 16.082 9.27259 16.082 9.11781V6.47219C16.082 6.31741 16.208 6.19141 16.3628 6.19141H28.8625C29.0173 6.19141 29.1433 6.31741 29.1433 6.47219V9.11781Z" fill="currentColor" />
</svg>