<svg width="32" height="40" viewBox="0 0 32 40" fill="none" xmlns="http://www.w3.org/2000/svg">
  <path d="M9.82834 2.89893L8.84354 3.18854C8.53256 3.2801 8.35434 3.60633 8.44589 3.9173C8.52127 4.17335 8.75504 4.33906 9.00894 4.33906C9.06388 4.33906 9.11942 4.33112 9.17465 4.31495L10.1595 4.02534C10.4704 3.93378 10.6487 3.60755 10.5571 3.29658C10.4655 2.9853 10.1393 2.80769 9.82834 2.89893Z" fill="currentColor" />
  <path d="M31.3231 9.33667C31.2148 9.17065 31.0296 9.07025 30.8315 9.07025H30.2041C29.9343 6.54979 28.8674 4.4868 27.0269 2.93192C24.8116 1.06057 21.3893 0.0754626 16.8556 0.00405116C13.5258 -0.0484393 10.8659 0.426111 10.7487 0.447473C10.5961 0.476465 6.99138 1.19668 5.5012 4.15446C4.89328 5.36082 4.85178 6.27758 5.3773 6.87938C6.41734 8.07018 9.19903 7.20165 9.78405 7.00145C9.80602 6.99505 9.83654 6.98589 9.88201 6.97216C11.7088 6.42253 13.4929 5.92632 15.0413 5.53722C15.3557 5.45817 15.5464 5.13926 15.4674 4.82463C15.3883 4.51029 15.0691 4.31925 14.7551 4.3986C13.1895 4.79197 11.3875 5.29307 9.54388 5.84789C9.49596 5.86223 9.46453 5.87169 9.4511 5.87566C9.4389 5.87901 9.42699 5.88268 9.41509 5.88664C8.19866 6.30596 6.60441 6.49913 6.26139 6.10698C6.12986 5.95622 6.13627 5.50273 6.54978 4.68241C7.77629 2.24771 10.9385 1.60654 10.9636 1.60165C11.0679 1.58273 21.4507 -0.241922 26.2694 3.82883C27.8386 5.15483 28.7633 6.9157 29.0227 9.07025H27.6906C27.4492 7.31243 26.7021 5.92418 25.4167 4.83836C23.0715 2.85715 19.4008 3.35825 16.844 3.90788C16.5269 3.97593 16.3252 4.28813 16.3933 4.6052C16.4613 4.92228 16.7738 5.12401 17.0906 5.05565C19.4057 4.55821 22.7089 4.08763 24.659 5.73528C25.6716 6.59038 26.278 7.68597 26.5029 9.07025H0.665057C0.466691 9.07025 0.281754 9.17035 0.173416 9.33667C0.0650786 9.50269 0.0479886 9.71234 0.127945 9.89392C0.181961 10.0163 1.48903 12.9249 4.91251 15.414C5.17466 15.6047 5.54179 15.5464 5.73252 15.2843C5.92295 15.0221 5.86497 14.655 5.60282 14.4643C3.51083 12.9433 2.26266 11.2315 1.65627 10.2443H29.843C29.6654 10.5348 29.431 10.8885 29.1359 11.2819C29.1356 11.2822 29.135 11.2825 29.1347 11.2831C29.0453 11.4021 28.951 11.5239 28.8524 11.6475C28.8503 11.6502 28.8482 11.653 28.8457 11.6557C28.8143 11.6951 28.7813 11.7351 28.7487 11.7747C28.7264 11.8022 28.7047 11.829 28.6815 11.8568C28.6754 11.8644 28.6687 11.8721 28.6623 11.8797C28.3535 12.2493 27.997 12.6402 27.5881 13.0379C25.8016 14.7746 22.6445 16.9655 17.7492 17.541C17.4632 17.5746 17.2438 17.8105 17.2313 18.098L17.2304 18.1133C16.768 18.2524 16.3066 18.3873 15.8382 18.5237C15.8305 18.5259 15.8226 18.5283 15.815 18.5304C15.3004 18.68 14.7948 18.8274 14.3043 18.9763L14.2656 18.098C14.2528 17.8105 14.0333 17.5746 13.7477 17.5407C11.5422 17.2816 9.50054 16.6759 7.67924 15.7405C7.39085 15.5925 7.03685 15.7063 6.88884 15.9947C6.74083 16.2831 6.85466 16.6368 7.14274 16.7848C8.95122 17.7138 10.9578 18.3379 13.1141 18.6427L13.1453 19.3431C12.408 19.5894 11.7262 19.8467 11.1314 20.132C10.7975 20.2919 10.1027 20.6249 9.48162 21.1916C8.66741 21.9347 8.2545 22.816 8.2545 23.8115C8.2545 25.5849 9.30797 26.9994 11.2214 27.7944C11.8577 28.059 12.588 28.2686 13.5475 28.4603L13.6516 30.8248C13.4358 30.8483 13.2289 30.87 13.0363 30.8904C12.686 30.9273 12.3552 30.9621 12.0646 30.9966L11.931 31.0122C10.1536 31.2145 8.49803 31.5609 8.4193 32.7154C8.39733 33.0385 8.50444 33.3367 8.72905 33.5772C9.40716 34.3029 11.031 34.3606 13.0873 34.3606C13.2924 34.3606 13.5359 34.3581 13.8072 34.3508L13.8185 34.6023C12.353 34.8876 8.22276 35.9338 5.48044 39.0234C5.32694 39.1961 5.2894 39.443 5.38401 39.6539C5.47892 39.8644 5.68858 39.9999 5.91959 39.9999H25.5773C25.8083 39.9999 26.0179 39.8644 26.1125 39.6539C26.2075 39.443 26.1696 39.1961 26.0164 39.0234C25.0695 37.9565 23.8613 37.0318 22.4251 36.2753C22.1385 36.1239 21.7833 36.2341 21.6322 36.5206C21.4812 36.8075 21.591 37.1627 21.8779 37.3138C22.7226 37.759 23.4786 38.265 24.1377 38.8259H7.35972C10.3776 36.2621 14.4603 35.6814 14.5054 35.6753C14.807 35.635 15.0276 35.3713 15.0139 35.0677L14.98 34.294C14.9904 34.2934 15.0004 34.2922 15.0108 34.2916C15.1124 34.2843 15.215 34.2763 15.319 34.2675C15.3319 34.2663 15.345 34.2651 15.3578 34.2638C15.4634 34.2547 15.5699 34.2449 15.6776 34.2342C15.8189 34.2199 15.9578 34.2043 16.0948 34.1875C16.0997 34.1869 16.1046 34.1866 16.1091 34.1857C16.2495 34.1689 16.3878 34.1503 16.5236 34.1308L16.4824 35.0677C16.469 35.371 16.6896 35.6344 16.9902 35.6753C17.0021 35.6768 18.2008 35.8431 19.7624 36.3946C20.0682 36.5023 20.4036 36.3424 20.5116 36.0366C20.6194 35.7308 20.4591 35.3954 20.1534 35.2877C19.1014 34.916 18.2109 34.7088 17.6778 34.6035L17.7083 33.9181C19.3361 33.5595 20.5681 32.9876 21.3832 32.2091C22.1871 31.4412 22.6119 30.4699 22.6119 29.3999C22.6119 27.3372 20.9251 26.3878 19.9196 26.0054C19.4115 25.8123 18.8304 25.6536 18.0794 25.5037L18.25 21.639C20.6514 20.92 23.2018 20.0578 25.3548 18.7038C28.1279 16.9597 29.7442 14.6605 30.1629 11.8687C30.9838 10.7533 31.346 9.94489 31.3686 9.89362C31.4486 9.71234 31.4315 9.50269 31.3231 9.33667ZM19.5024 27.1032C20.7866 27.5914 21.4378 28.3641 21.4378 29.4002C21.4378 30.1418 21.1388 30.8193 20.5724 31.3604C19.8479 32.0522 18.6653 32.5524 17.0506 32.8545C17.0451 32.8554 17.0396 32.8557 17.0341 32.8567C16.6884 32.9214 16.3264 32.9766 15.9541 33.0221C15.8244 33.0376 15.6935 33.0526 15.5595 33.0663C15.471 33.0752 15.3813 33.0834 15.291 33.0913C15.2742 33.0929 15.2577 33.0944 15.2412 33.0959C15.1536 33.1032 15.0657 33.1103 14.9769 33.117C14.9617 33.1182 14.9464 33.1191 14.9312 33.1203C14.8414 33.1267 14.7508 33.1332 14.6599 33.1386C14.6489 33.1393 14.6382 33.1399 14.6272 33.1405C14.5415 33.1457 14.4551 33.1505 14.3687 33.1548C13.8649 33.1798 13.4215 33.1869 13.0833 33.1869C12.3768 33.1869 11.4979 33.1869 10.7753 33.1063C9.9641 33.016 9.69158 32.8609 9.61132 32.7978C9.68334 32.7318 9.90856 32.5762 10.5412 32.423C11.096 32.289 11.7018 32.2201 12.0637 32.1789L12.2029 32.1627C12.4855 32.1291 12.8126 32.0946 13.159 32.0583C13.549 32.0171 13.9314 31.9756 14.3043 31.932C14.3129 31.9314 14.3214 31.9314 14.33 31.9304C14.8445 31.8706 15.5128 31.787 16.1952 31.6701C17.7556 31.4068 18.9973 31.0381 19.6605 30.404C19.9876 30.0915 20.0957 29.6837 19.9822 29.1927C19.8344 28.5524 19.0831 28.2329 17.9695 27.9995L18.0272 26.6915C18.6259 26.8169 19.0956 26.9484 19.5024 27.1032ZM14.4682 22.6943C14.929 22.5591 15.4051 22.4355 15.8375 22.3232C16.1333 22.2466 16.4149 22.1733 16.6676 22.1028C16.7268 22.0864 16.7848 22.0699 16.8407 22.0537C16.877 22.043 16.9142 22.0323 16.9508 22.0217C16.9868 22.011 17.0232 22.0006 17.0595 21.9899L16.6893 30.3817C16.6478 30.3902 16.606 30.3988 16.5639 30.4073C16.5498 30.4101 16.5355 30.4131 16.5211 30.4159C15.974 30.5242 15.3892 30.6127 14.8207 30.6869L14.4682 22.6943ZM17.8783 30.067L17.917 29.1912C18.5588 29.3398 18.7794 29.4643 18.8509 29.5192C18.853 29.5327 18.8539 29.5434 18.8536 29.551C18.8527 29.5522 18.8512 29.5537 18.8493 29.5553C18.6424 29.753 18.3015 29.9218 17.8783 30.067ZM24.7298 17.7101C22.589 19.0566 19.966 19.9089 17.5273 20.6294C17.5233 20.6307 17.5194 20.631 17.5157 20.6322C17.1776 20.732 16.8419 20.8305 16.5126 20.9264C16.2352 21.0069 15.8986 21.0942 15.5421 21.1867C13.4639 21.7259 11.1082 22.3372 11.1082 23.7377C11.1082 25.0383 12.5599 25.6032 13.4321 25.8498L13.4938 27.2503C12.7549 27.0906 12.1653 26.9155 11.6719 26.7104C10.1832 26.0918 9.42852 25.1165 9.42852 23.8115C9.42852 22.412 10.6898 21.6454 11.6389 21.1907C12.2886 20.8794 13.0702 20.5971 13.9262 20.323C13.9274 20.3227 13.929 20.3227 13.9302 20.3221C14.4639 20.1515 15.0236 19.9849 15.5794 19.8219C15.594 19.8177 15.6087 19.8134 15.623 19.8091C15.7973 19.7582 15.9712 19.7075 16.1433 19.6574C17.6167 19.2287 19.2854 18.7431 20.8525 18.1358C24.186 17.2276 26.5895 15.6142 28.2708 14.0132C27.5524 15.442 26.3683 16.6795 24.7298 17.7101ZM13.3769 24.5955C12.6729 24.3428 12.2825 24.0422 12.2825 23.7377C12.2825 23.7352 12.3543 23.4722 13.3104 23.0861L13.3769 24.5955Z" fill="currentColor" />
</svg>