<svg width="20" height="20" viewBox="0 0 20 20" fill="none" xmlns="http://www.w3.org/2000/svg">
<path d="M10.8315 1.66602V2.73102L14.9981 4.12102L18.0248 3.11268L18.5523 4.69268L16.0256 5.53518L18.6056 12.6285C17.6956 13.576 16.4148 14.166 14.9981 14.166C13.5806 14.166 12.3006 13.576 11.3906 12.6285L13.969 5.53518L10.8315 4.48852V15.8327H14.1648V17.4993H5.83146V15.8327H9.16479V4.48852L6.02479 5.53518L8.60479 12.6285C7.69562 13.576 6.41479 14.166 4.99812 14.166C3.58063 14.166 2.30062 13.576 1.39062 12.6285L3.96896 5.53518L1.44396 4.69352L1.97146 3.11185L4.99812 4.12018L9.16479 2.73102V1.66602H10.8315ZM14.9981 7.58518L13.3665 12.0735C13.8556 12.3493 14.414 12.4993 14.9981 12.4993C15.5815 12.4993 16.1398 12.3493 16.6298 12.0743L14.9981 7.58435V7.58518ZM4.99812 7.58518L3.36646 12.0735C3.85562 12.3493 4.41396 12.4993 4.99812 12.4993C5.58146 12.4993 6.13979 12.3493 6.62979 12.0743L4.99812 7.58435V7.58518Z" fill="currentColor"/>
</svg>
