<svg width="40" height="40" viewBox="0 0 40 40" fill="none" xmlns="http://www.w3.org/2000/svg">
  <path d="M39.5511 13.8698L28.7364 3.05516C28.5073 2.82618 28.136 2.82618 27.9069 3.05516C27.6779 3.28429 27.6779 3.6556 27.9069 3.88465L38.7216 14.6993C38.7884 14.766 38.825 14.8544 38.8249 14.9486C38.8249 15.0423 38.7883 15.1303 38.7216 15.1969L37.3695 16.549C37.2322 16.6862 37.0091 16.6862 36.8719 16.549L23.447 3.12429C23.3808 3.05813 23.3443 2.97015 23.3443 2.87647C23.3442 2.78239 23.3809 2.69386 23.4476 2.62716L24.7997 1.27503C24.9367 1.13802 25.1601 1.13802 25.2972 1.27503L25.9713 1.94914C26.2005 2.17812 26.5718 2.17812 26.8008 1.94914C27.0299 1.72001 27.0299 1.3487 26.8008 1.11965L26.1263 0.445149C25.5314 -0.148565 24.5641 -0.148331 23.9701 0.44554L22.6181 1.79766C22.3297 2.08607 22.1709 2.46934 22.1712 2.87709C22.1714 3.24879 22.305 3.59922 22.5469 3.87605L21.8758 4.54687C21.5983 4.30484 21.2477 4.17142 20.876 4.17142C20.4686 4.17142 20.0857 4.33002 19.7978 4.61804L18.4456 5.97008C18.1576 6.25818 17.999 6.64114 17.999 7.04842C17.999 7.42019 18.1324 7.7707 18.3743 8.04816L14.2207 12.2018C13.903 12.5195 13.728 12.9417 13.728 13.3907C13.728 13.8398 13.903 14.2621 14.2206 14.5797L15.5579 15.917C16.0657 16.4248 16.8404 16.554 17.4853 16.2388L18.6251 15.6817C18.8196 15.5867 19.0535 15.6254 19.2068 15.7786L19.3723 15.944L11.8777 23.4379C10.9546 24.3611 9.68346 24.8203 8.38968 24.6983C6.1039 24.4821 3.86238 25.2892 2.24061 26.9118C0.838281 28.3149 0.0445244 30.1876 0.00542311 32.1849C-0.0337564 34.1833 0.687193 36.085 2.03533 37.5397C3.4687 39.0857 5.4161 39.959 7.51889 39.9986C7.56894 39.9996 7.61876 40.0001 7.66873 40.0001C9.71584 40.0001 11.6348 39.2059 13.0863 37.7543C14.7181 36.1225 15.5231 33.8683 15.2947 31.5694C15.1835 30.4535 15.5458 29.3038 16.2888 28.415C16.4966 28.1665 16.4635 27.7967 16.2149 27.5889C15.9664 27.3812 15.5965 27.4142 15.3888 27.6627C14.4451 28.7919 13.9853 30.2582 14.1276 31.6855C14.321 33.6329 13.6392 35.5425 12.2569 36.9247C10.9973 38.1842 9.32342 38.8613 7.54102 38.8258C5.75996 38.7922 4.11012 38.0521 2.89563 36.7422C0.555344 34.217 0.633703 30.1791 3.07026 27.741C4.44389 26.3667 6.34226 25.684 8.27934 25.8661C9.92182 26.0214 11.5359 25.4384 12.707 24.2674L20.2016 16.7735L23.2237 19.7955L17.3454 25.6745C17.1164 25.9035 17.1164 26.2749 17.3455 26.5039C17.46 26.6184 17.6102 26.6756 17.7602 26.6756C17.9103 26.6756 18.0604 26.6184 18.175 26.5038L24.0532 20.6249L24.218 20.7897C24.3712 20.9429 24.4101 21.1771 24.3146 21.3724L23.7577 22.5112C23.4425 23.1562 23.5718 23.9308 24.0795 24.4386L25.4168 25.7759C25.7446 26.1037 26.1752 26.2676 26.6057 26.2676C27.0363 26.2676 27.4669 26.1037 27.7947 25.7759L31.9483 21.6223C32.2258 21.8644 32.5764 21.9978 32.9481 21.9978C33.3555 21.9978 33.7384 21.8392 34.0264 21.5512L35.3786 20.199C35.9478 19.6297 35.9705 18.7194 35.4497 18.121L36.1212 17.4499C36.407 17.6985 36.7632 17.8243 37.1204 17.8243C37.5108 17.8243 37.9014 17.6757 38.1987 17.3785L39.5503 16.0269C39.8386 15.7392 39.9974 15.3565 39.9977 14.9492C39.9981 14.5415 39.8395 14.1582 39.5511 13.8698ZM22.709 5.37269L23.3729 4.70907L35.2881 16.6243L34.6242 17.2878L22.709 5.37269ZM26.9654 24.9464C26.7672 25.1447 26.4446 25.1446 26.2465 24.9464L24.9092 23.6092C24.7556 23.4556 24.7165 23.2213 24.8118 23.0264L25.3686 21.8877C25.6841 21.2423 25.5551 20.4677 25.0477 19.9602L20.0365 14.949C19.5288 14.4414 18.7543 14.3124 18.1098 14.628L16.9703 15.1848C16.7753 15.2802 16.541 15.2411 16.3875 15.0874L15.0502 13.7501C14.9541 13.654 14.9012 13.5264 14.9012 13.3906C14.9012 13.255 14.9542 13.1273 15.0503 13.0312L19.2002 8.88125L31.1153 20.7964L26.9654 24.9464ZM34.5492 19.3695L33.1971 20.7217C33.1306 20.7881 33.0423 20.8247 32.9483 20.8247C32.8542 20.8247 32.7659 20.7881 32.6994 20.7216L19.2751 7.29718C19.2086 7.23071 19.1721 7.14242 19.1721 7.04834C19.1721 6.95426 19.2087 6.86597 19.2751 6.7995L20.6273 5.44738C20.6938 5.3809 20.7821 5.34438 20.8761 5.34438C20.9701 5.34438 21.0584 5.38098 21.1249 5.44745L34.5492 18.8719C34.6865 19.009 34.6865 19.2323 34.5492 19.3695Z" fill="currentColor" />
  <path d="M10.388 29.6084C9.6607 28.881 8.69373 28.4805 7.66521 28.4805C6.63668 28.4805 5.66963 28.881 4.94235 29.6083C3.44109 31.1096 3.44109 33.5526 4.94235 35.0539C5.66971 35.7812 6.63668 36.1818 7.66521 36.1818C8.69373 36.1818 9.66078 35.7812 10.388 35.0539V35.0539C11.8892 33.5525 11.8892 31.1096 10.388 29.6084ZM9.55849 34.2244C9.05275 34.7302 8.38045 35.0087 7.66521 35.0087C6.94996 35.0087 6.27758 34.7301 5.77184 34.2244C5.26611 33.7186 4.98763 33.0463 4.98763 32.3311C4.98763 31.6158 5.26618 30.9435 5.77184 30.4378C6.27758 29.932 6.94996 29.6535 7.66521 29.6535C8.38045 29.6535 9.05275 29.9321 9.55849 30.4378C10.0642 30.9435 10.3427 31.6158 10.3427 32.3311C10.3427 33.0463 10.0642 33.7186 9.55849 34.2244Z" fill="currentColor" />
  <path d="M27.2111 18.6706L21.3255 12.785C21.0964 12.556 20.7251 12.556 20.496 12.785C20.267 13.0141 20.267 13.3855 20.496 13.6145L26.3816 19.5001C26.4962 19.6146 26.6463 19.6718 26.7964 19.6718C26.9465 19.6718 27.0966 19.6146 27.2112 19.5001C27.4401 19.2711 27.4401 18.8998 27.2111 18.6706Z" fill="currentColor" />
</svg>