<svg width="40" height="40" viewBox="0 0 40 40" fill="none" xmlns="http://www.w3.org/2000/svg">
  <path d="M35.0391 23.5731C35.3625 23.5731 35.625 23.3106 35.625 22.9871V15.6455H35.8594C36.1829 15.6455 36.4453 15.3831 36.4453 15.0596V13.216H38.5547C39.3515 13.216 40 12.5675 40 11.7707V10.3254C40 9.52858 39.3515 8.88008 38.5547 8.88008H35.13L20.2991 0.0821685C20.1147 -0.0273895 19.8853 -0.0273895 19.7012 0.0821685L12.5958 4.29695C12.3172 4.46236 12.2256 4.82155 12.3907 5.09987C12.5558 5.37819 12.9153 5.47005 13.1937 5.30495L20 1.26717L32.8333 8.88008H7.16675L11.2518 6.45668C11.5302 6.29158 11.622 5.93208 11.4569 5.65376C11.2918 5.37544 10.9323 5.28389 10.654 5.44899L4.87 8.88008H1.44531C0.648499 8.88008 0 9.52858 0 10.3254V11.7704C0 12.5675 0.648499 13.216 1.44531 13.216H3.55469V15.0596C3.55469 15.3831 3.81714 15.6455 4.14062 15.6455H4.375V31.3584H4.14062C3.81714 31.3584 3.55469 31.6206 3.55469 31.9444V33.7879H2.33398C2.0105 33.7879 1.74805 34.0501 1.74805 34.3739V36.3081H0.585938C0.262451 36.3081 0 36.5702 0 36.894V39.4141C0 39.7376 0.262451 40.0001 0.585938 40.0001H39.4141C39.7375 40.0001 40 39.7376 40 39.4141V36.894C40 36.5705 39.7375 36.3081 39.4141 36.3081H38.252V34.3739C38.252 34.0504 37.9895 33.7879 37.666 33.7879H36.4453V31.9444C36.4453 31.6209 36.1829 31.3584 35.8594 31.3584H35.625V25.1746C35.625 24.8512 35.3625 24.5887 35.0391 24.5887C34.7156 24.5887 34.4531 24.8512 34.4531 25.1746V31.3584H29.6875V15.6455H34.4531V22.9871C34.4531 23.3106 34.7156 23.5731 35.0391 23.5731ZM1.17188 11.7704V10.3254C1.17188 10.1746 1.29456 10.052 1.44531 10.052H38.5544C38.7054 10.052 38.8281 10.1746 38.8281 10.3254V11.7704C38.8281 11.9215 38.7054 12.0441 38.5544 12.0441H1.44531C1.29456 12.0441 1.17188 11.9215 1.17188 11.7704ZM12.3047 33.7879V31.9444C12.3047 31.6209 12.0422 31.3584 11.7188 31.3584H11.4844V15.6455H11.7188C12.0422 15.6455 12.3047 15.3831 12.3047 15.0596V13.216H15.625V15.0596C15.625 15.3831 15.8875 15.6455 16.2109 15.6455H16.4453V31.3584H16.2109C15.8875 31.3584 15.625 31.6209 15.625 31.9444V33.7879H12.3047ZM16.7969 32.5303H23.2031V33.7879H16.7969V32.5303ZM22.3828 31.3584H17.6172V15.6455H22.3828V31.3584ZM23.2031 14.4736H16.7969V13.216H23.2031V14.4736ZM11.1328 13.216V14.4736H4.72656V13.216H11.1328ZM5.54688 15.6455H10.3125V31.3584H5.54688V15.6455ZM4.72656 32.5303H11.1328V33.7879H4.72656V32.5303ZM38.8281 38.8282H1.17188V37.4799H38.8281V38.8282ZM37.0801 36.3081H2.91992V34.9598H37.0801V36.3081ZM35.2734 32.5303V33.7879H28.8672V32.5303H35.2734ZM28.5156 31.3584H28.2812C27.9578 31.3584 27.6953 31.6209 27.6953 31.9444V33.7879H24.375V31.9444C24.375 31.6209 24.1125 31.3584 23.7891 31.3584H23.5547V15.6455H23.7891C24.1125 15.6455 24.375 15.3831 24.375 15.0596V13.216H27.6953V15.0596C27.6953 15.3831 27.9578 15.6455 28.2812 15.6455H28.5156V31.3584ZM28.8672 14.4736V13.216H35.2734V14.4736H28.8672Z" fill="currentColor" />
</svg>