<svg width="20" height="20" viewBox="0 0 20 20" fill="none" xmlns="http://www.w3.org/2000/svg">
<path d="M16.6667 18.3327H3.33333C3.11232 18.3327 2.90036 18.2449 2.74408 18.0886C2.5878 17.9323 2.5 17.7204 2.5 17.4993V2.49935C2.5 2.27834 2.5878 2.06637 2.74408 1.91009C2.90036 1.75381 3.11232 1.66602 3.33333 1.66602H16.6667C16.8877 1.66602 17.0996 1.75381 17.2559 1.91009C17.4122 2.06637 17.5 2.27834 17.5 2.49935V17.4993C17.5 17.7204 17.4122 17.9323 17.2559 18.0886C17.0996 18.2449 16.8877 18.3327 16.6667 18.3327ZM15.8333 16.666V3.33268H4.16667V16.666H15.8333ZM6.66667 7.49935H13.3333V9.16602H6.66667V7.49935ZM6.66667 10.8327H13.3333V12.4993H6.66667V10.8327Z" fill="currentColor"/>
</svg>
