<svg width="48" height="48" viewBox="0 0 48 48" fill="none" xmlns="http://www.w3.org/2000/svg">
  <path d="M44.6117 25.128C42.8322 24.7581 40.4216 24.5625 37.6406 24.5625C36.4928 24.5625 35.4095 24.5963 34.4062 24.6615V2.57812C34.4062 1.15659 33.2497 0 31.8281 0H2.57812C1.08422 0 0 1.242 0 2.95312V41.8594C0 42.8782 1.12622 44.0625 2.57812 44.0625H27.2812V45.1406C27.2812 46.7301 29.8314 47.2602 30.6696 47.4345C32.449 47.8044 34.8596 48 37.6406 48C40.4216 48 42.8322 47.8044 44.6117 47.4345C45.4498 47.2602 48 46.7301 48 45.1406V27.4219C48 25.8324 45.4498 25.3023 44.6117 25.128ZM46.5938 36.2767C46.5792 36.3069 46.2866 36.8237 44.0904 37.2454C42.4237 37.5653 40.1933 37.7345 37.6406 37.7345C35.0879 37.7345 32.8576 37.5653 31.1908 37.2454C28.9406 36.8134 28.6887 36.2812 28.6875 36.2812V33.5412C29.4234 33.8859 30.2554 34.0593 30.6696 34.1453C32.449 34.5153 34.8596 34.7108 37.6406 34.7108C40.4216 34.7108 42.8322 34.5153 44.6117 34.1453C45.0258 34.0593 45.8578 33.8859 46.5938 33.5412V36.2767ZM18.0938 36.4219C17.7053 36.4219 17.3906 36.7366 17.3906 37.125V38.9062H6.70312C6.33666 38.9062 6.09375 38.6061 6.09375 38.4844V31.5H17.3906V33.8438C17.3906 34.2322 17.7053 34.5469 18.0938 34.5469C18.4822 34.5469 18.7969 34.2322 18.7969 33.8438V31.5H27.2812V38.9062H18.7969V37.125C18.7969 36.7366 18.4822 36.4219 18.0938 36.4219ZM30.0938 25.2564C29.0156 25.5208 27.2812 26.1109 27.2812 27.4219V30.0938H18.7969V22.6875H29.4844C29.8204 22.6875 30.0938 22.9609 30.0938 23.2969V25.2564ZM17.3906 30.0938H6.09375V23.4844C6.09375 23.0077 6.33862 22.6875 6.70312 22.6875H17.3906V30.0938ZM46.5938 31.8471C46.5792 31.8772 46.2866 32.394 44.0904 32.8157C42.4237 33.1357 40.1933 33.3048 37.6406 33.3048C35.0879 33.3048 32.8576 33.1357 31.1908 32.8157C28.9406 32.3837 28.6887 31.8516 28.6875 31.8516V29.1115C29.4234 29.4563 30.2554 29.6296 30.6696 29.7157C32.449 30.0857 34.8596 30.2812 37.6406 30.2812C40.4216 30.2812 42.8322 30.0857 44.6117 29.7157C45.0258 29.6297 45.8578 29.4563 46.5938 29.1116V31.8471ZM44.0904 26.4578C46.2113 26.865 46.557 27.3611 46.5914 27.4219C46.557 27.4826 46.2113 27.9787 44.0904 28.3859C42.4237 28.7059 40.1933 28.875 37.6406 28.875C35.0879 28.875 32.8576 28.7059 31.1908 28.3859C29.07 27.9787 28.7242 27.4826 28.6898 27.4219C28.7242 27.3611 29.07 26.865 31.1908 26.4578C32.8576 26.1379 35.0879 25.9688 37.6406 25.9688C40.1933 25.9688 42.4237 26.1379 44.0904 26.4578ZM2.57812 42.6562C1.90106 42.6562 1.40625 42.097 1.40625 41.8594V18.9375H24.5625C24.9509 18.9375 25.2656 18.6228 25.2656 18.2344C25.2656 17.846 24.9509 17.5312 24.5625 17.5312H1.40625V2.95312C1.40625 2.01347 1.86619 1.40625 2.57812 1.40625H31.8281C32.4743 1.40625 33 1.93191 33 2.57812V17.5312H27.8438C27.4553 17.5312 27.1406 17.846 27.1406 18.2344C27.1406 18.6228 27.4553 18.9375 27.8438 18.9375H33V24.7789C32.4684 24.8343 31.9677 24.9002 31.5 24.976V23.2969C31.5 22.1855 30.5958 21.2812 29.4844 21.2812H6.70312C5.55403 21.2812 4.6875 22.2284 4.6875 23.4844V38.4844C4.6875 39.4582 5.62941 40.3125 6.70312 40.3125H27.2812V42.6562H2.57812ZM44.0904 46.1047C42.4237 46.4246 40.1933 46.5938 37.6406 46.5938C35.0879 46.5938 32.8576 46.4246 31.1908 46.1047C28.9406 45.6727 28.6887 45.1406 28.6875 45.1406V42.4006C29.4234 42.7453 30.2554 42.9187 30.6696 43.0047C32.449 43.3747 34.8596 43.5702 37.6406 43.5702C38.9806 43.5702 40.2499 43.5238 41.4131 43.4321C41.8002 43.4017 42.0893 43.0631 42.0589 42.676C42.0284 42.2889 41.6889 41.9997 41.3028 42.0303C40.1761 42.119 38.944 42.164 37.6406 42.164C35.0879 42.164 32.8576 41.9948 31.1908 41.6749C28.9406 41.2431 28.6887 40.7109 28.6875 40.7109V37.9709C29.4234 38.3156 30.2554 38.489 30.6696 38.575C32.449 38.945 34.8596 39.1405 37.6406 39.1405C40.4216 39.1405 42.8322 38.945 44.6117 38.575C45.0258 38.489 45.8578 38.3156 46.5938 37.9709V40.7063C46.5793 40.7363 46.3204 41.194 44.4593 41.5995C44.0799 41.6822 43.8394 42.0568 43.9221 42.4362C44.0031 42.8183 44.389 43.0572 44.7588 42.9735C45.1435 42.8897 45.9053 42.7232 46.5938 42.4012V45.136C46.5792 45.1663 46.2866 45.683 44.0904 46.1047Z" fill="currentColor" />
  <path d="M31.5938 13.1719V5.76562C31.5938 4.65422 30.6895 3.75 29.5781 3.75H14.0625C13.6741 3.75 13.3594 4.06472 13.3594 4.45312C13.3594 4.84153 13.6741 5.15625 14.0625 5.15625H29.5781C29.9141 5.15625 30.1875 5.42963 30.1875 5.76562V13.1719C30.1875 13.5079 29.9141 13.7812 29.5781 13.7812H6.70312C6.36713 13.7812 6.09375 13.5079 6.09375 13.1719V5.76562C6.09375 5.42963 6.36713 5.15625 6.70312 5.15625H10.7812C11.1697 5.15625 11.4844 4.84153 11.4844 4.45312C11.4844 4.06472 11.1697 3.75 10.7812 3.75H6.70312C5.59172 3.75 4.6875 4.65422 4.6875 5.76562V13.1719C4.6875 14.2833 5.59172 15.1875 6.70312 15.1875H29.5781C30.6895 15.1875 31.5938 14.2833 31.5938 13.1719Z" fill="currentColor" />
  <path d="M14.7656 34.5H9.70312C9.31472 34.5 9 34.8147 9 35.2031C9 35.5915 9.31472 35.9062 9.70312 35.9062H14.7656C15.154 35.9062 15.4688 35.5915 15.4688 35.2031C15.4688 34.8147 15.154 34.5 14.7656 34.5Z" fill="currentColor" />
  <path d="M10.1719 27.0938H11.5312V28.4531C11.5312 28.8415 11.846 29.1562 12.2344 29.1562C12.6228 29.1562 12.9375 28.8415 12.9375 28.4531V27.0938H14.2969C14.6853 27.0938 15 26.779 15 26.3906C15 26.0022 14.6853 25.6875 14.2969 25.6875H12.9375V24.3281C12.9375 23.9397 12.6228 23.625 12.2344 23.625C11.846 23.625 11.5312 23.9397 11.5312 24.3281V25.6875H10.1719C9.78347 25.6875 9.46875 26.0022 9.46875 26.3906C9.46875 26.779 9.78347 27.0938 10.1719 27.0938Z" fill="currentColor" />
  <path d="M25.957 24.4363C25.6823 24.1618 25.2372 24.1618 24.9626 24.4363L24.0014 25.3976L23.0402 24.4363C22.7655 24.1618 22.3204 24.1618 22.0458 24.4363C21.7712 24.711 21.7712 25.1562 22.0458 25.4307L23.007 26.392L22.0458 27.3532C21.7712 27.6279 21.7712 28.073 22.0458 28.3476C22.3205 28.6221 22.7655 28.6221 23.0402 28.3476L24.0014 27.3864L24.9626 28.3476C25.2373 28.6221 25.6823 28.6221 25.957 28.3476C26.2316 28.0729 26.2316 27.6278 25.957 27.3532L24.9958 26.392L25.957 25.4307C26.2316 25.1561 26.2316 24.7109 25.957 24.4363Z" fill="currentColor" />
  <path d="M22.4219 37.5155C22.6018 37.5155 22.7818 37.4469 22.9191 37.3097L26.1066 34.1222C26.3812 33.8475 26.3812 33.4023 26.1066 33.1278C25.8319 32.8533 25.3868 32.8533 25.1122 33.1278L21.9247 36.3152C21.6501 36.5899 21.6501 37.0351 21.9247 37.3097C22.062 37.4469 22.242 37.5155 22.4219 37.5155Z" fill="currentColor" />
  <path d="M22.6406 34.125C23.029 34.125 23.3438 33.8102 23.3438 33.4219C23.3438 33.0335 23.029 32.7188 22.6406 32.7188C22.2523 32.7188 21.9375 33.0335 21.9375 33.4219C21.9375 33.8102 22.2523 34.125 22.6406 34.125Z" fill="currentColor" />
  <path d="M25.4531 37.6875C25.8415 37.6875 26.1562 37.3727 26.1562 36.9844C26.1562 36.596 25.8415 36.2812 25.4531 36.2812C25.0648 36.2812 24.75 36.596 24.75 36.9844C24.75 37.3727 25.0648 37.6875 25.4531 37.6875Z" fill="currentColor" />
  <path d="M27.2344 12.4688C28.139 12.4688 28.875 11.7327 28.875 10.8281V8.10938C28.875 7.20478 28.139 6.46875 27.2344 6.46875H25.9219C25.0173 6.46875 24.2812 7.20478 24.2812 8.10938V10.8281C24.2812 11.7327 25.0173 12.4688 25.9219 12.4688H27.2344ZM25.6875 10.8281V8.10938C25.6875 7.98009 25.7926 7.875 25.9219 7.875H27.2344C27.3637 7.875 27.4688 7.98009 27.4688 8.10938V10.8281C27.4688 10.9574 27.3637 11.0625 27.2344 11.0625H25.9219C25.7926 11.0625 25.6875 10.9574 25.6875 10.8281Z" fill="currentColor" />
</svg>