<svg width="20" height="21" viewBox="0 0 20 21" fill="none" xmlns="http://www.w3.org/2000/svg">
<path d="M5.16667 4.88542V16.5521H14.8333V4.88542H5.16667ZM4.33333 3.21875H15.6667C15.8877 3.21875 16.0996 3.30655 16.2559 3.46283C16.4122 3.61911 16.5 3.83107 16.5 4.05208V17.3854C16.5 17.6064 16.4122 17.8184 16.2559 17.9747C16.0996 18.131 15.8877 18.2188 15.6667 18.2188H4.33333C4.11232 18.2188 3.90036 18.131 3.74408 17.9747C3.5878 17.8184 3.5 17.6064 3.5 17.3854V4.05208C3.5 3.83107 3.5878 3.61911 3.74408 3.46283C3.90036 3.30655 4.11232 3.21875 4.33333 3.21875ZM6.5 8.21875V6.55208H13.5V8.21875H6.5Z" fill="currentColor"/>
<path d="M6.5 9.88542V11.5521H9.3V9.88542H6.5Z" fill="currentColor"/>
<path d="M6.5 13.2188V14.8854H9.3V13.2188H6.5Z" fill="currentColor"/>
<path d="M10.7 9.88542V11.5521H13.5V9.88542H10.7Z" fill="currentColor"/>
<path d="M10.7 13.2188V14.8854H13.5V13.2188H10.7Z" fill="currentColor"/>
</svg>
