<svg width="20" height="20" viewBox="0 0 20 20" fill="none" xmlns="http://www.w3.org/2000/svg">
<path d="M5.16667 4.16667V15.8333H14.8333V4.16667H5.16667ZM4.33333 2.5H15.6667C15.8877 2.5 16.0996 2.5878 16.2559 2.74408C16.4122 2.90036 16.5 3.11232 16.5 3.33333V16.6667C16.5 16.8877 16.4122 17.0996 16.2559 17.2559C16.0996 17.4122 15.8877 17.5 15.6667 17.5H4.33333C4.11232 17.5 3.90036 17.4122 3.74408 17.2559C3.5878 17.0996 3.5 16.8877 3.5 16.6667V3.33333C3.5 3.11232 3.5878 2.90036 3.74408 2.74408C3.90036 2.5878 4.11232 2.5 4.33333 2.5ZM6.5 7.5V5.83333H13.5V7.5H6.5Z" fill="currentColor"/>
<path d="M6.5 9.16667V10.8333H9.3V9.16667H6.5Z" fill="currentColor"/>
<path d="M6.5 12.5V14.1667H9.3V12.5H6.5Z" fill="currentColor"/>
<path d="M10.7 9.16667V10.8333H13.5V9.16667H10.7Z" fill="currentColor"/>
<path d="M10.7 12.5V14.1667H13.5V12.5H10.7Z" fill="currentColor"/>
</svg>
