<svg width="40" height="40" viewBox="0 0 40 40" fill="none" xmlns="http://www.w3.org/2000/svg">
  <path d="M36.4048 26.0963C35.9695 25.6609 35.3907 25.4212 34.775 25.4212C34.5455 25.4376 30.2298 25.3757 30.1681 25.4703L24.9311 20.2331L25.8181 19.3461C26.4212 18.7431 26.3118 17.8166 25.757 17.2397L30.1499 12.8466C30.6856 12.3109 29.857 11.4823 29.3213 12.018L24.9284 16.4111L23.5895 15.0722L32.3567 6.30469L33.6955 7.64359L31.4845 9.85469C30.9488 10.3904 31.7774 11.219 32.313 10.6833L34.638 8.3582C35.4598 8.6868 36.4624 8.39828 36.9849 7.68766L39.8777 3.94219C40.0579 3.70891 40.0368 3.37812 39.8284 3.16969L36.8304 0.171641C36.622 -0.0367969 36.2912 -0.0578906 36.0579 0.122266L32.3126 3.01516C31.5986 3.54008 31.3138 4.54109 31.642 5.36211L22.7609 14.2435C22.1955 13.6752 21.2487 13.5883 20.6558 14.1813L19.7676 15.0695L14.5798 9.88141V5.22516C14.5798 4.60953 14.3401 4.03078 13.9047 3.59539L10.9845 0.675078C10.5492 0.239766 9.97047 0 9.35476 0H5.75719C5.34492 0 4.97656 0.246094 4.81883 0.626953C4.66102 1.00781 4.74742 1.44234 5.03898 1.73375L8.3643 5.05922C8.47094 5.16586 8.47094 5.33938 8.3643 5.44602L5.55648 8.25391C5.44984 8.36055 5.27641 8.36055 5.16969 8.25391L1.73383 4.81789C1.44227 4.52641 1.00781 4.43984 0.627031 4.59773C0.246094 4.75547 0 5.12383 0 5.53609V9.35508C0 9.9707 0.239687 10.5495 0.675078 10.9848L3.59531 13.9052C4.03062 14.3405 4.60938 14.5802 5.225 14.5802H9.88102L13.9855 18.6848L2.28562 28.8552C-0.42625 31.2125 -0.575781 35.4941 1.965 38.0349C4.50203 40.5721 8.78945 40.4236 11.1445 37.7143L21.3143 26.014L25.4694 30.1692C25.3752 30.2282 25.4364 34.5512 25.4202 34.7762C25.4202 35.3919 25.66 35.9707 26.0953 36.406L29.0141 39.3249C29.4433 39.7541 30.0371 40.0001 30.6441 40H30.6484L34.8036 39.9919C35.4174 39.9907 35.9946 39.751 36.4288 39.3168L39.325 36.4205C39.7603 35.9852 40.0001 35.4064 40.0001 34.7907V30.6462C40.0001 30.0306 39.7604 29.4518 39.325 29.0165L36.4048 26.0963ZM32.6741 4.55766C32.6928 4.31938 32.8357 4.09172 33.023 3.94719L36.3662 1.36477L38.6352 3.63383L36.0529 6.97727C35.7776 7.32992 35.2933 7.46055 34.8958 7.17211C34.1752 6.60695 33.5595 5.85031 32.9124 5.20312C32.748 5.03859 32.6548 4.80547 32.6741 4.55766ZM21.4845 15.0098C21.613 14.9032 21.7415 14.9032 21.8701 15.0098L24.9896 18.1295C25.0966 18.2364 25.0966 18.4105 24.9896 18.5174L24.1026 19.4045L20.5962 15.898L21.4845 15.0098ZM4.42391 13.0766L1.50367 10.1562C1.28969 9.94227 1.17188 9.65773 1.17188 9.35508V5.9132L4.34117 9.08266C4.89883 9.64031 5.82758 9.64031 6.38523 9.08266L9.19305 6.27477C9.75656 5.71125 9.75656 4.7943 9.19305 4.2307L6.13437 1.17188H9.35484C9.6575 1.17188 9.94195 1.28969 10.1559 1.50375L13.0761 4.42406C13.2901 4.63805 13.408 4.92258 13.408 5.22516V9.82445L9.82406 13.4084H5.225C4.92242 13.4084 4.63789 13.2905 4.42391 13.0766ZM10.6722 36.4712L6.66266 32.4614C6.12703 31.9256 5.29836 32.7543 5.83406 33.29L9.88164 37.3377C7.90039 39.1889 4.70578 39.1184 2.79367 37.2062C0.881484 35.2939 0.811406 32.099 2.66211 30.1179L3.63609 31.0919C4.17172 31.6277 5.00039 30.799 4.46469 30.2633L3.52867 29.3273L14.8162 19.5156L20.4837 25.1834L10.6722 36.4712ZM21.7035 24.7459C21.7011 24.7434 21.6987 24.741 21.6963 24.7386L10.9238 13.9659L13.9653 10.9242L23.6874 20.6466C23.6879 20.6472 23.6884 20.6477 23.689 20.6482L29.0773 26.0366C28.034 27.007 27.0062 28.0347 26.0357 29.0783L21.7035 24.7459ZM38.8281 34.7908C38.8281 35.0934 38.7103 35.378 38.4963 35.5919L35.6002 38.4881C35.3868 38.7015 35.103 38.8194 34.8013 38.82L30.646 38.8281C30.347 38.8287 30.0542 38.7077 29.8427 38.4963L26.9239 35.5773C26.7099 35.3634 26.5921 35.0788 26.5921 34.7762V30.6463C26.5921 30.3445 26.7101 30.0591 26.9239 29.8452L29.8441 26.9249C30.0635 26.7109 30.338 26.593 30.6452 26.593H34.775C35.0777 26.593 35.3621 26.7109 35.5761 26.9249L38.4963 29.8452C38.7103 30.0592 38.8281 30.3437 38.8281 30.6463V34.7908Z" fill="currentColor" />
  <path d="M35.3383 28.6751C34.903 28.2398 34.3241 28 33.7086 28H31.7147C31.0991 28 30.5203 28.2398 30.085 28.6751L28.6751 30.0851C28.2398 30.5204 28 31.0991 28 31.7148V33.7088C28 34.3245 28.2397 34.9032 28.6751 35.3386L30.0815 36.7451C30.5117 37.1753 31.1074 37.4213 31.7157 37.4202L33.7351 37.4162C34.349 37.4151 34.9262 37.1753 35.3603 36.7412L36.7483 35.3531C37.1836 34.9178 37.4234 34.3391 37.4234 33.7234V31.7148C37.4234 31.0992 37.1836 30.5204 36.7483 30.0851L35.3383 28.6751ZM36.2514 33.7234C36.2514 34.026 36.1336 34.3105 35.9196 34.5245L34.5316 35.9125C34.3183 36.1259 34.0345 36.2438 33.7327 36.2443L31.7134 36.2482H31.7112C31.413 36.2482 31.1211 36.1273 30.9102 35.9164L29.5037 34.51C29.2898 34.2959 29.1719 34.0115 29.1719 33.7088V31.7148C29.1719 31.4122 29.2897 31.1277 29.5037 30.9137L30.9136 29.5037C31.1276 29.2898 31.4121 29.1719 31.7147 29.1719H33.7086C34.0112 29.1719 34.2957 29.2898 34.5097 29.5037L35.9196 30.9137C36.1336 31.1277 36.2514 31.4122 36.2514 31.7148V33.7234Z" fill="currentColor" />
  <path d="M14.7737 13.9451C14.5448 13.7162 14.1738 13.7162 13.9451 13.9451C13.7162 14.1739 13.7162 14.5448 13.9451 14.7737L24.8853 25.7144C25.4209 26.2501 26.2496 25.4215 25.7139 24.8858L14.7737 13.9451Z" fill="currentColor" />
</svg>