<svg width="18" height="16" viewBox="0 0 18 16" fill="none" xmlns="http://www.w3.org/2000/svg">
<path d="M1.5013 0.5H16.5013C16.7223 0.5 16.9343 0.587797 17.0906 0.744078C17.2468 0.900358 17.3346 1.11232 17.3346 1.33333V14.6667C17.3346 14.8877 17.2468 15.0996 17.0906 15.2559C16.9343 15.4122 16.7223 15.5 16.5013 15.5H1.5013C1.28029 15.5 1.06833 15.4122 0.912046 15.2559C0.755766 15.0996 0.667969 14.8877 0.667969 14.6667V1.33333C0.667969 1.11232 0.755766 0.900358 0.912046 0.744078C1.06833 0.587797 1.28029 0.5 1.5013 0.5ZM15.668 7.16667H2.33464V13.8333H15.668V7.16667ZM15.668 5.5V2.16667H2.33464V5.5H15.668ZM10.668 10.5H14.0013V12.1667H10.668V10.5Z" fill="#213966"/>
</svg>
