<svg width="40" height="40" viewBox="0 0 40 40" fill="none" xmlns="http://www.w3.org/2000/svg">
  <path d="M6.52609 23.9999C6.875 23.9999 7.15765 23.7172 7.15765 23.3683V12.421C7.15765 11.8406 7.62984 11.3684 8.2103 11.3684H8.50077C8.72632 11.3684 8.94163 11.4389 9.1235 11.5724L10.7604 12.7734C11.1604 13.0668 11.6341 13.2221 12.1303 13.2221H13.2793C13.9903 13.2221 14.6747 12.8865 15.11 12.3244L23.3618 1.67132C23.5627 1.41203 23.8659 1.26328 24.194 1.26328H25.5022C25.8354 1.26328 26.1523 1.42351 26.3498 1.69179L33.9931 12.0741C34.3418 12.5476 34.526 13.1087 34.526 13.6967V20.8422C34.526 21.1911 34.8086 21.4737 35.1575 21.4737C35.5064 21.4737 35.7891 21.1911 35.7891 20.8422V13.6967C35.7891 12.8373 35.5198 12.0174 35.0104 11.3253L27.3671 0.942809C26.9324 0.352499 26.2353 0 25.5022 0H24.194C23.483 0 22.7986 0.335702 22.3633 0.897653L14.1115 11.5507C13.9136 11.8062 13.6025 11.9588 13.2793 11.9588H12.1304C11.9048 11.9588 11.6895 11.8882 11.5076 11.7548L9.87077 10.5538C9.47069 10.2603 8.99702 10.1051 8.50085 10.1051H8.2103C6.93343 10.1051 5.89453 11.144 5.89453 12.4209V23.3682C5.89445 23.7172 6.17719 23.9999 6.52609 23.9999Z" fill="currentColor" />
  <path d="M8.21038 34.1069H33.4734C34.7503 34.1069 35.7892 33.068 35.7892 31.7911V25.0543C35.7892 23.7774 34.7503 22.7385 33.4734 22.7385C32.7484 22.7385 32.0558 23.0847 31.6208 23.6648L30.105 25.6858C29.9072 25.9495 29.5924 26.1068 29.2629 26.1068H28.2565C27.9833 26.1068 27.7244 26.0027 27.5275 25.8136L18.8591 17.4891C18.4256 17.073 17.856 16.8438 17.255 16.8438H15.6922C15.0411 16.8438 14.4164 17.1201 13.9786 17.6018L6.49672 25.8318C6.10844 26.2589 5.89453 26.8122 5.89453 27.3896V31.791C5.89453 33.068 6.93343 34.1069 8.21038 34.1069ZM7.15765 27.3896C7.15765 27.1271 7.25484 26.8757 7.4314 26.6814L14.9133 18.4514C15.1123 18.2324 15.3962 18.1069 15.6921 18.1069H17.255C17.5282 18.1069 17.7871 18.211 17.984 18.4002L26.6523 26.7245C27.0858 27.1407 27.6554 27.37 28.2564 27.37H29.2629C29.9879 27.37 30.6804 27.0237 31.1155 26.4436L32.6313 24.4226C32.8291 24.159 33.1439 24.0016 33.4734 24.0016C34.0539 24.0016 34.5261 24.4738 34.5261 25.0543V31.7911C34.5261 32.3716 34.0539 32.8438 33.4734 32.8438H8.21038C7.62991 32.8438 7.15773 32.3716 7.15773 31.7911H7.15765V27.3896Z" fill="currentColor" />
  <path d="M39.815 37.2374L38.1308 35.5531C37.8841 35.3066 37.4842 35.3066 37.2376 35.5531C36.9909 35.7999 36.9909 36.1997 37.2376 36.4463L37.8437 37.0524H4.00004C3.41958 37.0524 2.94739 36.5802 2.94739 35.9997V2.15624L3.5534 2.76233C3.80012 3.00889 4.19996 3.00889 4.4466 2.76233C4.69324 2.51562 4.69324 2.11577 4.4466 1.86913L2.76239 0.184921C2.51567 -0.0616404 2.11583 -0.0616404 1.86919 0.184921L0.18498 1.86906C-0.0616599 2.11577 -0.0616599 2.51562 0.18498 2.76225C0.431698 3.00882 0.83154 3.00882 1.07818 2.76225L1.68427 2.15616V35.9996C1.68427 37.2765 2.72317 38.3154 4.00004 38.3154H37.8436L37.2375 38.9214C36.9909 39.1681 36.9909 39.568 37.2375 39.8146C37.3609 39.9379 37.5226 39.9995 37.6841 39.9995C37.8457 39.9995 38.0074 39.9379 38.1308 39.8146L39.815 38.1304C40.0616 37.8838 40.0616 37.484 39.815 37.2374Z" fill="currentColor" />
</svg>