<svg width="40" height="40" viewBox="0 0 40 40" fill="none" xmlns="http://www.w3.org/2000/svg">
  <path d="M34.7305 14.9336H16.1367C15.8131 14.9336 15.5508 15.1959 15.5508 15.5195C15.5508 15.8431 15.8131 16.1055 16.1367 16.1055H34.7305C35.0541 16.1055 35.3164 15.8431 35.3164 15.5195C35.3164 15.1959 35.0541 14.9336 34.7305 14.9336Z" fill="#213966" />
  <path d="M34.7305 19.4102H16.1367C15.8131 19.4102 15.5508 19.6725 15.5508 19.9961C15.5508 20.3197 15.8131 20.582 16.1367 20.582H34.7305C35.0541 20.582 35.3164 20.3197 35.3164 19.9961C35.3164 19.6725 35.0541 19.4102 34.7305 19.4102Z" fill="#213966" />
  <path d="M34.7305 23.8906H16.1367C15.8131 23.8906 15.5508 24.153 15.5508 24.4766C15.5508 24.8002 15.8131 25.0625 16.1367 25.0625H34.7305C35.0541 25.0625 35.3164 24.8002 35.3164 24.4766C35.3164 24.153 35.0541 23.8906 34.7305 23.8906Z" fill="currentColor" />
  <path d="M36.5912 9.80859H14.2752C12.396 9.80859 10.8672 11.3373 10.8672 13.2166V27.2491C10.8672 29.1283 12.3959 30.6571 14.2752 30.6571H29.9166C30.0839 30.6571 30.2393 30.7323 30.343 30.8637L35.3942 37.2584C35.5933 37.5105 35.8837 37.6478 36.1879 37.6478C36.3009 37.6478 36.4159 37.6288 36.5287 37.5896C36.9449 37.4451 37.2138 37.067 37.2138 36.6265V30.5989C38.7939 30.3037 39.9992 28.9068 39.9992 27.2491V13.2165C39.9992 11.3373 38.4705 9.80859 36.5912 9.80859ZM38.8273 27.2491C38.8273 28.4661 37.8373 29.4688 36.6203 29.4843C36.2997 29.4884 36.0419 29.7495 36.0419 30.0702V36.1878L31.2627 30.1373C30.9354 29.7228 30.4448 29.4852 29.9166 29.4852H14.2752C13.0422 29.4852 12.0391 28.482 12.0391 27.2491V13.2165C12.0391 11.9835 13.0421 10.9804 14.2752 10.9804H36.5912C37.8242 10.9804 38.8273 11.9835 38.8273 13.2165V27.2491Z" fill="currentColor" />
  <path d="M8.63235 19.4962C8.23156 19.553 7.87266 19.7594 7.62172 20.077L3.59664 25.1728V20.0657C3.59664 19.745 3.33883 19.4839 3.0182 19.4798C2.00016 19.4668 1.17188 18.628 1.17188 17.6098V5.39414C1.17188 4.36266 2.01109 3.52344 3.04258 3.52344H22.4694C23.5009 3.52344 24.3401 4.36266 24.3401 5.39414V7.65445C24.3401 7.97805 24.6024 8.24039 24.926 8.24039C25.2496 8.24039 25.512 7.97805 25.512 7.65445V5.39414C25.512 3.71648 24.147 2.35156 22.4694 2.35156H3.04258C1.36492 2.35156 0 3.71648 0 5.39414V17.6098C0 19.0682 1.04461 20.3003 2.42484 20.5883V25.7731C2.42484 26.1894 2.67891 26.5466 3.07219 26.6832C3.17883 26.7202 3.28742 26.7382 3.3943 26.7382C3.68156 26.7382 3.95617 26.6084 4.14422 26.3703L8.54141 20.8034C8.60485 20.723 8.6957 20.6709 8.79711 20.6564C9.1175 20.6109 9.34039 20.3143 9.29484 19.9939C9.24938 19.6735 8.9532 19.4505 8.63235 19.4962Z" fill="currentColor" />
</svg>