<svg width="40" height="40" viewBox="0 0 40 40" fill="none" xmlns="http://www.w3.org/2000/svg">
  <g clip-path="url(#clip0_530_7339)">
    <path d="M16.4132 15.2722H17.882V16.7409C17.882 17.3328 18.3634 17.8143 18.9552 17.8143H21.0466C21.6384 17.8143 22.1199 17.3328 22.1199 16.7409V15.2722H23.5887C24.1805 15.2722 24.662 14.7907 24.662 14.1989V12.1075C24.662 11.5157 24.1805 11.0342 23.5887 11.0342H22.1199V9.56547C22.1199 8.97367 21.6384 8.49219 21.0466 8.49219H18.9552C18.3634 8.49219 17.882 8.97367 17.882 9.56547V11.0342H16.4132C15.8213 11.0342 15.3398 11.5157 15.3398 12.1075V14.1989C15.3398 14.7907 15.8212 15.2722 16.4132 15.2722ZM16.5116 12.2061H17.9804C18.5723 12.2061 19.0538 11.7246 19.0538 11.1327V9.66406H20.948V11.1327C20.948 11.7246 21.4295 12.2061 22.0213 12.2061H23.49V14.1003H22.0213C21.4295 14.1003 20.948 14.5818 20.948 15.1737V16.6424H19.0538V15.1737C19.0538 14.5818 18.5723 14.1003 17.9804 14.1003H16.5116V12.2061Z" fill="currentColor" />
    <path d="M17.6953 32.633C18.019 32.633 18.2812 32.3706 18.2812 32.047V29.7812C18.2812 29.4577 18.019 29.1953 17.6953 29.1953C17.3716 29.1953 17.1094 29.4577 17.1094 29.7812V32.047C17.1094 32.3706 17.3716 32.633 17.6953 32.633Z" fill="currentColor" />
    <path d="M22.3047 32.633C22.6284 32.633 22.8906 32.3706 22.8906 32.047V29.7812C22.8906 29.4577 22.6284 29.1953 22.3047 29.1953C21.981 29.1953 21.7188 29.4577 21.7188 29.7812V32.047C21.7188 32.3706 21.9811 32.633 22.3047 32.633Z" fill="currentColor" />
    <path d="M37.8494 11.5885H31.6008V4.42912H32.4153C33.1545 4.42912 33.7558 3.8278 33.7558 3.08858V1.34054C33.7557 0.601404 33.1544 0 32.4153 0H21.3664C21.0427 0 20.7805 0.262343 20.7805 0.585935C20.7805 0.909528 21.0427 1.17187 21.3664 1.17187H32.4153C32.5082 1.17187 32.5839 1.24757 32.5839 1.34054V3.08858C32.5839 3.18155 32.5082 3.25725 32.4153 3.25725C31.5495 3.25725 8.46489 3.25725 7.5831 3.25725C7.49013 3.25725 7.41451 3.18163 7.41451 3.08858V1.34054C7.41451 1.24757 7.49013 1.17187 7.5831 1.17187H18.632C18.9557 1.17187 19.218 0.909528 19.218 0.585935C19.218 0.262343 18.9557 0 18.632 0H7.58318C6.84404 0 6.24271 0.601404 6.24271 1.34054V3.08858C6.24271 3.82772 6.84404 4.42912 7.58318 4.42912H8.39778V11.5885H2.14914C1.40992 11.5885 0.808594 12.1899 0.808594 12.929V14.6771C0.808594 15.4162 1.40992 16.0176 2.14914 16.0176H2.32765V36.4449H2.14914C1.40992 36.4449 0.808594 37.0463 0.808594 37.7855V38.6595C0.808594 39.3987 1.40992 40.0001 2.14914 40.0001H37.8494C38.5885 40.0001 39.1898 39.3988 39.1898 38.6595V37.7855C39.1898 37.0463 38.5885 36.4449 37.8494 36.4449H37.6709V32.0464C37.6709 31.7228 37.4086 31.4604 37.0849 31.4604C36.7613 31.4604 36.499 31.7228 36.499 32.0464V36.4449H31.6008V25.432H36.499V29.312C36.499 29.6356 36.7613 29.8979 37.0849 29.8979C37.4086 29.8979 37.6709 29.6356 37.6709 29.312C37.6709 28.7758 37.6709 16.5724 37.6709 16.0176H37.8494C38.5885 16.0176 39.1898 15.4163 39.1898 14.6771V12.929C39.1898 12.1899 38.5885 11.5885 37.8494 11.5885ZM9.56958 4.42912H30.4289V36.4449H26.5202V25.4321H26.5524C27.2916 25.4321 27.8929 24.8308 27.8929 24.0915V23.2175C27.8929 22.4783 27.2916 21.8769 26.5524 21.8769H13.446C12.7068 21.8769 12.1055 22.4783 12.1055 23.2175V24.0915C12.1055 24.8307 12.7068 25.4321 13.446 25.4321H13.4782V36.4449H9.56965C9.56958 35.6214 9.56958 5.31287 9.56958 4.42912ZM13.446 24.2602C13.3531 24.2602 13.2774 24.1846 13.2774 24.0915V23.2175C13.2774 23.1245 13.3531 23.0488 13.446 23.0488H26.5525C26.6454 23.0488 26.7211 23.1245 26.7211 23.2175V24.0915C26.7211 24.1845 26.6454 24.2602 26.5525 24.2602C25.9894 24.2602 14.0082 24.2602 13.446 24.2602ZM25.3483 25.4321V36.4449H20.5852V25.4321H25.3483ZM19.4133 25.4321V36.4449H14.65V25.4321H19.4133ZM2.14914 14.8457C2.05617 14.8457 1.98046 14.7701 1.98046 14.6771V12.929C1.98046 12.836 2.05617 12.7603 2.14914 12.7603H8.3977V14.8457C7.26201 14.8457 3.37655 14.8457 2.14914 14.8457ZM3.49952 24.2601V16.0176H8.3977V24.2601H3.49952ZM8.3977 25.432V36.4449H3.49952V25.432H8.3977ZM37.8494 37.6168C37.9424 37.6168 38.018 37.6925 38.018 37.7855V38.6595C38.018 38.7525 37.9424 38.8282 37.8494 38.8282H2.14914C2.05617 38.8282 1.98046 38.7526 1.98046 38.6595V37.7855C1.98046 37.6925 2.05617 37.6168 2.14914 37.6168H37.8494ZM36.499 24.2601H31.6008V16.0176H36.499V24.2601ZM38.018 14.6771C38.018 14.77 37.9424 14.8457 37.8494 14.8457C36.622 14.8457 32.7366 14.8457 31.6008 14.8457V12.7603H37.8494C37.9424 12.7603 38.018 12.836 38.018 12.929V14.6771Z" fill="currentColor" />
  </g>
</svg>