<svg width="18" height="18" viewBox="0 0 18 18" fill="none" xmlns="http://www.w3.org/2000/svg">
<path d="M9.0013 0.667969C13.6038 0.667969 17.3346 4.3988 17.3346 9.0013C17.3346 13.6038 13.6038 17.3346 9.0013 17.3346C4.3988 17.3346 0.667969 13.6038 0.667969 9.0013H2.33464C2.33464 12.683 5.31963 15.668 9.0013 15.668C12.683 15.668 15.668 12.683 15.668 9.0013C15.668 5.31963 12.683 2.33464 9.0013 2.33464C6.70963 2.33464 4.68797 3.49047 3.4888 5.2513H5.66797V6.91797H0.667969V1.91797H2.33464V4.0013C3.85464 1.9763 6.27547 0.667969 9.0013 0.667969ZM9.83463 4.83463V8.65547L12.5371 11.358L11.358 12.5371L8.16797 9.34547V4.83463H9.83463Z" fill="currentColor"/>
</svg>
