<svg width="40" height="40" viewBox="0 0 40 40" fill="none" xmlns="http://www.w3.org/2000/svg">
  <g clip-path="url(#clip0_530_7319)">
    <path d="M38.2955 16.0078L32.9007 5.12422C32.787 4.89474 32.6127 4.70056 32.3968 4.5627L25.9245 0.431246C25.1577 -0.0582739 24.1671 -0.0682786 23.4011 0.405722C21.342 1.67954 19.1364 1.6411 16.6581 0.287872C15.9053 -0.123186 14.9839 -0.0921479 14.2533 0.368933L13.137 1.07344C13.1356 1.07422 13.1344 1.07509 13.1331 1.07588L7.61092 4.56081C7.39216 4.69891 7.21577 4.89443 7.10092 5.12619L1.70714 16.0078C1.47743 16.4712 1.64932 17.0351 2.09827 17.2917L7.98558 20.6559V39.0551C7.98558 39.5761 8.40948 40 8.93051 40H31.0721C31.5931 40 32.017 39.5761 32.017 39.0551V32.7476C32.017 32.4213 31.7525 32.1568 31.4262 32.1568C31.0999 32.1568 30.8354 32.4213 30.8354 32.7476V38.8184H9.16723V13.2934C9.16723 12.9671 8.9027 12.7026 8.57641 12.7026C8.25011 12.7026 7.98558 12.9671 7.98558 13.2934V19.2949L2.85098 16.3609L8.15968 5.65092C8.17811 5.61366 8.20647 5.58223 8.24161 5.56009L13.0416 2.53089C13.3122 3.50859 13.7884 4.42397 14.4447 5.21466C14.5615 5.35551 14.7299 5.42814 14.8996 5.42814C15.0326 5.42814 15.1663 5.38356 15.2766 5.29194C15.5278 5.08349 15.5623 4.71104 15.354 4.45998C14.7273 3.70482 14.2963 2.81464 14.0945 1.8664L14.8838 1.36822C14.9084 1.3527 14.9335 1.33828 14.9589 1.32473C15.1139 2.43242 15.6259 3.45439 16.4371 4.24901C17.3947 5.18717 18.6606 5.70386 20.0013 5.70386C21.3312 5.70386 22.5896 5.19441 23.5447 4.26941C24.3707 3.46936 24.8929 2.43297 25.0467 1.30898C25.1305 1.33899 25.2119 1.37814 25.2888 1.42722L25.9154 1.82725C25.345 4.60083 22.8669 6.64911 20.0013 6.64911C18.9527 6.64911 17.9177 6.37339 17.0084 5.85188C16.7253 5.68953 16.3642 5.78737 16.2019 6.07041C16.0396 6.35346 16.1375 6.71457 16.4205 6.87685C17.5085 7.50084 18.7467 7.83068 20.0013 7.83068C23.2759 7.83068 26.1274 5.59318 26.969 2.49969L31.761 5.55852C31.7957 5.58073 31.8237 5.61193 31.842 5.6488L37.1516 16.3607L32.017 19.2948V13.2932C32.017 12.9669 31.7525 12.7024 31.4262 12.7024C31.0999 12.7024 30.8354 12.9669 30.8354 13.2932V30.3843C30.8354 30.7106 31.0999 30.9751 31.4262 30.9751C31.7525 30.9751 32.017 30.7106 32.017 30.3843V20.6559L37.9043 17.2917C38.3533 17.0351 38.5252 16.4712 38.2955 16.0078ZM20.0013 4.52221C18.9716 4.52221 17.9994 4.12541 17.2639 3.40492C16.6909 2.84347 16.3123 2.13448 16.1625 1.36247C18.8942 2.83118 21.4628 2.89176 23.8023 1.54208C23.3872 3.26477 21.8472 4.52221 20.0013 4.52221Z" fill="currentColor" />
  </g>
</svg>