<svg width="40" height="40" viewBox="0 0 40 40" fill="none" xmlns="http://www.w3.org/2000/svg">
  <g clip-path="url(#clip0_530_7514)">
    <path d="M30.0884 4.60498C30.306 4.38736 30.306 4.03452 30.0884 3.8169C29.8708 3.59927 29.5179 3.59927 29.3003 3.8169C29.0827 4.03452 29.0827 4.38736 29.3003 4.60498C29.5179 4.8226 29.8708 4.8226 30.0884 4.60498Z" fill="currentColor" />
    <path d="M35.1575 7.64336C36.108 7.64336 36.8812 6.87008 36.8812 5.91961V1.72375C36.8812 0.773281 36.108 0 35.1575 0H33.0403C32.723 0 32.4657 0.257266 32.4657 0.574609C32.4657 0.891953 32.723 1.14922 33.0403 1.14922H35.1575C35.4744 1.14922 35.7321 1.40695 35.7321 1.72383V5.91969C35.7321 6.23656 35.4744 6.4943 35.1575 6.4943H23.8789V1.14914H30.4187C30.7361 1.14914 30.9934 0.891875 30.9934 0.574531C30.9934 0.257188 30.736 0 30.4187 0H11.4512C10.5007 0 9.72742 0.773281 9.72742 1.72375V6.50469H4.84094C3.89047 6.50469 3.11719 7.27797 3.11719 8.22844V12.4243C3.11719 13.3748 3.89047 14.148 4.84094 14.148H9.72742V18.929C9.72742 19.8795 10.5007 20.6527 11.4512 20.6527H15.6805C15.348 22.168 15.6366 23.7834 16.5433 25.118C17.6159 26.6968 19.3959 27.6394 21.3046 27.6394H23.6032V28.6927H23.0697C22.5163 28.6927 22.0659 29.143 22.0659 29.6964C22.0641 30.4499 22.1156 31.4924 21.8642 32.1853C21.4717 33.4076 21.4717 34.9895 21.8642 36.2118C21.998 36.6362 22.0659 37.0991 22.0659 37.5879V38.9963C22.0659 39.5497 22.5163 40 23.0697 40H25.2859C25.8394 40 26.2897 39.5497 26.2897 38.9963V37.5879C26.2897 37.2737 26.318 36.9674 26.3738 36.6777C26.4339 36.3661 26.23 36.0648 25.9184 36.0048C25.607 35.9445 25.3055 36.1486 25.2455 36.4602C25.1758 36.8214 25.1405 37.2009 25.1405 37.5879V38.8508H23.2151V37.5879C23.2151 36.9817 23.1293 36.4024 22.9601 35.866C22.6383 34.8665 22.6383 33.5306 22.9601 32.5311C23.1293 31.9948 23.2151 31.4154 23.2151 30.8092V29.8418H25.1405V30.8092C25.1405 31.4155 25.2262 31.9949 25.3955 32.5312C25.5541 33.0336 25.6378 33.6102 25.6378 34.1985C25.6378 34.5159 25.8951 34.7731 26.2124 34.7731C26.5298 34.7731 26.787 34.5159 26.787 34.1985C26.787 33.4943 26.6848 32.7981 26.4914 32.1853C26.2402 31.4952 26.2913 30.447 26.2897 29.6963C26.2897 29.1429 25.8394 28.6926 25.2859 28.6926H24.7524V27.6393H27.051C28.9598 27.6393 30.7397 26.6967 31.8123 25.1179C32.7191 23.7833 33.0077 22.1679 32.6752 20.6527H35.1575C36.108 20.6527 36.8812 19.8794 36.8812 18.9289V14.733C36.8812 13.7826 36.108 13.0093 35.1575 13.0093H30.271V7.64336H35.1575ZM10.8766 1.72375C10.8766 1.40687 11.1343 1.14914 11.4512 1.14914H22.7298V6.49414H10.8766V1.72375ZM4.26641 12.4243V8.22844C4.26641 7.91156 4.52414 7.65383 4.84102 7.65383H16.1195V12.9988H4.84094C4.52414 12.9989 4.26641 12.7412 4.26641 12.4243ZM23.2641 26.4902L24.1778 22.8445L25.0916 26.4902H23.2641ZM30.8618 24.4721C30.0033 25.7358 28.5787 26.4902 27.0509 26.4902H26.2763L25.1242 21.8935C25.0135 21.4518 24.6332 21.1551 24.1778 21.1551C23.7224 21.1551 23.3421 21.4518 23.2314 21.8935L22.0794 26.4902H21.3047C19.777 26.4902 18.3524 25.7358 17.4938 24.4721C16.4516 22.9381 16.4286 20.9405 17.435 19.3828L18.0885 18.3714C18.2607 18.1048 18.1843 17.7492 17.9177 17.577C17.6513 17.4048 17.2955 17.4812 17.1233 17.7477L16.4698 18.7591C16.3144 18.9996 16.1788 19.2484 16.0627 19.5036H11.4511C11.1342 19.5036 10.8765 19.2458 10.8765 18.929V14.1586H19.4423L18.4854 15.6397C18.3132 15.9062 18.3896 16.2619 18.6562 16.4341C18.9226 16.6063 19.2784 16.5298 19.4506 16.2634L24.0169 9.19641C24.1252 9.07258 24.2304 9.0725 24.3387 9.19641L30.9205 19.3828C31.9164 20.912 31.9116 22.9372 30.8618 24.4721ZM35.732 14.7331V18.929C35.732 19.2459 35.4743 19.5036 35.1574 19.5036H32.2927C32.1766 19.2485 32.041 18.9996 31.8857 18.7591L28.9131 14.1586H35.1575C35.4743 14.1586 35.732 14.4163 35.732 14.7331ZM28.1706 13.0094L25.3039 8.57266C25.0559 8.18875 24.6348 7.95961 24.1778 7.95961C23.7208 7.95961 23.2998 8.18875 23.0517 8.57266L20.185 13.0094H17.2688V7.65391H29.1219V13.0094H28.1706Z" fill="currentColor" />
    <path d="M8.44945 8.77344H6.40273C6.08539 8.77344 5.82812 9.0307 5.82812 9.34805C5.82812 9.66539 6.08539 9.92266 6.40273 9.92266H8.44945C8.7668 9.92266 9.02406 9.66539 9.02406 9.34805C9.02406 9.0307 8.7668 8.77344 8.44945 8.77344Z" fill="currentColor" />
    <path d="M32.2309 16.6766H34.2777C34.595 16.6766 34.8523 16.4193 34.8523 16.102C34.8523 15.7846 34.595 15.5273 34.2777 15.5273H32.2309C31.9135 15.5273 31.6562 15.7846 31.6562 16.102C31.6562 16.4193 31.9135 16.6766 32.2309 16.6766Z" fill="currentColor" />
    <path d="M11.8229 10.8906H10.9145C10.5971 10.8906 10.3398 11.1479 10.3398 11.4652C10.3398 11.7826 10.5971 12.0398 10.9145 12.0398H11.8229C12.1402 12.0398 12.3975 11.7826 12.3975 11.4652C12.3975 11.1479 12.1402 10.8906 11.8229 10.8906Z" fill="currentColor" />
    <path d="M26.5434 3.63281C26.226 3.63281 25.9688 3.89008 25.9688 4.20742C25.9688 4.52477 26.226 4.78203 26.5434 4.78203H27.4518C27.7691 4.78203 28.0264 4.52477 28.0264 4.20742C28.0264 3.89008 27.7691 3.63281 27.4518 3.63281H26.5434Z" fill="currentColor" />
  </g>
</svg>