<svg width="48" height="48" viewBox="0 0 48 48" fill="none" xmlns="http://www.w3.org/2000/svg">
  <path d="M15.2148 39.5C14.8264 39.5 14.5117 39.8148 14.5117 40.2031C14.5117 40.5914 14.8264 40.9062 15.2148 40.9062H32.7878C33.1762 40.9062 33.4909 40.5914 33.4909 40.2031C33.4909 39.8148 33.1762 39.5 32.7878 39.5H15.2148Z" fill="currentColor" />
  <path d="M44.4749 4.02747H40.0271C40.2356 3.64534 40.3543 3.20744 40.3543 2.74225C40.3543 1.25819 39.1469 0.0507812 37.663 0.0507812H10.3373C8.85312 0.0507812 7.6458 1.25819 7.6458 2.74225C7.6458 3.20744 7.76449 3.64534 7.97309 4.02747H3.52512C1.22055 4.02747 -0.464039 6.20256 0.11468 8.43466L2.04752 15.8913C3.25305 20.5423 7.1118 23.7195 10.7545 24.4671L17.858 25.9112C18.5959 26.5081 19.3815 27.0537 20.2016 27.5363C19.2505 31.307 16.4102 34.3142 12.6741 35.4712H10.6832C9.46324 35.4712 8.47062 36.4638 8.47062 37.6839V43.1927H7.81784C6.50721 43.1927 5.44099 44.2589 5.44099 45.5695C5.44099 46.8801 6.50721 47.9464 7.81784 47.9464H40.1822C41.4928 47.9464 42.5591 46.8801 42.5591 45.5695C42.5591 44.2589 41.4928 43.1927 40.1822 43.1927H39.5295V41.8374C39.5295 41.4491 39.2148 41.1343 38.8264 41.1343C38.438 41.1343 38.1233 41.4491 38.1233 41.8374V43.1927H9.87677V37.6839C9.87677 37.2393 10.2385 36.8775 10.6831 36.8775H12.7805C12.7812 36.8775 12.782 36.8777 12.7827 36.8777C12.7836 36.8777 12.7844 36.8775 12.7853 36.8775H35.2122C35.213 36.8775 35.2139 36.8777 35.2148 36.8777C35.2155 36.8777 35.2163 36.8775 35.217 36.8775H37.3169C37.7616 36.8775 38.1233 37.2393 38.1233 37.6839V38.5054C38.1233 38.8938 38.438 39.2086 38.8264 39.2086C39.2147 39.2086 39.5295 38.8938 39.5295 38.5054V37.6839C39.5295 36.4638 38.5369 35.4712 37.3169 35.4712H35.3138L34.4833 35.2318C30.925 34.2056 28.2746 31.2546 27.6161 27.6409C28.5018 27.1328 29.3497 26.5522 30.142 25.9113C37.6706 24.3798 37.2515 24.4685 37.3561 24.442C41.5683 23.3742 44.8623 20.0978 45.9526 15.8914L47.8855 8.43475C48.4635 6.20406 46.7808 4.02747 44.4749 4.02747ZM41.1529 45.5694C41.1529 46.1046 40.7175 46.5401 40.1822 46.5401H7.81784C7.28262 46.5401 6.84724 46.1046 6.84724 45.5694C6.84724 45.0342 7.28262 44.5987 7.81784 44.5987H40.1822C40.7175 44.5987 41.1529 45.0342 41.1529 45.5694ZM9.05196 2.74225C9.05196 2.03359 9.62852 1.45703 10.3373 1.45703H37.663C38.3716 1.45703 38.9482 2.03359 38.9482 2.74225C38.9482 3.45091 38.3717 4.02747 37.663 4.02747C37.0607 4.02747 19.4744 4.02747 18.5138 4.02747C18.1255 4.02747 17.8106 4.34228 17.8106 4.73059C17.8106 5.11891 18.1254 5.43372 18.5138 5.43372H35.8595V8.07625V10.9836C35.8595 14.4423 34.8613 17.8023 32.9729 20.7006C31.9861 22.2151 30.7796 23.5653 29.387 24.7139C28.5606 25.3955 27.666 26.0062 26.7283 26.529C25.02 27.4813 22.9802 27.4814 21.2719 26.529C20.3359 26.0071 19.443 25.3977 18.618 24.7177C18.6173 24.7172 18.6166 24.7166 18.6159 24.7159C18.615 24.7152 18.6141 24.7145 18.6131 24.7138C14.5759 21.3842 12.1406 16.3796 12.1406 10.9835V8.07625V5.43372H15.1912C15.5796 5.43372 15.8943 5.11891 15.8943 4.73059C15.8943 4.34228 15.5796 4.02747 15.1912 4.02747C14.2067 4.02747 11.3463 4.02747 10.3373 4.02747C9.62852 4.02747 9.05196 3.45091 9.05196 2.74225ZM34.9754 20.0796C37.1618 16.0242 37.25 13.2659 37.2656 8.77938H42.8872L41.3528 14.699C40.0574 19.6963 35.0457 20.0444 34.9754 20.0796ZM13.0246 20.0796C12.9849 20.0597 7.93577 19.6699 6.64727 14.699L5.11287 8.77928H10.7344C10.7719 12.0781 10.4926 15.3743 13.0246 20.0796ZM3.40868 15.5385L1.47584 8.08178C1.1284 6.74163 2.1394 5.43372 3.52512 5.43372H10.7344V7.37313H4.20434C3.74505 7.37313 3.40821 7.80756 3.52371 8.25269L5.28602 15.0519C6.06546 18.0593 8.41812 20.4108 11.4259 21.1887C11.4594 21.1973 11.2813 21.1599 14.0134 21.7157C14.577 22.5523 15.2036 23.3409 15.8883 24.0759L11.0363 23.0896C7.77237 22.4095 4.4464 19.5416 3.40868 15.5385ZM31.5161 35.4711H16.0304C18.6733 33.8237 20.6361 31.2365 21.4872 28.1791C22.2986 28.4929 23.1492 28.6507 24.0001 28.6507C24.7786 28.6507 25.5568 28.5185 26.305 28.2558C26.9661 31.3061 28.8745 33.9107 31.5161 35.4711ZM46.5243 8.08178L44.5915 15.5385C43.5321 19.6248 40.1343 22.4325 36.9655 23.0891L32.1116 24.0757C32.7964 23.3408 33.4229 22.5521 33.9866 21.7155C36.6983 21.1638 36.5399 21.1973 36.574 21.1885C39.5817 20.4107 41.9345 18.0591 42.7139 15.0517L44.4763 8.2525C44.5917 7.80794 44.2556 7.37294 43.7957 7.37294H37.2656V5.43372H37.6629H44.4749C45.8598 5.43372 46.8717 6.74097 46.5243 8.08178Z" fill="currentColor" />
  <path d="M18.0521 14.5639L20.399 16.401L19.5801 19.2667C19.4304 19.7907 19.6187 20.3362 20.0595 20.6565C20.5005 20.9767 21.0772 20.987 21.5294 20.6828L24.0017 19.0187L26.474 20.6829C26.9256 20.987 27.5028 20.9771 27.9439 20.6566C28.3847 20.3363 28.5729 19.7907 28.4232 19.2667L27.6044 16.401L29.9512 14.5639C30.3803 14.228 30.5488 13.6761 30.3804 13.1579C30.212 12.6396 29.7513 12.2921 29.2067 12.2725L26.2282 12.1656L25.2064 9.36606C25.0195 8.85419 24.5466 8.52344 24.0018 8.52344C23.4569 8.52344 22.984 8.85419 22.7972 9.36616L21.7752 12.1658L18.7967 12.2727C18.2522 12.2923 17.7915 12.6398 17.623 13.1581C17.4545 13.6761 17.623 14.228 18.0521 14.5639ZM23.8854 9.84822L23.8856 9.84878C23.8855 9.84869 23.8855 9.8485 23.8854 9.84822ZM21.9087 13.568C22.4328 13.5492 22.8875 13.2187 23.0674 12.7262L24.0017 10.1669L24.936 12.7262C25.1158 13.2187 25.5706 13.5492 26.0947 13.568L28.8174 13.6657L26.672 15.3453C26.2591 15.6686 26.0854 16.2033 26.2295 16.7073L26.978 19.327L24.7177 17.8056C24.2826 17.5128 23.7205 17.5128 23.2855 17.8056L21.0253 19.327L21.7737 16.7074C21.9179 16.2033 21.7443 15.6686 21.3312 15.3452L19.1858 13.6657L21.9087 13.568Z" fill="currentColor" />
</svg>