<svg width="40" height="40" viewBox="0 0 40 40" fill="none" xmlns="http://www.w3.org/2000/svg">
  <g clip-path="url(#clip0_530_7351)">
    <path d="M39.877 18.6588L38.5765 15.4529C38.9283 15.0379 39.1413 14.5003 39.1413 13.9132C39.1413 12.807 38.3865 11.8749 37.3684 11.6119C37.3682 11.4577 37.3685 7.59656 37.3684 7.43281C37.3684 6.90053 37.0434 6.44412 36.5404 6.26998L20.0669 0.567142C19.3873 0.331747 18.6388 0.331825 17.9591 0.567142L13.8575 1.98701C13.5517 2.09279 13.3896 2.42655 13.4955 2.73234C13.6013 3.03828 13.935 3.20016 14.2409 3.09437L18.3424 1.6745C18.7747 1.52474 19.251 1.52474 19.6835 1.6745L36.157 7.37726C36.1745 7.38335 36.1964 7.39101 36.1964 7.43273C36.1964 7.47445 36.1745 7.48211 36.157 7.4882L30.486 9.45144V9.27597C30.486 8.56603 29.9788 7.95977 29.28 7.83453C22.4673 6.61264 15.5586 6.61264 8.74586 7.83453C8.04709 7.95985 7.53982 8.56603 7.53982 9.27597V9.45144L1.86894 7.4882C1.85136 7.48211 1.82949 7.47445 1.82949 7.43273C1.82949 7.39101 1.85136 7.38335 1.86894 7.37726L11.6094 4.00533C11.9152 3.89954 12.0773 3.56579 11.9715 3.26C11.8656 2.95414 11.5318 2.79218 11.2261 2.89796L1.48557 6.26998C0.982595 6.44412 0.65759 6.90046 0.65759 7.43281C0.65759 7.96516 0.982595 8.4215 1.48557 8.59564L7.5399 10.6915V16.4905C4.4707 16.7961 2.06582 19.3929 2.06582 22.5412C2.06582 24.645 3.14005 26.5023 4.76844 27.5945C2.04441 28.1964 0 30.6288 0 33.5312C0 36.8843 2.72794 39.6122 6.08097 39.6122H36.2005C37.2071 39.6122 38.0259 38.7934 38.0259 37.7868C38.0259 36.7926 37.227 35.9821 36.2375 35.9623C35.6253 34.389 35.6206 32.6761 36.2234 31.1006C37.2194 31.0882 38.0259 30.2746 38.0259 29.2757C38.0259 28.2691 37.2071 27.4503 36.2005 27.4503H35.8387C35.9168 27.2472 35.9601 27.027 35.9601 26.7967C35.9601 25.7902 35.1412 24.9713 34.1347 24.9713H34.1189C33.5512 23.4995 33.5143 21.9068 34.0083 20.4192C34.3184 20.7548 34.7547 20.9499 35.2181 20.9499H38.3466C38.8956 20.9499 39.4072 20.677 39.715 20.2198C40.0259 19.7583 40.0864 19.1747 39.877 18.6588ZM37.9694 13.9132C37.9694 14.5769 37.4369 15.1168 36.7824 15.1168C36.128 15.1168 35.5955 14.5769 35.5955 13.9132C35.5955 13.2496 36.128 12.7095 36.7824 12.7095C37.4369 12.7095 37.9694 13.2495 37.9694 13.9132ZM36.1965 8.71463V11.6119C35.1784 11.8749 34.4236 12.807 34.4236 13.9132C34.4236 14.5004 34.6366 15.0379 34.9883 15.4529L34.5797 16.4601H30.4861V10.6915L36.1965 8.71463ZM8.95273 8.98799C15.6282 7.79094 22.3977 7.79094 29.0732 8.98799C29.2128 9.01307 29.3141 9.13417 29.3141 9.27604V13.2696H25.7036C25.38 13.2696 25.1176 13.5319 25.1176 13.8556C25.1176 14.1793 25.38 14.4415 25.7036 14.4415H29.3141V16.4602H8.71179V14.4415H22.9692C23.2928 14.4415 23.5551 14.1793 23.5551 13.8556C23.5551 13.5319 23.2928 13.2696 22.9692 13.2696H8.71179V9.27604C8.71179 9.13417 8.81312 9.01307 8.95273 8.98799ZM36.8541 29.2756C36.8541 29.6359 36.561 29.9291 36.2006 29.9291H6.08097C4.09484 29.9291 2.47895 31.545 2.47895 33.5312C2.47895 35.5173 4.09484 37.1331 6.08097 37.1331H29.2193C29.5429 37.1331 29.8052 36.8708 29.8052 36.5471C29.8052 36.2235 29.5429 35.9612 29.2193 35.9612H6.08097C4.74102 35.9612 3.65085 34.8711 3.65085 33.5312C3.65085 32.1912 4.74102 31.101 6.08097 31.101H24.5606V34.3856C24.5606 34.5793 24.6563 34.7605 24.8163 34.8696C24.9762 34.9788 25.1798 35.002 25.3602 34.9312L26.9422 34.3117L28.5242 34.9312C28.5932 34.9583 28.6657 34.9716 28.7378 34.9716C28.854 34.9716 28.9693 34.937 29.0681 34.8696C29.2281 34.7605 29.3238 34.5793 29.3238 34.3856V31.101H34.9799C34.4707 32.6886 34.4744 34.3752 34.9915 35.9613H31.9537C31.6301 35.9613 31.3677 36.2235 31.3677 36.5472C31.3677 36.8709 31.6301 37.1332 31.9537 37.1332H36.2005C36.5609 37.1332 36.854 37.4264 36.854 37.7867C36.854 38.147 36.5609 38.4402 36.2005 38.4402H6.08097C3.37412 38.4403 1.1719 36.2381 1.1719 33.5312C1.1719 30.8242 3.37412 28.6221 6.08097 28.6221H36.2005C36.5609 28.6221 36.8541 28.9153 36.8541 29.2756ZM25.7325 31.1011H28.1519V33.527L27.1559 33.137C27.0184 33.0832 26.8659 33.0832 26.7285 33.137L25.7325 33.527V31.1011ZM15.7034 26.1431H34.1347C34.4951 26.1431 34.7883 26.4363 34.7883 26.7967C34.7883 27.157 34.4951 27.4502 34.1347 27.4502H8.14678C5.43994 27.4502 3.23771 25.248 3.23771 22.541C3.23771 19.8341 5.43994 17.632 8.14678 17.632H34.1043C33.9595 18.0206 33.692 18.5714 33.602 18.939H8.14678C6.16066 18.939 4.54477 20.5549 4.54477 22.541C4.54477 24.5272 6.16066 26.143 8.14678 26.143H12.969C13.2926 26.143 13.5549 25.8807 13.5549 25.557C13.5549 25.2334 13.2926 24.9711 12.969 24.9711H8.14678C6.80684 24.9711 5.71666 23.881 5.71666 22.541C5.71666 21.2011 6.80684 20.1109 8.14678 20.1109H10.2891V23.3674C10.2891 23.5611 10.3848 23.7422 10.5448 23.8514C10.7047 23.9605 10.9084 23.9836 11.0887 23.9129L12.6707 23.2935L14.2527 23.9129C14.3217 23.9401 14.3942 23.9533 14.4663 23.9533C14.5825 23.9533 14.6978 23.9188 14.7966 23.8514C14.9566 23.7422 15.0523 23.5611 15.0523 23.3674V20.1109H32.8743C32.3612 21.6977 32.3612 23.3843 32.8743 24.9712H15.7034C15.3798 24.9712 15.1175 25.2334 15.1175 25.5571C15.1175 25.8808 15.3798 26.1431 15.7034 26.1431ZM11.461 20.111H13.8804V22.5087L12.8844 22.1187C12.7469 22.0649 12.5944 22.0649 12.457 22.1187L11.461 22.5087V20.111ZM38.743 19.5651C38.7 19.6291 38.5751 19.7779 38.3466 19.7779H35.2181C34.9897 19.7779 34.8648 19.6291 34.8217 19.5651C34.7276 19.4255 34.7101 19.2557 34.7736 19.0993L35.9723 16.1444C36.2251 16.2377 36.4979 16.2887 36.7824 16.2887C37.0668 16.2887 37.3396 16.2377 37.5924 16.1444L38.7911 19.0993C38.8546 19.2558 38.8371 19.4255 38.743 19.5651Z" fill="currentColor" />
  </g>
</svg>