<svg width="40" height="40" viewBox="0 0 40 40" fill="none" xmlns="http://www.w3.org/2000/svg">
  <path d="M7.63703 18.5742H6.3125C5.98867 18.5742 5.72594 18.8373 5.72656 19.1613V19.1649V19.1651V23.7612C5.72656 24.1857 6.0107 24.4231 6.32195 24.4231C6.40008 24.4231 7.33742 24.4188 7.68602 24.4127C9.09156 24.3882 10.1116 23.1627 10.1116 21.4987C10.1117 19.7495 9.11719 18.5742 7.63703 18.5742ZM7.66563 23.2409C7.49109 23.244 7.1832 23.2464 6.90586 23.2482C6.90094 21.782 6.90289 21.787 6.89953 19.7461H7.63711C8.59766 19.7461 8.93985 20.6514 8.93985 21.4987C8.93985 22.3548 8.54578 23.2255 7.66563 23.2409Z" fill="currentColor" />
  <path d="M20.8121 24.5696C21.6109 24.5696 22.2911 24.262 22.7792 23.6799C22.9871 23.432 22.9547 23.0624 22.7067 22.8545C22.4587 22.6465 22.0892 22.679 21.8812 22.9269C21.6192 23.2393 21.2596 23.3977 20.8121 23.3977C19.8064 23.3977 18.9883 22.5795 18.9883 21.5739C18.9883 20.5682 19.8064 19.7501 20.8121 19.7501C21.1777 19.7501 21.5302 19.8577 21.8315 20.0612C22.0997 20.2423 22.4639 20.1718 22.645 19.9036C22.8261 19.6355 22.7556 19.2713 22.4874 19.0901C21.9916 18.7552 21.4123 18.5781 20.8121 18.5781C19.1602 18.5781 17.8164 19.922 17.8164 21.5738C17.8164 23.2258 19.1602 24.5696 20.8121 24.5696Z" fill="currentColor" />
  <path d="M14.0348 24.5695C15.6866 24.5695 17.0305 23.2256 17.0305 21.5738C17.0305 19.922 15.6866 18.5781 14.0348 18.5781C12.3829 18.5781 11.0391 19.922 11.0391 21.5738C11.0391 23.2256 12.383 24.5695 14.0348 24.5695ZM14.0348 19.75C15.0405 19.75 15.8586 20.5681 15.8586 21.5738C15.8586 22.5795 15.0405 23.3976 14.0348 23.3976C13.0291 23.3976 12.2109 22.5795 12.2109 21.5738C12.211 20.5681 13.0291 19.75 14.0348 19.75Z" fill="currentColor" />
  <path d="M32.7776 11.6523H14.7617C14.4381 11.6523 14.1758 11.9147 14.1758 12.2383C14.1758 12.5619 14.4381 12.8242 14.7617 12.8242H32.7776C33.1012 12.8242 33.3635 12.5619 33.3635 12.2383C33.3635 11.9147 33.1012 11.6523 32.7776 11.6523Z" fill="currentColor" />
  <path d="M32.7761 16.0664H28.1367C27.813 16.0664 27.5508 16.3287 27.5508 16.6523C27.5508 16.9759 27.813 17.2383 28.1367 17.2383H32.7761C33.0998 17.2383 33.362 16.9759 33.362 16.6523C33.362 16.3287 33.0998 16.0664 32.7761 16.0664Z" fill="currentColor" />
  <path d="M32.7761 20.4766H28.1367C27.813 20.4766 27.5508 20.7389 27.5508 21.0625C27.5508 21.3861 27.813 21.6484 28.1367 21.6484H32.7761C33.0998 21.6484 33.362 21.3861 33.362 21.0625C33.362 20.7389 33.0998 20.4766 32.7761 20.4766Z" fill="currentColor" />
  <path d="M32.7761 24.8867H28.1367C27.813 24.8867 27.5508 25.1491 27.5508 25.4727C27.5508 25.7962 27.813 26.0586 28.1367 26.0586H32.7761C33.0998 26.0586 33.362 25.7962 33.362 25.4727C33.362 25.1491 33.0998 24.8867 32.7761 24.8867Z" fill="currentColor" />
  <path d="M32.7776 29.2969H14.7617C14.4381 29.2969 14.1758 29.5592 14.1758 29.8828C14.1758 30.2064 14.4381 30.4688 14.7617 30.4688H32.7776C33.1012 30.4688 33.3635 30.2064 33.3635 29.8828C33.3635 29.5592 33.1012 29.2969 32.7776 29.2969Z" fill="currentColor" />
  <path d="M36.4359 15.2956C36.7595 15.2956 37.0218 15.0333 37.0218 14.7097V7.90602C37.0218 7.75789 36.9627 7.60414 36.8502 7.49172L29.5302 0.171641C29.4266 0.068125 29.2772 0 29.1159 0H11.3284C10.0303 0 8.9743 1.05602 8.9743 2.35406V3.67766H7.65078C6.35273 3.67766 5.29672 4.73367 5.29672 6.03172V15.6864H4.62336C3.71531 15.6864 2.97656 16.4252 2.97656 17.3332V25.8127C2.97656 26.7209 3.71531 27.4596 4.62336 27.4596H5.29672V37.646C5.29672 38.9441 6.35273 40.0001 7.65078 40.0001H11.6429C11.9665 40.0001 12.2288 39.7377 12.2288 39.4141C12.2288 39.0905 11.9665 38.8282 11.6429 38.8282H7.65078C6.99891 38.8282 6.46859 38.2979 6.46859 37.646V27.4595H8.97438V33.9683C8.97438 35.2663 10.0304 36.3223 11.3284 36.3223H32.1723V37.6459C32.1723 38.2978 31.642 38.8281 30.9902 38.8281H14.3772C14.0536 38.8281 13.7913 39.0905 13.7913 39.4141C13.7913 39.7377 14.0536 40 14.3772 40H30.9902C32.2881 40 33.3442 38.944 33.3442 37.6459V36.3223H34.6677C35.9658 36.3223 37.0218 35.2663 37.0218 33.9683V17.4441C37.0218 17.1205 36.7595 16.8581 36.4359 16.8581C36.1122 16.8581 35.8499 17.1205 35.8499 17.4441V33.9683C35.8499 34.6202 35.3196 35.1505 34.6677 35.1505C33.8383 35.1505 12.5043 35.1505 11.3284 35.1505C10.6765 35.1505 10.1462 34.6202 10.1462 33.9683V27.4595H24.0209C24.929 27.4595 25.6677 26.7208 25.6677 25.8127V17.3334V17.3332C25.6677 17.3331 25.6677 17.333 25.6677 17.333C25.6676 16.4259 24.9285 15.6864 24.0209 15.6864C23.4697 15.6864 10.8993 15.6864 10.1462 15.6864C10.1462 14.9913 10.1462 2.93781 10.1462 2.35406C10.1462 1.70219 10.6766 1.17188 11.3284 1.17188H28.5298V6.13789C28.5298 7.43594 29.5859 8.49195 30.8839 8.49195H35.8498V14.7097C35.8499 15.0333 36.1122 15.2956 36.4359 15.2956ZM24.0209 16.8583C24.2795 16.8583 24.4959 17.0692 24.4959 17.3333V25.8127C24.4959 26.0746 24.2827 26.2877 24.0209 26.2877C23.1904 26.2877 5.45383 26.2877 4.62328 26.2877C4.36141 26.2877 4.14836 26.0746 4.14836 25.8127V17.3332C4.14836 17.0713 4.36141 16.8583 4.62328 16.8583H24.0209ZM6.46852 15.6864V6.03172C6.46852 5.37984 6.99883 4.84953 7.6507 4.84953H8.97422V15.6864H6.46852ZM30.8839 7.32008C30.232 7.32008 29.7017 6.78977 29.7017 6.13789V2.00047C30.4722 2.77094 34.2491 6.54789 35.0212 7.32H30.8839V7.32008Z" fill="currentColor" />
</svg>