<svg width="40" height="40" viewBox="0 0 40 40" fill="none" xmlns="http://www.w3.org/2000/svg">
  <path d="M34.124 5.24254C29.9298 4.96918 25.8959 3.54629 22.4584 1.12777L21.5501 0.488789C20.6239 -0.16293 19.3793 -0.16293 18.4531 0.488789L17.5449 1.12777C14.1074 3.54629 10.0735 4.96918 5.8793 5.24254C4.46844 5.33449 3.36328 6.5141 3.36328 7.92793V13.4329C3.36328 18.0196 4.43945 22.6164 6.47539 26.7264C8.51141 30.8365 11.5162 34.478 15.165 37.2572C17.2973 38.6992 18.0865 40 20.0016 40C21.9168 40 22.7059 38.6993 24.8382 37.2572C28.487 34.478 31.4918 30.8365 33.5278 26.7264C35.5638 22.6164 36.6399 18.0196 36.6399 13.4329V7.92793C36.64 6.51402 35.5348 5.33449 34.124 5.24254ZM35.468 13.4329C35.468 17.84 34.4339 22.257 32.4776 26.2062C30.5212 30.1554 27.6341 33.6544 24.128 36.3249L21.5041 38.3235C20.6195 38.9973 19.3837 38.9973 18.499 38.3235L15.8751 36.3249C12.3691 33.6544 9.4818 30.1554 7.52555 26.2062C5.5693 22.2571 4.53531 17.84 4.53531 13.4329V7.92793C4.53531 7.1298 5.15914 6.46395 5.95555 6.41207C10.3648 6.12465 14.6055 4.62887 18.2193 2.08629C18.9448 1.6366 19.2683 1.17145 20.0016 1.17145C20.7356 1.17145 21.0611 1.63824 21.7839 2.08629C25.3977 4.62887 29.6384 6.12465 34.0477 6.41207C34.8441 6.46402 35.468 7.1298 35.468 7.92793V13.4329H35.468Z" fill="currentColor" />
  <path d="M31.8256 8.58066C27.0971 8.32566 22.1074 5.38878 20.6908 4.49472C20.2713 4.22987 19.7297 4.23198 19.3133 4.49472C17.8966 5.38878 12.907 8.32566 8.17844 8.58066C7.49133 8.61769 6.95312 9.18433 6.95312 9.87058V12.8003C6.95312 13.1239 7.21547 13.3863 7.53914 13.3863C7.86281 13.3863 8.12516 13.1239 8.12516 12.8003V9.87058C8.12516 9.80698 8.17633 9.75448 8.24156 9.75097C12.7623 9.50714 17.4436 6.99097 19.4012 5.81636V34.3996L18.0506 33.3709C14.9819 31.0335 12.4548 27.971 10.7425 24.5144C9.37086 21.7454 8.49984 18.6439 8.22375 15.545C8.19508 15.2227 7.91078 14.9846 7.58805 15.0134C7.2657 15.0421 7.02766 15.3267 7.05641 15.6491C7.34523 18.8913 8.25672 22.1367 9.69227 25.0347C11.4842 28.6521 14.1289 31.8571 17.3405 34.3033L19.2191 35.7343C19.6666 36.0752 20.312 36.0946 20.785 35.7343L22.6638 34.3033C23.5529 33.626 24.4102 32.8807 25.2118 32.0877C25.4419 31.8601 25.4439 31.4891 25.2163 31.259C24.9888 31.029 24.6178 31.0269 24.3877 31.2545C23.6218 32.0121 22.8029 32.7241 21.9537 33.371L20.5732 34.4225V5.79847C22.513 6.96534 27.2191 9.50589 31.7627 9.75097C31.828 9.75448 31.8791 9.80698 31.8791 9.87058V13.3343C31.8791 17.1917 30.974 21.0578 29.2617 24.5144C28.4391 26.1752 27.423 27.7547 26.2416 29.2092C26.0376 29.4604 26.0759 29.8295 26.327 30.0335C26.5782 30.2375 26.9473 30.1992 27.1513 29.9481C28.3873 28.4263 29.4507 26.7731 30.3119 25.0346C32.1038 21.4172 33.051 17.3713 33.051 13.3343V9.87058C33.0509 9.18425 32.5127 8.61769 31.8256 8.58066Z" fill="currentColor" />
</svg>