<svg width="40" height="40" viewBox="0 0 40 40" fill="none" xmlns="http://www.w3.org/2000/svg">
  <path d="M39.8715 11.9596C38.8488 10.6816 37.8181 9.48593 36.814 8.3832C38.506 6.84328 39.5579 5.90859 39.5693 5.89859C39.8028 5.69117 39.8325 5.33695 39.6369 5.09343C37.196 2.05554 35.4331 0.876556 35.3593 0.827884C35.1379 0.681869 34.8459 0.702806 34.6476 0.8789C34.6363 0.888978 33.5689 1.83734 31.8559 3.39679C29.5984 1.31671 28.0583 0.141791 28.0281 0.1189C27.879 0.00600942 27.685 -0.0290687 27.5058 0.0247594C27.3993 0.0567126 25.0018 0.788431 22.7544 2.45554C22.3032 2.07882 22.0541 1.88062 22.0413 1.87046C21.9043 1.76156 21.7261 1.71976 21.5548 1.75609C21.4186 1.78507 18.1875 2.48968 15.4768 4.55484C15.333 4.66437 15.2478 4.83414 15.2459 5.01492C15.244 5.1957 15.3257 5.36718 15.4672 5.47968C15.4736 5.48468 16.1092 5.9907 17.1953 6.92031C17.3057 7.01484 17.4412 7.06109 17.5761 7.06109C17.7413 7.06109 17.9056 6.99156 18.0214 6.85617C18.2318 6.61031 18.2032 6.24046 17.9573 6.02999C17.4777 5.61952 17.0875 5.29265 16.7974 5.05257C18.7197 3.7732 20.8088 3.1557 21.5337 2.96718C21.7115 3.11234 22.0168 3.36351 22.3844 3.67437C22.4316 3.71015 27.1707 7.32117 32.5971 13.262C32.8156 13.5011 33.1861 13.5177 33.425 13.2994C33.6639 13.0812 33.6807 12.7105 33.4625 12.4716C29.1021 7.69796 25.1655 4.39812 23.6991 3.21882C25.279 2.10492 26.9198 1.46687 27.5618 1.24117C28.7134 2.15132 33.795 6.30163 38.7572 12.4439C38.5303 13.0901 37.8932 14.7273 36.7761 16.3085C36.2507 15.6639 35.709 15.0183 35.1597 14.3822C34.9482 14.1373 34.5783 14.1101 34.3332 14.3217C34.0883 14.5332 34.0613 14.9032 34.2728 15.1481C34.9796 15.9666 35.6736 16.8009 36.3354 17.628C36.5663 17.8991 36.7989 18.1936 37.0291 18.469C36.8386 19.2001 36.2194 21.2884 34.9397 23.208C29.3296 16.5355 23.8169 11.2415 20.1364 7.94093C19.8956 7.72484 19.525 7.74515 19.309 7.98593C19.0929 8.22687 19.1131 8.59734 19.354 8.81335C20.3516 9.70796 21.4849 10.7502 22.7186 11.9276C20.7842 13.7822 18.9508 15.5751 17.2629 17.263C15.5754 18.9506 13.7836 20.7827 11.9309 22.7151C7.88262 18.4734 5.52144 15.5201 5.47965 15.4675C5.36715 15.326 5.19637 15.2451 5.01488 15.2462C4.83418 15.248 4.66433 15.3332 4.5548 15.477C2.48965 18.1878 1.78504 21.4188 1.75605 21.5551C1.71965 21.7262 1.7616 21.9046 1.87043 22.0416C1.88058 22.0543 2.07887 22.3035 2.45551 22.7547C0.788397 25.0021 0.056678 27.3996 0.0247249 27.5061C-0.0290251 27.6852 0.00597485 27.8793 0.118865 28.0284C0.141756 28.0586 1.31668 29.5986 3.39668 31.856C1.8373 33.5691 0.888944 34.6364 0.878865 34.6478C0.702772 34.8462 0.681834 35.138 0.82785 35.3594C0.8766 35.4333 2.05551 37.1962 5.0934 39.637C5.20137 39.7237 5.33105 39.7662 5.46012 39.7662C5.62215 39.7662 5.78301 39.6993 5.89848 39.5693C5.90847 39.558 6.84316 38.5061 8.38308 36.8141C9.48582 37.8181 10.6815 38.8488 11.9595 39.8716C12.0647 39.9558 12.1942 40.0001 12.3257 40.0001C12.382 40.0001 12.4388 39.9919 12.4941 39.9754C12.6007 39.9434 15.0039 39.21 17.2536 37.5386C17.4847 37.7338 17.7164 37.928 17.9461 38.1189C18.0522 38.2072 18.1851 38.2543 18.3207 38.2543C18.3613 38.2543 18.4021 38.2501 18.4426 38.2415C18.5789 38.2125 21.8099 37.5079 24.5207 35.4427C24.6626 35.3346 24.7475 35.1676 24.7514 34.9891C24.7552 34.8107 24.6775 34.6402 24.5402 34.5262C21.7451 32.202 19.1798 29.878 16.8984 27.6923C17.6868 26.8699 18.4695 26.06 19.2308 25.2791C19.4567 25.0473 19.452 24.6764 19.2203 24.4505C18.9886 24.2246 18.6176 24.2292 18.3917 24.461C17.629 25.2434 16.8449 26.0547 16.0552 26.8784C14.8641 25.72 13.7575 24.6069 12.7438 23.5605C14.6025 21.6213 16.3997 19.7834 18.0915 18.0916C19.7837 16.3994 21.6229 14.6011 23.5641 12.7405C24.6137 13.7574 25.726 14.8637 26.8814 16.0526C24.9402 17.9134 23.1003 19.7126 21.4064 21.4065C21.0673 21.7455 20.7291 22.0854 20.3921 22.4254C20.1643 22.6552 20.1661 23.0262 20.3959 23.254C20.5101 23.3672 20.6593 23.4237 20.8083 23.4237C20.9592 23.4237 21.11 23.3659 21.2245 23.2502C21.5602 22.9115 21.8972 22.5729 22.235 22.2351C23.9239 20.5462 25.7587 18.752 27.695 16.896C29.8803 19.1789 32.1992 21.7419 34.5261 24.5404C34.6376 24.6744 34.8027 24.7517 34.9767 24.7517C34.9808 24.7517 34.985 24.7517 34.9892 24.7516C35.1676 24.7478 35.3346 24.6628 35.4428 24.5209C37.5079 21.81 38.2125 18.579 38.2415 18.4428C38.2789 18.2672 38.2336 18.0842 38.1189 17.9462C37.9271 17.7156 37.7329 17.4839 37.5386 17.2539C39.21 15.0041 39.9434 12.6011 39.9754 12.4944C40.0306 12.3098 39.9918 12.1099 39.8715 11.9596ZM32.7145 4.19976C33.8103 3.20265 34.6327 2.4639 35.0705 2.07218C35.6407 2.52179 36.8488 3.56523 38.3715 5.39687C37.9114 5.8089 37.0931 6.5446 36.0186 7.52249C34.8474 6.27406 33.7267 5.16046 32.7145 4.19976ZM5.39683 38.3716C3.56488 36.8485 2.52137 35.6403 2.07215 35.0705C2.46379 34.6328 3.20254 33.8104 4.19965 32.7145C5.16027 33.7267 6.27387 34.8474 7.52238 36.0187C6.54457 37.0931 5.80894 37.9114 5.39683 38.3716ZM23.208 34.9396C21.2879 36.2195 19.1995 36.8387 18.4689 37.0291C18.195 36.8001 17.9005 36.5676 17.6278 36.3355C12.9931 32.6262 9.30754 28.8559 7.03191 26.3462C6.81457 26.1065 6.44402 26.0884 6.20426 26.3057C5.96457 26.523 5.94644 26.8936 6.16379 27.1334C8.37121 29.5678 11.889 33.1739 16.3084 36.7761C14.7306 37.8901 13.0904 38.5293 12.4436 38.757C6.30676 33.7992 2.15215 28.714 1.24121 27.5618C1.46707 26.9194 2.1048 25.2795 3.21816 23.7001C3.47637 24.0218 3.83722 24.463 4.2966 25.0053C4.50574 25.2522 4.87551 25.2829 5.12238 25.0736C5.36933 24.8644 5.39988 24.4947 5.19066 24.2478C4.21285 23.0937 3.65465 22.3601 3.65465 22.3601C3.34379 21.9924 3.1123 21.7117 2.96707 21.5338C3.15582 20.8083 3.77355 18.7189 5.05308 16.7966C6.8798 18.9984 13.6644 26.9141 23.208 34.9396Z" fill="currentColor" />
</svg>