<svg width="32" height="40" viewBox="0 0 32 40" fill="none" xmlns="http://www.w3.org/2000/svg">
  <path d="M6.42746 4.79621C5.16019 4.79621 4.06986 5.6552 3.74721 6.84966C2.55141 6.53216 1.26226 7.04677 0.628743 8.14413C-0.00477725 9.24156 0.193974 10.6153 1.06695 11.492C0.193974 12.3687 -0.00485533 13.7425 0.628743 14.8398C1.26226 15.9371 2.55134 16.4518 3.74721 16.1343C3.99072 17.0354 4.67135 17.7455 5.53511 18.0399L10.1999 24.3191C9.82085 24.6245 9.59655 25.0819 9.59389 25.5714V25.5747V29.0288C9.59686 29.5696 9.86975 30.072 10.3238 30.3727C10.7859 30.6787 11.3662 30.7337 11.8756 30.5209L12.4146 30.2959L11.6577 32.4057C11.5393 32.7358 11.6031 33.0995 11.8228 33.3689L9.79921 37.1805C9.11959 38.4607 10.0487 40.0002 11.4946 40.0002H14.6323C14.956 40.0002 15.2182 39.7379 15.2182 39.4143C15.2182 39.0907 14.956 38.8284 14.6323 38.8284H11.4946C10.9292 38.8284 10.5691 38.2295 10.8342 37.7301L12.9928 33.6642L13.5108 33.528C13.911 34.083 13.9699 34.2012 14.1742 34.3352C14.3789 34.4696 14.6234 34.5212 14.8578 34.4882C15.2243 34.4365 15.5297 34.1879 15.6547 33.8396L15.9995 32.8786L16.3443 33.8396C16.45 34.1344 16.6851 34.3571 16.977 34.4502C17.398 34.5845 17.8407 34.4258 18.0862 34.0853L18.4882 33.528L19.0063 33.6642L21.1648 37.7301C21.4299 38.2296 21.0699 38.8284 20.5044 38.8284H17.3668C17.0432 38.8284 16.7809 39.0908 16.7809 39.4144C16.7809 39.738 17.0432 40.0003 17.3668 40.0003H20.5044C21.9538 40.0003 22.8779 38.4578 22.1999 37.1806L20.1762 33.3689C20.3959 33.0994 20.4597 32.7358 20.3413 32.4057L19.5844 30.2959L20.1236 30.521C21.2051 30.9727 22.399 30.1812 22.4052 29.0343L22.4053 28.6674C22.4053 28.3438 22.1431 28.0815 21.8194 28.0815C21.4957 28.0815 21.2334 28.3438 21.2334 28.6674L21.2334 29.0224C21.2322 29.2375 21.0896 29.3551 21.0284 29.3956C20.9634 29.4387 20.7891 29.5291 20.5751 29.4396L18.372 28.5197C18.4244 28.3497 18.4488 28.1725 18.4488 28.0082V26.5922C18.4488 26.4142 18.4197 26.2354 18.372 26.0807L20.5752 25.1608C20.5757 25.1607 20.5762 25.1605 20.5766 25.1604C20.7284 25.0975 20.8983 25.1186 21.0284 25.2048C21.0897 25.2454 21.2323 25.3629 21.2334 25.578C21.2334 25.5798 21.2335 25.5886 21.2335 25.5904V25.9331C21.2335 26.2567 21.4958 26.519 21.8195 26.519C22.1431 26.519 22.4054 26.2567 22.4054 25.9331L22.4053 25.5716C22.4027 25.0822 22.1783 24.6248 21.7993 24.3194L26.4642 18.0402C27.3279 17.7458 28.0085 17.0358 28.252 16.1347C29.4483 16.4524 30.737 15.9375 31.3705 14.8401C32.0039 13.7428 31.8051 12.369 30.9323 11.4923C31.8053 10.6156 32.0041 9.24187 31.3705 8.14444C30.7369 7.04709 29.448 6.53247 28.252 6.84998C27.9293 5.65559 26.8389 4.79652 25.5718 4.79652C24.5506 4.79652 23.6445 5.35457 23.1622 6.1963C23.3231 5.44567 23.216 4.6384 22.8076 3.93097C22.0595 2.63502 20.5165 2.04517 19.1109 2.47275C18.778 1.04134 17.4959 0 15.9996 0C14.5033 0 13.2212 1.04118 12.8884 2.47236C11.4827 2.04486 9.93983 2.63463 9.1917 3.93058C8.78318 4.63808 8.67607 5.44543 8.83717 6.19614C8.35482 5.35434 7.44872 4.79621 6.42746 4.79621ZM11.4241 29.4393C11.2102 29.5286 11.0357 29.4384 10.9708 29.3953C10.9095 29.3548 10.7669 29.2373 10.7658 29.0254V25.5765C10.7685 25.2447 11.1232 25.0351 11.4241 25.1606L13.6272 26.0804C13.5736 26.2543 13.5504 26.434 13.5504 26.5919V28.008C13.5504 28.1685 13.574 28.3469 13.6272 28.5194L11.4241 29.4393ZM17.2768 26.5919V28.008C17.2768 28.3135 17.0225 28.5773 16.7076 28.5773H15.2985C15.2958 28.5773 15.2932 28.5772 15.2906 28.5772H15.2904C14.9759 28.5766 14.7223 28.3134 14.7223 28.008V26.5919C14.7223 26.2842 14.9782 26.0226 15.2915 26.0226H16.7076C17.0219 26.0226 17.2768 26.2854 17.2768 26.5919ZM14.3652 29.4812C14.5226 29.5805 14.693 29.652 14.8574 29.6945C14.9667 29.9991 14.9346 29.9095 15.3771 31.143L14.6658 33.1256C14.395 32.7502 14.2535 32.4703 13.8249 32.3623C13.5185 32.2848 13.332 32.3631 12.875 32.4832L13.8791 29.6841L14.3652 29.4812ZM18.1201 29.6842L19.1242 32.4833L18.6682 32.3634C18.2733 32.2595 17.8479 32.4123 17.6091 32.7433L17.3333 33.1257C16.8916 31.8943 16.3127 30.2805 16.1221 29.7491H16.7076C17.029 29.7491 17.3433 29.6629 17.634 29.4812C17.7083 29.5122 18.0465 29.6534 18.1201 29.6842ZM20.6071 23.9585C20.4524 23.973 20.2774 24.0149 20.1236 24.0791L17.634 25.1186C17.3533 24.9415 17.0329 24.8507 16.7077 24.8507H15.2916C14.9739 24.8507 14.6498 24.9392 14.3653 25.1186L11.8757 24.0791C11.7226 24.0152 11.5461 23.9728 11.3923 23.9585L7.052 18.1165C8.04529 17.8876 8.84154 17.1194 9.10764 16.1343C10.9525 16.6243 12.7026 15.1389 12.5978 13.3232C12.6951 13.3033 12.792 13.2792 12.8883 13.2499C13.2213 14.6816 14.505 15.7223 15.9995 15.7223C17.4958 15.7223 18.7779 14.6811 19.1107 13.2499C19.2069 13.2792 19.3039 13.3032 19.4012 13.3231C19.2988 15.1318 21.039 16.6261 22.8913 16.1342C23.1529 17.1021 23.9374 17.8832 24.9471 18.1165L20.6071 23.9585ZM23.9788 7.38076C24.0625 6.69591 24.6492 5.96802 25.5717 5.96802C26.4941 5.96802 27.0807 6.69591 27.1646 7.38084C27.1973 7.64803 27.349 7.87803 27.5808 8.01194C27.8126 8.14577 28.0876 8.16217 28.3355 8.05686C28.9706 7.78694 29.8943 7.93123 30.3555 8.72999C30.8166 9.52882 30.4796 10.4009 29.9283 10.8159C29.7133 10.9778 29.5899 11.2242 29.5899 11.4919C29.5899 11.7595 29.7133 12.006 29.9283 12.1678V12.1679C30.4795 12.5829 30.8166 13.455 30.3555 14.2538C29.8943 15.0526 28.9704 15.1967 28.3356 14.927C28.0878 14.8215 27.8128 14.838 27.5809 14.9718C27.349 15.1057 27.1973 15.3357 27.1646 15.6031C27.0743 16.341 26.4422 17.0158 25.5717 17.0158C24.6492 17.0158 24.0626 16.2879 23.9788 15.603C23.946 15.3358 23.7943 15.1057 23.5625 14.9719C23.328 14.8366 23.0449 14.8263 22.8078 14.9271C21.6943 15.4005 20.4906 14.5203 20.5765 13.3428C21.4694 13.1949 22.2496 12.6777 22.7399 11.9033C22.94 13.2871 24.1334 14.3538 25.5717 14.3538C27.1497 14.3538 28.4335 13.07 28.4335 11.492C28.4335 9.91406 27.1497 8.6303 25.5717 8.6303C24.5961 8.6303 23.7335 9.12124 23.2167 9.86875C23.2167 9.86875 23.2167 9.86867 23.2167 9.86859C23.1412 9.13835 22.8131 8.44874 22.297 7.93373C22.473 7.9467 22.6458 7.98819 22.808 8.05709C23.0556 8.16225 23.3307 8.14585 23.5626 8.01209C23.7944 7.87811 23.946 7.64811 23.9788 7.38076ZM23.8818 11.4919C23.8818 10.5601 24.6399 9.80203 25.5717 9.80203C26.5036 9.80203 27.2616 10.5601 27.2616 11.4919C27.2616 12.4237 26.5036 13.1817 25.5717 13.1817C24.6399 13.1818 23.8818 12.4237 23.8818 11.4919ZM10.2065 4.51652C10.7166 3.63276 11.811 3.26799 12.7523 3.66808C13.0146 3.77956 13.306 3.7623 13.5514 3.62058C13.7968 3.47886 13.9573 3.23518 13.9918 2.95237C14.116 1.93728 14.9792 1.17188 15.9996 1.17188C17.02 1.17188 17.8831 1.93728 18.0073 2.95213C18.0418 3.23518 18.2023 3.47886 18.4477 3.62058C18.6931 3.7623 18.9843 3.77956 19.2469 3.66808C20.1884 3.26815 21.2824 3.63284 21.7927 4.51652C22.3091 5.41082 22.058 6.54068 21.2546 7.14545C21.031 7.31381 20.8961 7.57264 20.8961 7.86116C20.8961 8.14108 21.0258 8.4046 21.2546 8.57686C22.0203 9.15335 22.2717 10.1827 21.8796 11.0374C21.4167 12.0465 20.2401 12.476 19.2468 12.0542C18.9844 11.9427 18.6929 11.96 18.4476 12.1017C18.2022 12.2435 18.0418 12.4871 18.0072 12.7699C17.8832 13.7846 17.0202 14.5503 15.9995 14.5504C14.9794 14.5504 14.116 13.7853 13.9917 12.7702C13.9581 12.494 13.8026 12.2468 13.5513 12.1017C13.1497 11.8697 12.8142 12.0345 12.6555 12.0923C12.6534 12.0931 12.6513 12.0937 12.6493 12.0944C11.5836 12.4778 10.4194 11.9196 10.0495 10.8643C9.76319 10.0476 10.0297 9.11499 10.7444 8.57686C10.9723 8.40538 11.103 8.14444 11.103 7.86108V7.861C11.103 7.57764 10.9723 7.31678 10.7444 7.14537C10.7005 7.11232 10.6591 7.07701 10.6186 7.04107C10.5965 7.02131 10.5748 7.00037 10.5533 6.97935C9.89569 6.34177 9.73905 5.32621 10.2065 4.51652ZM9.19131 8.05686C9.35334 7.98795 9.52616 7.94655 9.70218 7.93358C9.1567 8.47905 8.83975 9.20976 8.7824 9.86852C8.2656 9.12109 7.40294 8.63007 6.42746 8.63007C4.84948 8.63007 3.56564 9.91383 3.56564 11.4918C3.56564 13.0698 4.84948 14.3535 6.42746 14.3535C7.86575 14.3535 9.05912 13.2868 9.2592 11.9031C9.74374 12.6688 10.5205 13.1931 11.4227 13.3426C11.506 14.4865 10.3328 15.4119 9.19131 14.9268C8.94357 14.8215 8.66857 14.8379 8.43662 14.9717C8.20482 15.1055 8.0531 15.3356 8.02037 15.6029C7.93661 16.2878 7.34989 17.0157 6.42746 17.0157C5.56972 17.0157 4.92659 16.3549 4.83456 15.6029C4.80182 15.3356 4.6501 15.1056 4.41823 14.9718C4.18627 14.8378 3.91111 14.8216 3.66361 14.9269C3.02861 15.1968 2.10485 15.0525 1.64367 14.2538C1.18258 13.455 1.51953 12.5829 2.07086 12.1678C2.28587 12.006 2.40923 11.7595 2.40923 11.4919C2.40923 11.2242 2.28587 10.9778 2.07079 10.8159C1.51953 10.4009 1.18258 9.52882 1.64367 8.72999C2.10477 7.93123 3.02853 7.78694 3.66361 8.05694C3.91135 8.16217 4.18643 8.14577 4.4183 8.01202C4.6501 7.87819 4.80182 7.64811 4.83456 7.38076C4.91831 6.69591 5.50503 5.96802 6.42746 5.96802C7.34989 5.96802 7.93654 6.69591 8.02037 7.38084C8.0531 7.64803 8.20474 7.87803 8.43654 8.01186C8.66826 8.14577 8.94334 8.16217 9.19131 8.05686ZM8.11732 11.4919C8.11732 12.4237 7.35927 13.1817 6.42746 13.1817C5.49558 13.1817 4.73753 12.4237 4.73753 11.4919C4.73753 10.5601 5.49558 9.80203 6.42746 9.80203C7.35927 9.80203 8.11732 10.5601 8.11732 11.4919Z" fill="currentColor" />
  <path d="M15.999 11.1581C17.8164 11.1581 19.2949 9.67961 19.2949 7.86227C19.2949 6.04492 17.8164 4.56641 15.999 4.56641C14.1816 4.56641 12.7031 6.04492 12.7031 7.86227C12.7031 9.67961 14.1816 11.1581 15.999 11.1581ZM15.999 5.73828C17.1702 5.73828 18.123 6.69109 18.123 7.86227C18.123 9.03344 17.1702 9.98625 15.999 9.98625C14.8279 9.98625 13.875 9.03344 13.875 7.86227C13.875 6.69109 14.8278 5.73828 15.999 5.73828Z" fill="currentColor" />
</svg>