<svg width="40" height="40" viewBox="0 0 40 40" fill="none" xmlns="http://www.w3.org/2000/svg">
  <path d="M8.13609 12.5898C7.52258 12.5898 7.02344 13.089 7.02344 13.7025V16.103C7.02344 16.7166 7.52258 17.2157 8.13609 17.2157H15.3081C15.9216 17.2157 16.4208 16.7166 16.4208 16.103V13.7025C16.4208 13.089 15.9216 12.5898 15.3081 12.5898H8.13609ZM15.2489 16.0439H8.19523V13.7618H15.2489V16.0439Z" fill="currentColor" />
  <path d="M17.8352 33.366L4.05523 33.3577C4.21484 33.0512 4.29969 32.7092 4.30008 32.3552L4.32133 10.9501C4.32187 10.4489 4.72758 10.0427 5.22961 10.0427H5.23062L35.2615 10.0756C35.5041 10.0759 35.732 10.1706 35.9034 10.3423C36.0748 10.5141 36.1691 10.7423 36.1687 10.9838L36.1647 12.3373C36.1637 12.6609 36.4253 12.924 36.7489 12.9249H36.7507C37.0734 12.9249 37.3355 12.6637 37.3366 12.3407L37.3406 10.9862C37.3412 10.4305 37.1255 9.90789 36.733 9.51461C36.3405 9.12125 35.8184 8.9043 35.2627 8.90375L34.7846 8.9032V7.84805C34.7846 6.70102 33.8515 5.76789 32.7044 5.76789H15.7836C15.0173 5.76789 14.3053 5.38781 13.8789 4.75109L13.4873 4.16648C12.8434 3.20508 11.7683 2.63062 10.6112 2.62992L2.80562 2.625C2.805 2.625 2.80445 2.625 2.80383 2.625C1.2575 2.625 0.00445312 3.87625 0.00421875 5.42422L0 32.3505C0 33.5213 0.960156 34.5455 2.22766 34.5285L17.8345 34.538H17.8348C18.1583 34.538 18.4206 34.2759 18.4208 33.9523C18.4209 33.6287 18.1587 33.3663 17.8352 33.366ZM3.14945 10.9489L3.1282 32.354C3.12758 32.905 2.68898 33.353 2.14898 33.3563C1.60961 33.3408 1.17187 32.8911 1.17187 32.3505L1.17609 5.42437C1.17625 4.52523 1.90391 3.79688 2.80383 3.79688H2.80484L10.6104 3.8018C11.3761 3.80227 12.0876 4.18242 12.5137 4.81859L12.9052 5.4032C13.5496 6.36531 14.6256 6.93977 15.7836 6.93977H32.7044C33.2052 6.93977 33.6127 7.34727 33.6127 7.84805V8.90203L5.23195 8.87094C5.23117 8.87094 5.23039 8.87094 5.22961 8.87094C4.0818 8.87094 3.15078 9.79891 3.14945 10.9489Z" fill="currentColor" />
  <path d="M37.1106 14.5195H22.9046C21.3116 14.5195 20.0156 15.8155 20.0156 17.4085V34.4845C20.0156 36.0776 21.3116 37.3735 22.9046 37.3735H37.1106C38.7037 37.3735 39.9996 36.0775 39.9996 34.4845V17.4085C39.9996 15.8155 38.7036 14.5195 37.1106 14.5195ZM38.8277 34.4845C38.8277 35.4314 38.0574 36.2016 37.1106 36.2016H22.9046C21.9578 36.2016 21.1875 35.4313 21.1875 34.4845V17.4085C21.1875 16.4616 21.9578 15.6914 22.9046 15.6914H37.1106C38.0574 15.6914 38.8277 16.4617 38.8277 17.4085V34.4845Z" fill="currentColor" />
  <path d="M36.1518 17.6562H28.904C28.5803 17.6562 28.318 17.9186 28.318 18.2422C28.318 18.5658 28.5803 18.8281 28.904 18.8281H36.1518C36.2067 18.8281 36.2514 18.8728 36.2514 18.9277V21.363C36.2514 21.418 36.2067 21.4627 36.1518 21.4627H23.8613C23.8064 21.4627 23.7617 21.418 23.7617 21.363V18.9277C23.7617 18.8728 23.8064 18.8281 23.8613 18.8281H26.1634C26.487 18.8281 26.7493 18.5658 26.7493 18.2422C26.7493 17.9186 26.487 17.6562 26.1634 17.6562H23.8613C23.1602 17.6562 22.5898 18.2266 22.5898 18.9277V21.363C22.5898 22.0642 23.1602 22.6346 23.8613 22.6346H36.1517C36.8529 22.6346 37.4232 22.0642 37.4232 21.363V18.9277C37.4233 18.2266 36.8529 17.6562 36.1518 17.6562Z" fill="currentColor" />
  <path d="M25.3722 24.9688H23.9512C23.2006 24.9688 22.5898 25.5795 22.5898 26.3302V27.7512C22.5898 28.5018 23.2005 29.1126 23.9512 29.1126H25.3722C26.1228 29.1126 26.7336 28.5019 26.7336 27.7512V26.3302C26.7336 25.5795 26.1229 24.9688 25.3722 24.9688ZM25.5617 27.7511C25.5617 27.8555 25.4767 27.9406 25.3722 27.9406H23.9512C23.8467 27.9406 23.7617 27.8556 23.7617 27.7511V26.3301C23.7617 26.2256 23.8467 26.1405 23.9512 26.1405H25.3722C25.4767 26.1405 25.5617 26.2255 25.5617 26.3301V27.7511Z" fill="currentColor" />
  <path d="M25.3722 30.2148H23.9512C23.2006 30.2148 22.5898 30.8255 22.5898 31.5762V32.9973C22.5898 33.7479 23.2005 34.3587 23.9512 34.3587H25.3722C26.1228 34.3587 26.7336 33.748 26.7336 32.9973V31.5762C26.7336 30.8255 26.1229 30.2148 25.3722 30.2148ZM25.5617 32.9972C25.5617 33.1016 25.4767 33.1867 25.3722 33.1867H23.9512C23.8467 33.1867 23.7617 33.1017 23.7617 32.9972V31.5762C23.7617 31.4717 23.8467 31.3866 23.9512 31.3866H25.3722C25.4767 31.3866 25.5617 31.4716 25.5617 31.5762V32.9972Z" fill="currentColor" />
  <path d="M30.6652 24.9688H29.2442C28.4936 24.9688 27.8828 25.5795 27.8828 26.3302V27.7512C27.8828 28.5018 28.4935 29.1126 29.2442 29.1126H30.6652C31.4159 29.1126 32.0266 28.5019 32.0266 27.7512V26.3302C32.0266 25.5795 31.4159 24.9688 30.6652 24.9688ZM30.8548 27.7511C30.8548 27.8555 30.7698 27.9406 30.6652 27.9406H29.2442C29.1397 27.9406 29.0547 27.8556 29.0547 27.7511V26.3301C29.0547 26.2256 29.1397 26.1405 29.2442 26.1405H30.6652C30.7698 26.1405 30.8548 26.2255 30.8548 26.3301V27.7511Z" fill="currentColor" />
  <path d="M35.9542 24.9688H34.5333C33.7827 24.9688 33.1719 25.5795 33.1719 26.3302V27.7512C33.1719 28.5018 33.7826 29.1126 34.5333 29.1126H35.9542C36.7048 29.1126 37.3156 28.5019 37.3156 27.7512V26.3302C37.3156 25.5795 36.7048 24.9688 35.9542 24.9688ZM36.1438 27.7511C36.1438 27.8555 36.0588 27.9406 35.9542 27.9406H34.5333C34.4288 27.9406 34.3438 27.8556 34.3438 27.7511V26.3301C34.3438 26.2256 34.4288 26.1405 34.5333 26.1405H35.9542C36.0588 26.1405 36.1438 26.2255 36.1438 26.3301V27.7511Z" fill="currentColor" />
  <path d="M35.9542 30.2148H34.5333C33.7827 30.2148 33.1719 30.8255 33.1719 31.5762V32.9973C33.1719 33.7479 33.7826 34.3587 34.5333 34.3587H35.9542C36.7048 34.3587 37.3156 33.748 37.3156 32.9973V31.5762C37.3156 30.8255 36.7048 30.2148 35.9542 30.2148ZM36.1438 32.9972C36.1438 33.1016 36.0588 33.1867 35.9542 33.1867H34.5333C34.4288 33.1867 34.3438 33.1017 34.3438 32.9972V31.5762C34.3438 31.4717 34.4288 31.3866 34.5333 31.3866H35.9542C36.0588 31.3866 36.1438 31.4716 36.1438 31.5762V32.9972Z" fill="currentColor" />
  <path d="M30.6652 30.2148H29.2442C28.4936 30.2148 27.8828 30.8255 27.8828 31.5762V32.9973C27.8828 33.7479 28.4935 34.3587 29.2442 34.3587H30.6652C31.4159 34.3587 32.0266 33.748 32.0266 32.9973V31.5762C32.0266 30.8255 31.4159 30.2148 30.6652 30.2148ZM30.8548 32.9972C30.8548 33.1016 30.7698 33.1867 30.6652 33.1867H29.2442C29.1397 33.1867 29.0547 33.1017 29.0547 32.9972V31.5762C29.0547 31.4717 29.1397 31.3866 29.2442 31.3866H30.6652C30.7698 31.3866 30.8548 31.4716 30.8548 31.5762V32.9972Z" fill="currentColor" />
</svg>