<svg width="40" height="40" viewBox="0 0 40 40" fill="none" xmlns="http://www.w3.org/2000/svg">
  <g clip-path="url(#clip0_530_7381)">
    <path d="M39.4778 0.521172C39.4758 0.519297 39.4737 0.517656 39.4719 0.515781C39.141 0.187891 38.6851 0 38.2197 0H38.2173C37.8151 0 37.4213 0.138281 37.1088 0.388984C32.855 3.78664 28.5854 7.29367 24.4183 10.8124C23.4051 11.668 22.3909 12.5302 21.3777 13.3973L9.80912 1.82883C8.66678 0.686641 6.80818 0.686797 5.66592 1.82883L0.171621 7.3232C-0.057207 7.55211 -0.057207 7.92305 0.171621 8.15188C0.400449 8.38062 0.771465 8.38062 1.00021 8.15188L4.83732 4.31484L5.67584 5.15336L1.83881 8.99039C1.60998 9.2193 1.60998 9.59023 1.83881 9.81906C1.95318 9.93344 2.10318 9.99062 2.25311 9.99062C2.40303 9.99062 2.55303 9.93344 2.6674 9.81906L6.50451 5.98203L7.34303 6.82055L3.50592 10.6576C3.27709 10.8865 3.27709 11.2574 3.50592 11.4862C3.62029 11.6006 3.77029 11.6578 3.92021 11.6578C4.07014 11.6578 4.22014 11.6006 4.33451 11.4862L8.17162 7.64914L9.01014 8.48766L5.17311 12.3247C4.94428 12.5536 4.94428 12.9245 5.17311 13.1534C5.28748 13.2677 5.43748 13.3249 5.5874 13.3249C5.73732 13.3249 5.88732 13.2677 6.0017 13.1534L9.83873 9.31633L10.6772 10.1548L6.84021 13.9919C6.61139 14.2208 6.61139 14.5917 6.84021 14.8205C6.95459 14.9349 7.10459 14.9921 7.25451 14.9921C7.40443 14.9921 7.55443 14.9349 7.66881 14.8205L11.5058 10.9835L12.3444 11.822L8.50732 15.6591C8.2785 15.888 8.2785 16.2589 8.50732 16.4877C8.6217 16.6021 8.7717 16.6593 8.92162 16.6593C9.07154 16.6593 9.22154 16.6021 9.33592 16.4877L13.1729 12.6507L14.0115 13.4892L10.1744 17.3263C9.94561 17.5552 9.94561 17.9261 10.1744 18.1549C10.2888 18.2693 10.4388 18.3265 10.5887 18.3265C10.7387 18.3265 10.8887 18.2693 11.003 18.1549L14.8401 14.3179L15.6787 15.1565L11.8416 18.9935C11.6128 19.2224 11.6128 19.5934 11.8416 19.8222C11.956 19.9366 12.106 19.9937 12.2559 19.9937C12.4058 19.9937 12.5558 19.9366 12.6702 19.8222L16.5073 15.9851L17.3754 16.8531C15.5762 18.4199 13.7864 19.996 12.0167 21.5741C12.0159 21.5741 12.0159 21.5741 12.0159 21.5749C11.4902 22.0425 10.9168 22.5811 10.3511 23.0912C10.0045 23.342 10.0705 23.7827 10.2425 23.9546C10.2425 23.9546 10.2425 23.9554 10.2433 23.9554C10.8073 24.6382 11.119 25.5101 11.119 26.4116C11.119 27.4655 10.7136 28.4514 9.97693 29.1873C9.96951 29.1948 8.2174 30.947 8.20975 30.9545C5.6617 33.562 1.17443 31.7827 1.17186 28.0898C1.17342 25.8479 2.98412 23.9962 5.27178 23.9945C6.51779 23.9953 7.68107 24.55 8.46311 25.5148C8.67521 25.7762 9.06467 25.8045 9.31154 25.5805C9.31467 25.5781 9.31701 25.5758 9.32014 25.5727L9.32561 25.5679C9.60006 25.3212 9.58068 24.8766 9.27404 24.657C8.27248 23.4913 6.81545 22.8227 5.27568 22.8227H5.26787C2.33834 22.8227 -0.00337891 25.2082 5.85859e-05 28.0898C-0.00251954 30.2612 1.32443 32.1792 3.28748 32.9766C4.45311 33.4486 5.72998 33.4811 6.88342 33.1113C5.78404 36.5313 8.34272 40 11.899 40H11.9052C14.8112 40 17.1794 37.6475 17.1762 34.7297C17.1778 33.343 16.6434 32.0344 15.6739 31.0437C15.6744 31.043 16.8703 29.6836 16.8703 29.6836C18.9812 27.3346 21.0693 24.9749 23.132 22.6095L24.0148 23.4923L20.1778 27.3294C19.949 27.5583 19.949 27.9292 20.1778 28.158C20.2922 28.2724 20.4422 28.3296 20.5922 28.3296C20.7421 28.3296 20.8921 28.2724 21.0065 28.158L24.8436 24.321L25.6821 25.1595L21.8451 28.9966C21.6162 29.2255 21.6162 29.5964 21.8451 29.8252C21.9595 29.9396 22.1095 29.9968 22.2594 29.9968C22.4094 29.9968 22.5594 29.9396 22.6738 29.8252L26.5108 25.9882L27.3493 26.8266L23.5122 30.6637C23.2834 30.8926 23.2834 31.2635 23.5122 31.4923C23.6267 31.6067 23.7767 31.6639 23.9266 31.6639C24.0765 31.6639 24.2265 31.6067 24.341 31.4923L28.178 27.6553L29.0165 28.4937L25.1794 32.3309C24.9506 32.5598 24.9506 32.9307 25.1794 33.1595C25.2939 33.2739 25.4439 33.3311 25.5938 33.3311C25.7437 33.3311 25.8937 33.2739 26.0082 33.1595L29.8452 29.3224L30.6837 30.1609L26.8467 33.998C26.6179 34.2269 26.6179 34.5978 26.8467 34.8266C26.9612 34.941 27.1112 34.9982 27.2611 34.9982C27.411 34.9982 27.561 34.941 27.6754 34.8266L31.5125 30.9896L32.3509 31.828L28.5139 35.6651C28.2851 35.894 28.2851 36.2649 28.5139 36.4938C28.6283 36.6081 28.7783 36.6653 28.9283 36.6653C29.0782 36.6653 29.2282 36.6081 29.3426 36.4938L33.1797 32.6567L34.0181 33.4952L30.1811 37.3322C29.9522 37.5611 29.9522 37.932 30.1811 38.1609C30.2955 38.2752 30.4455 38.3324 30.5955 38.3324C30.7454 38.3324 30.8954 38.2752 31.0098 38.1609L34.8469 34.3238L35.6853 35.1623L31.8483 38.9993C31.6194 39.2282 31.6194 39.5991 31.8483 39.828C31.9627 39.9423 32.1127 39.9995 32.2626 39.9995C32.4126 39.9995 32.5626 39.9423 32.677 39.828L36.9278 35.5771C36.9279 35.577 36.9282 35.5767 36.9284 35.5766C36.9287 35.5764 36.9288 35.5762 36.929 35.5759L38.1713 34.3336C38.7247 33.7802 39.0294 33.0445 39.0294 32.262C39.0294 31.4794 38.7247 30.7437 38.1714 30.1903L26.59 18.6098C31.0825 13.369 35.4376 8.11234 39.6105 2.88984C40.1768 2.18117 40.1196 1.16289 39.4778 0.521172ZM5.666 3.48617L6.49459 2.65758C7.1799 1.97227 8.29514 1.97227 8.98053 2.65758L20.4858 14.163C19.7436 14.8006 19.0019 15.44 18.2618 16.0821L5.666 3.48617ZM37.3425 31.0195C37.6745 31.3515 37.8574 31.7929 37.8574 32.2624C37.8574 32.732 37.6745 33.1734 37.3425 33.5053L36.5139 34.3339C36.1267 33.9469 24.7346 22.5547 23.9033 21.7234C24.5462 20.9834 25.187 20.2428 25.8247 19.5018L37.3425 31.0195ZM16.3247 28.5363C16.0407 28.3188 15.2835 27.9424 15.1576 26.8734C15.1224 26.5781 14.8732 26.3562 14.5771 26.3562C14.2231 26.3562 13.9533 26.6636 13.9935 27.0109C13.9943 27.0109 13.9943 27.0109 13.9943 27.0109C14.106 27.9663 14.6247 28.8109 15.4169 29.3273C15.4583 29.3547 15.4997 29.3827 15.5427 29.414C15.1363 29.8777 14.8008 30.268 14.4162 30.6929C14.3091 30.8116 14.2544 30.9717 14.2669 31.1311C14.2787 31.2905 14.3576 31.4405 14.4818 31.5413C15.4651 32.344 16.0035 33.4993 16.0044 34.7296C16.0028 36.9877 14.1837 38.8265 11.903 38.828C9.64873 38.8251 7.80147 37.0083 7.80147 34.7296C7.80412 32.8752 8.97701 31.882 9.06709 31.7546L10.8054 30.0163C11.763 29.0587 12.2912 27.763 12.2912 26.4116C12.292 25.4241 12.0092 24.4702 11.4749 23.6546C11.9337 23.2351 12.3326 22.8628 12.796 22.4498L12.7983 22.4467C25.5026 11.1192 37.6906 1.38195 37.9197 1.25078C37.7626 1.40789 14.9013 24.2593 14.7958 24.3781C14.581 24.6203 14.6037 24.9914 14.8451 25.2055C15.0877 25.4216 15.4594 25.3962 15.6724 25.1562C15.7425 25.0764 38.5809 2.24633 38.7483 2.07891C38.7005 2.1632 29.2641 14.1155 16.3247 28.5363Z" fill="currentColor" />
    <path d="M7.34531 26.0206C5.49711 24.1725 2.34359 25.5042 2.34375 28.0918C2.34375 28.8739 2.64867 29.6094 3.20234 30.163C3.77352 30.7341 4.52352 31.0195 5.27383 31.0195C6.02391 31.0195 6.77422 30.7339 7.34531 30.163C8.48883 29.0197 8.48898 27.1639 7.34531 26.0206ZM6.5168 29.3343C5.83141 30.0193 4.71625 30.0195 4.03086 29.3343C2.9332 28.2367 3.7018 26.3353 5.27383 26.3353C6.85039 26.3353 7.60945 28.2418 6.5168 29.3343Z" fill="currentColor" />
    <path d="M11.9018 31.8008C10.697 31.8008 9.6621 32.4925 9.20085 33.6061C8.73734 34.7252 8.97859 35.9495 9.83038 36.8011C10.3962 37.3667 11.125 37.6633 11.8776 37.6633C12.2579 37.6633 12.6443 37.5875 13.0185 37.4325C14.1367 36.9692 14.8314 35.9336 14.8314 34.7298C14.8313 33.1148 13.5172 31.8008 11.9018 31.8008ZM12.5699 36.3499C12.0457 36.567 11.2684 36.5819 10.6588 35.9724C10.0489 35.3626 10.0651 34.5819 10.2834 34.0545C10.5001 33.5315 11.039 32.9726 11.9017 32.9726C12.8709 32.9726 13.6594 33.7609 13.6594 34.7298C13.6594 35.5915 13.0966 36.1317 12.5699 36.3499Z" fill="currentColor" />
  </g>
</svg>