<svg width="40" height="40" viewBox="0 0 40 40" fill="none" xmlns="http://www.w3.org/2000/svg">
  <g clip-path="url(#clip0_530_7359)">
    <path d="M39.4141 11.947H31.0401V10.949C31.0401 10.6254 30.7777 10.363 30.4541 10.363C30.1305 10.363 29.8682 10.6254 29.8682 10.949L29.8679 38.8281H25.0666V30.4538C25.0666 30.1302 24.8043 29.8679 24.4807 29.8679H21.4916C21.168 29.8679 20.9056 30.1302 20.9056 30.4538C20.9056 30.7774 21.168 31.0398 21.4916 31.0398H23.8947V32.8546H16.1056V31.0398H18.9376C19.2612 31.0398 19.5236 30.7774 19.5236 30.4538C19.5236 30.1302 19.2612 29.8679 18.9376 29.8679H15.5197C15.1961 29.8679 14.9337 30.1302 14.9337 30.4538V38.8281H10.1325L10.1321 7.14506H14.9341V9.54617C14.9341 9.86977 15.1964 10.1321 15.52 10.1321H24.4803C24.8039 10.1321 25.0662 9.86977 25.0662 9.54617V7.14506H29.8682V8.39507C29.8682 8.71866 30.1305 8.98101 30.4541 8.98101C30.7777 8.98101 31.0401 8.71866 31.0401 8.39507V7.14506H31.9471C32.2707 7.14506 32.5331 6.88271 32.5331 6.55911V3.57237C32.5331 3.24878 32.2707 2.98643 31.9471 2.98643H25.0662V0.585942C25.0662 0.262346 24.8039 0 24.4803 0H15.52C15.1964 0 14.9341 0.262346 14.9341 0.585942V2.98643H8.05319C7.72959 2.98643 7.46725 3.24878 7.46725 3.57237V6.55911C7.46725 6.88271 7.72959 7.14506 8.05319 7.14506H8.96023V11.9467H6.34302C6.01942 11.9467 5.75708 12.209 5.75708 12.5326C5.75708 12.8562 6.01942 13.1185 6.34302 13.1185H8.96023V14.9334H1.17188V13.1185H3.78909C4.11269 13.1185 4.37503 12.8562 4.37503 12.5326C4.37503 12.209 4.11269 11.9467 3.78909 11.9467H0.585942C0.262346 11.9467 0 12.209 0 12.5326L0.000390628 39.4137C0.000390628 39.7373 0.262736 39.9997 0.586333 39.9997H39.4141C39.7377 39.9997 40 39.7373 40 39.4137V12.533C40 12.2094 39.7377 11.947 39.4141 11.947ZM25.0662 4.15831H31.3612V5.97317H25.0662V4.15831ZM16.106 1.17188H23.8943V8.96023H16.106V1.17188ZM8.96023 38.8277H1.17227V16.1057H8.96023V38.8277ZM8.63913 5.97317V4.15831H14.9341V5.97317H8.63913ZM16.1056 38.8281V34.0265H19.4142V38.8281H16.1056ZM20.5861 38.8281V34.0265H23.8947V38.8281H20.5861ZM38.8281 38.8277H31.0401V16.1057H38.8281V38.8277ZM38.8281 14.9338H31.0401V13.1189H38.8281V14.9338Z" fill="currentColor" />
    <path d="M21.4945 2.98828C21.1709 2.98828 20.9086 3.25062 20.9086 3.57422V4.48164H19.0938V3.57422C19.0938 3.25062 18.8314 2.98828 18.5078 2.98828C18.1842 2.98828 17.9219 3.25062 17.9219 3.57422V6.56094C17.9219 6.88453 18.1842 7.14687 18.5078 7.14687C18.8314 7.14687 19.0938 6.88453 19.0938 6.56094V5.65352H20.9086V6.56094C20.9086 6.88453 21.1709 7.14687 21.4945 7.14687C21.8181 7.14687 22.0805 6.88453 22.0805 6.56094V3.57422C22.0805 3.25062 21.8181 2.98828 21.4945 2.98828Z" fill="currentColor" />
    <path d="M16.1078 12.5312C16.1078 12.2077 15.8455 11.9453 15.5219 11.9453H12.5352C12.2116 11.9453 11.9492 12.2077 11.9492 12.5312V18.5047C11.9492 18.8283 12.2116 19.0906 12.5352 19.0906H15.5219C15.8455 19.0906 16.1078 18.8283 16.1078 18.5047V12.5312ZM14.9359 17.9187H13.1211V16.1039H14.9359V17.9187ZM14.9359 14.932H13.1211V13.1172H14.9359V14.932Z" fill="currentColor" />
    <path d="M22.0805 12.5312C22.0805 12.2077 21.8181 11.9453 21.4945 11.9453H18.5078C18.1842 11.9453 17.9219 12.2077 17.9219 12.5312V18.5047C17.9219 18.8283 18.1842 19.0906 18.5078 19.0906H21.4945C21.8181 19.0906 22.0805 18.8283 22.0805 18.5047V12.5312ZM20.9086 17.9187H19.0938V16.1039H20.9086V17.9187ZM20.9086 14.932H19.0938V13.1172H20.9086V14.932Z" fill="currentColor" />
    <path d="M28.0531 12.5312C28.0531 12.2077 27.7908 11.9453 27.4672 11.9453H24.4805C24.1569 11.9453 23.8945 12.2077 23.8945 12.5312V18.5047C23.8945 18.8283 24.1569 19.0906 24.4805 19.0906H27.4672C27.7908 19.0906 28.0531 18.8283 28.0531 18.5047V12.5312ZM26.8813 17.9187H25.0664V16.1039H26.8813V17.9187ZM26.8813 14.932H25.0664V13.1172H26.8813V14.932Z" fill="currentColor" />
    <path d="M15.5219 20.9062H12.5352C12.2116 20.9062 11.9492 21.1686 11.9492 21.4922V27.4656C11.9492 27.7892 12.2116 28.0516 12.5352 28.0516H15.5219C15.8455 28.0516 16.1078 27.7892 16.1078 27.4656V21.4922C16.1078 21.1686 15.8455 20.9062 15.5219 20.9062ZM14.9359 26.8797H13.1211V25.0648H14.9359V26.8797ZM14.9359 23.893H13.1211V22.0781H14.9359V23.893Z" fill="currentColor" />
    <path d="M21.4945 20.9062H18.5078C18.1842 20.9062 17.9219 21.1686 17.9219 21.4922V27.4656C17.9219 27.7892 18.1842 28.0516 18.5078 28.0516H21.4945C21.8181 28.0516 22.0805 27.7892 22.0805 27.4656V21.4922C22.0805 21.1686 21.8181 20.9062 21.4945 20.9062ZM20.9086 26.8797H19.0938V25.0648H20.9086V26.8797ZM20.9086 23.893H19.0938V22.0781H20.9086V23.893Z" fill="currentColor" />
    <path d="M27.4672 20.9062H24.4805C24.1569 20.9062 23.8945 21.1686 23.8945 21.4922V27.4656C23.8945 27.7892 24.1569 28.0516 24.4805 28.0516H27.4672C27.7908 28.0516 28.0531 27.7892 28.0531 27.4656V21.4922C28.0531 21.1686 27.7908 20.9062 27.4672 20.9062ZM26.8813 26.8797H25.0664V25.0648H26.8813V26.8797ZM26.8813 23.893H25.0664V22.0781H26.8813V23.893Z" fill="currentColor" />
    <path d="M33.4414 25.0672H36.4281C36.7517 25.0672 37.0141 24.8048 37.0141 24.4813V18.5078C37.0141 18.1842 36.7517 17.9219 36.4281 17.9219H33.4414C33.1178 17.9219 32.8555 18.1842 32.8555 18.5078V24.4813C32.8555 24.8049 33.1178 25.0672 33.4414 25.0672ZM34.0273 19.0938H35.8422V20.9087H34.0273V19.0938ZM34.0273 22.0805H35.8422V23.8953H34.0273V22.0805Z" fill="currentColor" />
    <path d="M33.4414 34.0243H36.4281C36.7517 34.0243 37.0141 33.762 37.0141 33.4384V27.4648C37.0141 27.1412 36.7517 26.8789 36.4281 26.8789H33.4414C33.1178 26.8789 32.8555 27.1412 32.8555 27.4648V33.4384C32.8555 33.762 33.1178 34.0243 33.4414 34.0243ZM34.0273 28.0508H35.8422V29.8656H34.0273V28.0508ZM34.0273 31.0375H35.8422V32.8523H34.0273V31.0375Z" fill="currentColor" />
    <path d="M3.57422 25.0672H6.56094C6.88453 25.0672 7.14687 24.8048 7.14687 24.4813V18.5078C7.14687 18.1842 6.88453 17.9219 6.56094 17.9219H3.57422C3.25062 17.9219 2.98828 18.1842 2.98828 18.5078V24.4813C2.98828 24.8049 3.25062 25.0672 3.57422 25.0672ZM4.16016 19.0938H5.975V20.9087H4.16016V19.0938ZM4.16016 22.0805H5.975V23.8953H4.16016V22.0805Z" fill="currentColor" />
    <path d="M3.57422 34.0242H6.56094C6.88453 34.0242 7.14687 33.7619 7.14687 33.4383V27.4648C7.14687 27.1412 6.88453 26.8789 6.56094 26.8789H3.57422C3.25062 26.8789 2.98828 27.1412 2.98828 27.4648V33.4383C2.98828 33.7619 3.25062 34.0242 3.57422 34.0242ZM4.16016 28.0508H5.975V29.8656H4.16016V28.0508ZM4.16016 31.0375H5.975V32.8523H4.16016V31.0375Z" fill="currentColor" />
  </g>
</svg>