<svg width="40" height="38" viewBox="0 0 40 38" fill="none" xmlns="http://www.w3.org/2000/svg">
  <path d="M12.1385 12.1864C12.4213 12.3044 12.719 12.3634 13.0171 12.3634C13.3142 12.3633 13.6117 12.3048 13.8953 12.1878C14.4634 11.9532 14.9052 11.5129 15.1388 10.9486L16.347 8.04013C16.8309 6.87178 16.2749 5.52513 15.1058 5.03756C13.9374 4.55428 12.5913 5.11076 12.1047 6.27865L10.8992 9.18599C10.664 9.75092 10.6638 10.375 10.8987 10.9432C11.1336 11.5114 11.5744 11.9532 12.1385 12.1864ZM11.9811 9.63623C11.9813 9.63592 11.9814 9.6356 11.9815 9.63521L13.1868 6.72834C13.367 6.29607 13.7878 6.03467 14.2293 6.03467C14.3721 6.03467 14.5169 6.06201 14.6565 6.11967C15.2289 6.35849 15.5016 7.01881 15.2646 7.59107L14.0563 10.4996C13.9424 10.7747 13.7263 10.9896 13.4481 11.1045C13.1696 11.2195 12.8646 11.2196 12.5879 11.1041C12.3121 10.9901 12.0967 10.7739 11.9817 10.4954C11.8666 10.2169 11.8663 9.91178 11.9811 9.63623Z" fill="currentColor" />
  <path d="M9.08161 14.5158L13.6824 16.4283C14.5641 16.7947 15.4924 16.9778 16.4225 16.9778C17.3554 16.9778 18.2903 16.7935 19.1817 16.4248C20.1567 16.0216 21.0118 15.4245 21.7073 14.6773L26.9826 16.8683C27.0561 16.8988 27.1322 16.9132 27.2072 16.9132C27.4368 16.9132 27.6549 16.7772 27.7486 16.5518C27.8727 16.253 27.731 15.91 27.4322 15.7859L22.4565 13.7193C22.6973 13.3501 22.9068 12.9572 23.0792 12.5418C23.3268 11.9447 23.4873 11.333 23.5675 10.7208L30.5112 13.605C30.5557 13.6234 30.5997 13.6411 30.6426 13.6583C30.6768 13.6719 30.7157 13.6875 30.7531 13.703L30.6143 14.0365C30.3485 14.677 30.6119 15.3107 31.2549 15.5775L32.8484 16.2393C33.2111 16.3904 33.4931 16.3343 33.6657 16.2609C34.0462 16.0987 34.1835 15.7454 34.2286 15.6293L34.3417 15.3561C34.3538 15.3258 34.3824 15.248 34.4852 15.2554L36.4058 16.0528C37.4013 16.4671 37.4584 17.3309 37.1799 18.0012C36.9185 18.6304 36.1701 19.4172 35.1816 19.007L29.9814 16.8455C29.6825 16.7214 29.3396 16.8628 29.2154 17.1617C29.0911 17.4605 29.2328 17.8035 29.5315 17.9277L34.7322 20.0893C35.0734 20.2309 35.4072 20.2947 35.7261 20.2947C36.8825 20.2946 37.8443 19.4565 38.2622 18.4509C38.756 17.2622 38.5267 15.6661 36.8556 14.9708L34.8953 14.1569C34.6774 14.0674 34.3018 14.0429 33.954 14.1902C33.6326 14.3261 33.3904 14.579 33.2565 14.9141L33.1765 15.1068L31.7042 14.4954C31.7007 14.494 31.6975 14.4925 31.6944 14.4911C31.695 14.4896 31.6957 14.4881 31.6963 14.4865L31.8968 14.0049C32.0122 13.7254 32.02 13.4637 31.9202 13.2272C31.7578 12.8424 31.3808 12.6916 31.0779 12.5704C31.0395 12.555 31 12.5393 30.9604 12.5229L23.6209 9.47419C23.5004 6.77083 21.8547 4.24513 19.1968 3.14177L14.5958 1.22896C13.7082 0.860674 12.7272 0.861143 11.834 1.2306C10.9406 1.60013 10.2458 2.29271 9.87786 3.18044L7.13122 9.79583C7.13122 9.79583 7.13114 9.79606 7.13106 9.79614C6.36833 11.6358 7.24348 13.7531 9.08161 14.5158ZM8.21341 10.2452L10.9602 3.6295C11.2084 3.03067 11.6777 2.56341 12.2818 2.31349C12.8857 2.0638 13.5479 2.06294 14.1463 2.31122L18.7472 4.22396C21.0749 5.19028 22.474 7.46005 22.4548 9.83982C22.4542 9.85372 22.4537 9.86763 22.4541 9.88153C22.443 10.6207 22.2966 11.3697 21.9966 12.0929C21.7704 12.6384 21.4694 13.1392 21.1054 13.5856C21.095 13.5973 21.0851 13.6096 21.0757 13.6222C20.4571 14.3686 19.6597 14.959 18.7338 15.3418C17.2433 15.9584 15.609 15.9597 14.132 15.3461L9.53098 13.4334C8.28934 12.9183 7.69833 11.4881 8.21341 10.2452Z" fill="currentColor" />
  <path d="M39.9567 30.6935C39.7592 29.6699 38.8248 28.7619 37.1827 29.0377L27.8395 30.4742C27.077 30.5906 26.423 30.4604 25.6657 30.3097C25.3926 30.2554 25.1105 30.1992 24.8072 30.1511L18.9932 28.8463C18.1988 28.581 18.2634 28.0189 18.3026 27.8518C18.3856 27.4975 18.7195 27.1532 19.2538 27.2345C19.2588 27.2352 19.2637 27.2359 19.2685 27.2365C20.0193 27.331 20.5013 27.3746 21.1114 27.4298C21.4465 27.4601 21.8262 27.4943 22.3045 27.5424C22.4706 27.5593 22.6305 27.5674 22.7846 27.5674C24.56 27.5672 25.5466 26.4923 25.7437 25.3469C25.9723 24.0184 25.1887 22.4256 23.2488 21.9517C23.2377 21.9491 23.2267 21.9467 23.2155 21.9446L20.6993 21.4825C18.2325 21.0318 16.449 21.3906 12.9665 22.1782L6.92438 23.5449C6.91828 22.677 6.21109 21.9727 5.34211 21.9727H1.58289C0.710078 21.9727 0 22.6831 0 23.5561V27.3614C0 27.6851 0.262266 27.9474 0.585938 27.9474C0.909609 27.9474 1.17188 27.6851 1.17188 27.3614V23.5561C1.17188 23.3292 1.35625 23.1445 1.58289 23.1445H5.34211C5.56867 23.1445 5.75313 23.3292 5.75313 23.5561V24.2781V32.7128V33.4326C5.75313 33.6595 5.56875 33.8441 5.34211 33.8441H1.58289C1.35633 33.8441 1.17188 33.6595 1.17188 33.4326V30.1937C1.17188 29.87 0.909609 29.6077 0.585938 29.6077C0.262266 29.6077 0 29.87 0 30.1937V33.4326C0 34.3056 0.710078 35.0159 1.58289 35.0159H5.34211C6.20375 35.0159 6.90539 34.3234 6.92328 33.4657L12.8695 34.9756L19.7872 36.7358C20.1652 36.8516 20.9486 37.0446 21.9688 37.0446C22.4813 37.0446 23.0539 36.9959 23.6646 36.8641L37.742 33.8118C39.4342 33.4449 40.197 31.9381 39.9567 30.6935ZM37.4937 32.6667L23.4168 35.7188C21.8463 36.0574 20.5873 35.7568 20.119 35.6119C20.1095 35.6089 20.0998 35.6062 20.0902 35.6038L13.158 33.8399C13.158 33.8399 13.1578 33.8399 13.1577 33.8399L6.92492 32.257V24.7463L13.2249 23.3212C16.7981 22.5131 18.3502 22.2445 20.4882 22.6352L22.9864 23.094C24.2175 23.4017 24.7246 24.3584 24.5888 25.1481C24.4705 25.8363 23.8388 26.5196 22.4223 26.3763C21.9376 26.3276 21.5547 26.293 21.2168 26.2624C20.62 26.2085 20.1483 26.166 19.4219 26.0745C18.2119 25.8949 17.3696 26.697 17.1617 27.5842C16.9616 28.4383 17.3448 29.5491 18.6591 29.9698C18.6757 29.9751 18.6925 29.9797 18.7095 29.9835L24.5691 31.2986C24.5815 31.3013 24.594 31.3037 24.6066 31.3057C24.8934 31.3507 25.1696 31.4057 25.4369 31.4589C26.2666 31.6242 27.0505 31.7802 28.0171 31.6326L37.365 30.1954C37.368 30.1949 37.3709 30.1945 37.3738 30.1939C38.1694 30.0589 38.6916 30.3223 38.8062 30.9156C38.9367 31.5924 38.4721 32.4545 37.4937 32.6667Z" fill="currentColor" />
</svg>