<svg width="40" height="36" viewBox="0 0 40 36" fill="none" xmlns="http://www.w3.org/2000/svg">
  <path d="M11.2109 23.4883C10.8873 23.4883 10.625 23.7506 10.625 24.0742V25.1289C10.625 25.4525 10.8873 25.7148 11.2109 25.7148C11.5345 25.7148 11.7969 25.4525 11.7969 25.1289V24.0742C11.7969 23.7506 11.5345 23.4883 11.2109 23.4883Z" fill="currentColor" />
  <path d="M38.1494 31.2694H37.2007V15.0124C38.7722 14.7343 39.9698 13.3597 39.9698 11.7096V9.45367C39.9698 9.44219 39.9688 9.43094 39.9681 9.41961C39.9677 9.41328 39.9677 9.40695 39.9672 9.40063C39.9651 9.3775 39.9619 9.35477 39.9572 9.33258C39.957 9.33125 39.9565 9.33 39.9562 9.32875C39.9516 9.30742 39.9455 9.28664 39.9387 9.26625C39.937 9.26109 39.9349 9.25594 39.933 9.25086C39.9266 9.23336 39.9194 9.21633 39.9113 9.19969C39.9098 9.19664 39.9089 9.19344 39.9074 9.19047L37.3166 4.0382V1.34336C37.3166 0.647891 36.7508 0.0820312 36.0553 0.0820312H9.41063C9.08703 0.0820312 8.82469 0.344375 8.82469 0.667969C8.82469 0.991563 9.08703 1.25391 9.41063 1.25391H36.0553C36.1046 1.25391 36.1448 1.29406 36.1448 1.34336V3.5968H3.85523V1.34336C3.85523 1.29406 3.89539 1.25391 3.94469 1.25391H6.68437C7.00797 1.25391 7.27031 0.991563 7.27031 0.667969C7.27031 0.344375 7.00797 0.0820312 6.68437 0.0820312H3.94469C3.24922 0.0820312 2.68336 0.647891 2.68336 1.34336V4.0382L0.0926562 9.19047C0.0911719 9.19352 0.0901562 9.19672 0.08875 9.19969C0.0807031 9.21633 0.0735156 9.23336 0.0670312 9.25086C0.0651563 9.25601 0.063125 9.26109 0.0614063 9.26625C0.0545313 9.28664 0.0485156 9.30742 0.0439062 9.32875C0.0435937 9.33 0.0432031 9.33125 0.0428906 9.33258C0.0382031 9.35484 0.0349219 9.3775 0.0328906 9.40063C0.0323437 9.40695 0.0323437 9.41328 0.0319531 9.41961C0.0313281 9.43094 0.0302344 9.44219 0.0302344 9.45367V11.7096C0.0302344 13.3596 1.22789 14.7343 2.79938 15.0124V31.2694H1.85063C0.830156 31.2694 0 32.0996 0 33.1201V34.9734C0 35.4941 0.423672 35.9178 0.944453 35.9178H39.0555C39.5763 35.9178 40 35.4941 40 34.9734V33.1201C40 32.0996 39.1698 31.2694 38.1494 31.2694ZM38.7979 11.7097C38.7979 12.9135 37.8185 13.8929 36.6147 13.8929C35.4109 13.8929 34.4315 12.9135 34.4315 11.7097V10.0397H38.7979V11.7097ZM36.3723 4.76867L38.4334 8.86773H34.2577L32.7855 4.76867H36.3723ZM31.5403 4.76867L33.0125 8.86773H28.7805L27.8971 4.76867H31.5403ZM33.2597 10.0396V11.7096C33.2597 12.9134 32.2803 13.8928 31.0765 13.8928C29.8727 13.8928 28.8933 12.9134 28.8933 11.7096V10.0396H33.2597ZM26.6984 4.76867L27.5817 8.86773H23.3145L23.0201 4.76867H26.6984ZM27.7214 10.0396V11.7096C27.7214 12.9134 26.742 13.8928 25.5383 13.8928C24.3345 13.8928 23.3551 12.9134 23.3551 11.7096V10.0396H27.7214ZM18.1548 4.76867H21.8451L22.1395 8.86773H17.8604L18.1548 4.76867ZM17.8168 10.0396H22.1832V11.7096C22.1832 12.9134 21.2038 13.8928 20 13.8928C18.7962 13.8928 17.8168 12.9134 17.8168 11.7096V10.0396ZM20 15.0647C21.1488 15.0647 22.1641 14.4841 22.7691 13.6013C23.3741 14.4841 24.3895 15.0647 25.5383 15.0647C26.687 15.0647 27.7024 14.4841 28.3073 13.6013C28.9123 14.4841 29.9277 15.0647 31.0765 15.0647C32.2252 15.0647 33.2406 14.4841 33.8456 13.6013C34.3453 14.3305 35.1252 14.8525 36.0288 15.0124V31.2694H13.9716V18.2487C13.9716 17.6478 13.4827 17.1589 12.8817 17.1589H6.10758C5.50664 17.1589 5.01773 17.6478 5.01773 18.2487V31.2694H3.97125V15.0124C4.87484 14.8525 5.65477 14.3305 6.15445 13.6013C6.75945 14.4841 7.77484 15.0647 8.92359 15.0647C10.0723 15.0647 11.0877 14.4841 11.6927 13.6013C12.2977 14.4841 13.3131 15.0647 14.4618 15.0647C15.6105 15.0647 16.6259 14.4841 17.2309 13.6013C17.8359 14.4841 18.8512 15.0647 20 15.0647ZM12.7997 18.3308V31.2694H6.18961V18.3308H12.7997ZM6.74031 11.7097V10.0397H11.1067V11.7097C11.1067 12.9135 10.1273 13.8929 8.92352 13.8929C7.71969 13.8929 6.74031 12.9134 6.74031 11.7097ZM13.3016 4.76867H16.9799L16.6855 8.86773H12.4183L13.3016 4.76867ZM12.2786 10.0396H16.6449V11.7096C16.6449 12.9134 15.6655 13.8928 14.4617 13.8928C13.2579 13.8928 12.2786 12.9134 12.2786 11.7096V10.0396ZM12.1028 4.76867L11.2195 8.86773H6.98742L8.45961 4.76867H12.1028ZM3.62773 4.76867H7.21445L5.74227 8.86773H1.56664L3.62773 4.76867ZM1.20211 11.7097V10.0397H5.56852V11.7097C5.56852 12.9135 4.58914 13.8929 3.38531 13.8929C2.18148 13.8929 1.20211 12.9134 1.20211 11.7097ZM1.17188 34.7459V33.12C1.17188 32.7457 1.47633 32.4412 1.85063 32.4412H38.1493C38.5236 32.4412 38.828 32.7457 38.828 33.12V34.7459H1.17188Z" fill="currentColor" />
  <path d="M33.3416 17.1602H26.1766C25.853 17.1602 25.5906 17.4225 25.5906 17.7461C25.5906 18.0697 25.853 18.332 26.1766 18.332H33.2597V27.5535H16.3672V18.332H23.418C23.7416 18.332 24.0039 18.0697 24.0039 17.7461C24.0039 17.4225 23.7416 17.1602 23.418 17.1602H16.2852C15.6842 17.1602 15.1953 17.649 15.1953 18.25V27.6356C15.1953 28.2366 15.6842 28.7255 16.2852 28.7255H33.3416C33.9426 28.7255 34.4315 28.2366 34.4315 27.6356V18.25C34.4315 17.6491 33.9426 17.1602 33.3416 17.1602Z" fill="currentColor" />
</svg>