<svg width="40" height="40" viewBox="0 0 40 40" fill="none" xmlns="http://www.w3.org/2000/svg">
  <path d="M12.7383 12.2096C12.7383 14.1758 13.507 16.445 14.7946 18.2799C16.2563 20.363 18.1045 21.5101 19.9988 21.5101C21.893 21.5101 23.7412 20.363 25.2029 18.2799C26.4905 16.445 27.2592 14.1757 27.2592 12.2096C27.2592 8.20621 24.0022 4.94922 19.9988 4.94922C15.9954 4.94922 12.7383 8.20621 12.7383 12.2096ZM19.9988 6.21012C23.3069 6.21012 25.9983 8.90155 25.9983 12.2096C25.9983 13.9008 25.2981 15.9492 24.1709 17.5557C22.9696 19.2675 21.449 20.2492 19.9988 20.2492C18.5486 20.2492 17.0279 19.2675 15.8267 17.5557C14.6995 15.9493 13.9992 13.9008 13.9992 12.2096C13.9992 8.90146 16.6906 6.21012 19.9988 6.21012Z" fill="currentColor" />
  <path d="M25.4179 20.1042C25.1773 19.9896 24.8906 20.0388 24.7017 20.227C23.2916 21.6332 21.6657 22.3763 19.9998 22.3763C18.3336 22.3763 16.7082 21.6332 15.2989 20.2272C15.1101 20.0388 14.8232 19.9896 14.5826 20.1042C12.4598 21.1148 10.6631 22.6957 9.3868 24.676C8.0758 26.7103 7.38281 29.0704 7.38281 31.5013V31.5115C7.38281 31.6893 7.45796 31.859 7.58968 31.9785C10.9934 35.0653 15.4007 36.7653 19.9997 36.7653C24.5987 36.7653 29.006 35.0653 32.4096 31.9785C32.5414 31.859 32.6166 31.6894 32.6166 31.5115V31.5013C32.6166 29.0704 31.9238 26.7103 30.6131 24.6761C29.3372 22.6956 27.5406 21.1147 25.4179 20.1042ZM19.9999 35.5044C15.8086 35.5044 11.7885 33.9894 8.64699 31.2319C8.696 29.1391 9.31577 27.1141 10.4468 25.359C11.5178 23.6972 12.9957 22.3478 14.7387 21.4355C16.3145 22.8777 18.1251 23.6372 19.9999 23.6372C21.8744 23.6372 23.6852 22.8778 25.2619 21.4355C27.0048 22.3478 28.4824 23.6972 29.5534 25.359C30.6841 27.114 31.3037 29.139 31.3528 31.2319C28.2112 33.9894 24.1911 35.5044 19.9999 35.5044Z" fill="currentColor" />
  <path d="M38.2535 20.5026C37.1414 18.7767 35.5757 17.3989 33.7257 16.5183C33.4851 16.4037 33.1982 16.4529 33.0095 16.6411C31.8064 17.8407 30.4213 18.4748 29.0037 18.4748C28.2352 18.4748 27.4751 18.2895 26.7447 17.924C26.4332 17.7682 26.0547 17.8943 25.8988 18.2057C25.743 18.5171 25.8691 18.8958 26.1805 19.0516C27.0878 19.5056 28.0377 19.7357 29.0038 19.7357C30.6291 19.7357 32.1984 19.0854 33.5672 17.8497C35.0386 18.6313 36.2864 19.7775 37.1936 21.1856C38.1557 22.6788 38.6862 24.4003 38.7351 26.1801C37.178 27.5383 35.3262 28.5715 33.3629 29.1755C33.0301 29.2779 32.8432 29.6307 32.9456 29.9635C33.029 30.2346 33.2785 30.4087 33.548 30.4087C33.6093 30.4087 33.6719 30.3997 33.7336 30.3808C35.9619 29.6953 38.0572 28.501 39.7928 26.9269C39.9246 26.8074 39.9997 26.6378 39.9997 26.4599V26.451C39.9996 24.3324 39.3958 22.2754 38.2535 20.5026Z" fill="currentColor" />
  <path d="M10.9698 17.6921C11.6364 17.6921 12.3014 17.5295 12.9466 17.2089C13.2583 17.054 13.3855 16.6756 13.2306 16.3638C13.0757 16.0519 12.6972 15.9248 12.3855 16.0797C11.9162 16.3129 11.44 16.4311 10.9698 16.4311C9.74749 16.4311 8.46179 15.5977 7.44231 14.1447C6.47991 12.773 5.88199 11.025 5.88199 9.58309C5.88199 6.77759 8.16439 4.49519 10.9698 4.49519C12.2939 4.49519 13.5479 5.0014 14.5008 5.92068C14.7513 6.16235 15.1505 6.15537 15.3922 5.90471C15.634 5.65412 15.6268 5.25501 15.3762 5.01334C14.1871 3.86617 12.6222 3.23438 10.9698 3.23438C7.46904 3.23438 4.62109 6.08241 4.62109 9.58317C4.62109 11.2963 5.28996 13.2723 6.41014 14.8689C7.68743 16.6894 9.30676 17.6921 10.9698 17.6921Z" fill="currentColor" />
  <path d="M5.13051 28.5937C3.72226 27.9866 2.42303 27.1671 1.26468 26.1556C1.3136 24.381 1.84259 22.6646 2.80222 21.1757C3.70679 19.772 4.95088 18.6292 6.41764 17.8498C7.78269 19.0823 9.34763 19.7307 10.9686 19.7307C11.9426 19.7307 12.8993 19.4966 13.8122 19.0349C14.1229 18.8777 14.2474 18.4985 14.0903 18.1878C13.9332 17.877 13.5539 17.7526 13.2431 17.9097C12.5083 18.2813 11.743 18.4698 10.9686 18.4698C9.55543 18.4698 8.17458 17.8375 6.97538 16.6411C6.78658 16.4529 6.49977 16.4037 6.2591 16.5183C4.41365 17.3968 2.85182 18.7711 1.74231 20.4926C0.602457 22.2613 0 24.3132 0 26.4266V26.4352C0 26.6131 0.0751496 26.7827 0.206871 26.9023C1.52064 28.0937 3.00926 29.0524 4.63128 29.7516C4.71265 29.7867 4.7973 29.8033 4.8806 29.8033C5.12471 29.8033 5.35706 29.6607 5.45986 29.4223C5.59764 29.1025 5.45019 28.7316 5.13051 28.5937Z" fill="currentColor" />
  <path d="M5.87236 29.5062C5.64784 30.0478 6.25332 30.5849 6.76483 30.2953C7.03701 30.1411 7.15848 29.7962 7.03609 29.5064C6.83376 28.9898 6.07965 29.006 5.87236 29.5062Z" fill="currentColor" />
  <path d="M7.03553 29.5034C7.0204 29.4648 7.0515 29.5413 7.03553 29.5034V29.5034Z" fill="currentColor" />
  <path d="M25.4979 5.92068C26.4508 5.0014 27.7048 4.49519 29.0289 4.49519C31.8343 4.49519 34.1167 6.77759 34.1167 9.58309C34.1167 11.025 33.5189 12.7729 32.5563 14.1447C31.5368 15.5977 30.2511 16.4311 29.0288 16.4311C28.5587 16.4311 28.0824 16.3129 27.6132 16.0797C27.3012 15.9247 26.9229 16.0519 26.7679 16.3638C26.613 16.6756 26.7402 17.0539 27.052 17.2089C27.6971 17.5295 28.3622 17.6921 29.0288 17.6921C30.6918 17.6921 32.3112 16.6895 33.5885 14.8689C34.7088 13.2723 35.3775 11.2963 35.3775 9.58317C35.3775 6.08241 32.5295 3.23438 29.0288 3.23438C27.3765 3.23438 25.8116 3.86617 24.6224 5.01334C24.3718 5.25501 24.3647 5.65421 24.6064 5.90471C24.848 6.15529 25.2472 6.16244 25.4979 5.92068Z" fill="currentColor" />
</svg>