<svg width="18" height="17" viewBox="0 0 18 17" fill="none" xmlns="http://www.w3.org/2000/svg">
  <path d="M4.38047 13.8333L0.667969 16.75V1.33333C0.667969 1.11232 0.755766 0.900358 0.912046 0.744078C1.06833 0.587797 1.28029 0.5 1.5013 0.5H16.5013C16.7223 0.5 16.9343 0.587797 17.0906 0.744078C17.2468 0.900358 17.3346 1.11232 17.3346 1.33333V13C17.3346 13.221 17.2468 13.433 17.0906 13.5893C16.9343 13.7455 16.7223 13.8333 16.5013 13.8333H4.38047ZM3.8038 12.1667H15.668V2.16667H2.33464V13.3208L3.8038 12.1667ZM8.16797 6.33333H9.83463V8H8.16797V6.33333ZM4.83464 6.33333H6.5013V8H4.83464V6.33333ZM11.5013 6.33333H13.168V8H11.5013V6.33333Z" fill="currentColor" />
</svg>