<svg width="40" height="40" viewBox="0 0 40 40" fill="none" xmlns="http://www.w3.org/2000/svg">
  <path d="M11.4467 30.0923C11.2019 30.1687 11.0352 30.3953 11.0352 30.6517V36.5749C11.0352 36.8986 11.2975 37.1609 11.6211 37.1609C11.9447 37.1609 12.207 36.8986 12.207 36.5749V32.5313L15.144 36.7841C15.3223 37.0418 15.6174 37.152 15.8956 37.0653C16.181 36.9762 16.3655 36.7052 16.3654 36.3693L16.31 30.635C16.3069 30.3134 16.0452 30.0547 15.7242 30.0547C15.7223 30.0547 15.7204 30.0547 15.7184 30.0547C15.3948 30.0578 15.1351 30.3227 15.1382 30.6462L15.178 34.7713L12.1033 30.3188C11.9575 30.1077 11.6916 30.0159 11.4467 30.0923Z" fill="currentColor" />
  <path d="M26.3139 30.0923C26.0691 30.1687 25.9023 30.3953 25.9023 30.6517V36.5749C25.9023 36.8986 26.1647 37.1609 26.4883 37.1609C26.8119 37.1609 27.0742 36.8986 27.0742 36.5749V32.5313L30.0112 36.7842C30.1895 37.0418 30.4847 37.1519 30.7629 37.0653C31.0483 36.9761 31.2327 36.7052 31.2326 36.3693L31.1772 30.635C31.1741 30.3134 30.9123 30.0547 30.5914 30.0547C30.5895 30.0547 30.5876 30.0547 30.5856 30.0547C30.262 30.0578 30.0023 30.3227 30.0054 30.6462L30.0452 34.7713L26.9705 30.3188C26.8248 30.1077 26.5588 30.0162 26.3139 30.0923Z" fill="currentColor" />
  <path d="M18.7266 30.0625C18.403 30.0625 18.1406 30.3248 18.1406 30.6484V36.5602C18.1406 36.8456 18.3462 37.0895 18.6275 37.1377C18.7689 37.1622 20.5887 37.1474 20.8017 37.1462C21.1253 37.1444 21.3862 36.8806 21.3844 36.557C21.3826 36.2345 21.1206 35.9743 20.7985 35.9743C20.7974 35.9743 20.7962 35.9743 20.7952 35.9743C20.2746 35.9772 19.7138 35.9792 19.3125 35.9793V30.6484C19.3125 30.3248 19.0502 30.0625 18.7266 30.0625Z" fill="currentColor" />
  <path d="M23.0039 30.6484V36.5652C23.0039 36.8889 23.2662 37.1512 23.5898 37.1512C23.9134 37.1512 24.1758 36.8889 24.1758 36.5652V30.6484C24.1758 30.3248 23.9134 30.0625 23.5898 30.0625C23.2662 30.0625 23.0039 30.3248 23.0039 30.6484Z" fill="currentColor" />
  <path d="M35.7633 31.2617C36.0869 31.2617 36.3492 30.9995 36.3492 30.6758C36.3492 30.3521 36.0869 30.0898 35.7633 30.0898H33.293C32.9694 30.0898 32.707 30.3521 32.707 30.6758V36.5386C32.707 36.8623 32.9694 37.1245 33.293 37.1245H35.7633C36.0869 37.1245 36.3492 36.8623 36.3492 36.5386C36.3492 36.2149 36.0869 35.9527 35.7633 35.9527H33.8789V34.1931H35.5812C35.9048 34.1931 36.1671 33.9309 36.1671 33.6072C36.1671 33.2835 35.9048 33.0213 35.5812 33.0213H33.8789V31.2618H35.7633V31.2617Z" fill="currentColor" />
  <path d="M2.60938 33.6068C2.60938 35.5612 4.19937 37.1512 6.15375 37.1512C8.10813 37.1512 9.69805 35.5611 9.69805 33.6068C9.69805 31.6525 8.10805 30.0625 6.15375 30.0625C4.19945 30.0625 2.60938 31.6524 2.60938 33.6068ZM8.52617 33.6068C8.52617 34.915 7.46187 35.9793 6.15375 35.9793C4.84562 35.9793 3.78125 34.915 3.78125 33.6068C3.78125 32.2987 4.84555 31.2344 6.15375 31.2344C7.46195 31.2344 8.52617 32.2987 8.52617 33.6068Z" fill="currentColor" />
  <path d="M12.8043 19.6535C12.8467 19.9451 13.0972 20.1551 13.3835 20.1551C13.4115 20.1551 13.44 20.1531 13.4686 20.1489C13.7889 20.1023 14.0106 19.805 13.964 19.4846L12.9666 12.6343C12.9199 12.3141 12.6225 12.0926 12.3024 12.1389C11.9821 12.1856 11.7603 12.4829 11.807 12.8032L12.8043 19.6535Z" fill="currentColor" />
  <path d="M17.7929 20.155C17.8025 20.155 17.8121 20.1548 17.8218 20.1543C18.145 20.1386 18.3943 19.8639 18.3786 19.5407L18.0462 12.6904C18.0305 12.3672 17.7584 12.1175 17.4325 12.1335C17.1093 12.1493 16.86 12.424 16.8757 12.7471L17.2081 19.5975C17.2234 19.911 17.4823 20.155 17.7929 20.155Z" fill="currentColor" />
  <path d="M22.1786 20.1542C22.1883 20.1547 22.1979 20.1549 22.2075 20.1549C22.518 20.1549 22.7771 19.9109 22.7923 19.5973L23.1247 12.747C23.1404 12.4238 22.8911 12.1491 22.5679 12.1334C22.2434 12.1187 21.9699 12.367 21.9542 12.6903L21.6218 19.5406C21.6061 19.8637 21.8554 20.1385 22.1786 20.1542Z" fill="currentColor" />
  <path d="M26.5328 20.1453C26.5614 20.1495 26.5898 20.1514 26.6179 20.1514C26.9042 20.1514 27.1546 19.9414 27.1971 19.6499L28.1945 12.7996C28.2411 12.4793 28.0193 12.1819 27.6991 12.1353C27.3785 12.0879 27.0814 12.3104 27.0349 12.6307L26.0375 19.481C25.9907 19.8012 26.2125 20.0986 26.5328 20.1453Z" fill="currentColor" />
  <path d="M37.7823 27.2148H32.4702C32.1466 27.2148 31.8843 27.4771 31.8843 27.8008C31.8843 28.1245 32.1466 28.3867 32.4702 28.3867H37.7823C38.359 28.3867 38.8281 28.8559 38.8281 29.4326V37.7789C38.8281 38.3556 38.359 38.8248 37.7823 38.8248H2.21766C1.64102 38.8248 1.17188 38.3556 1.17188 37.7789V29.4326C1.17188 28.8559 1.64102 28.3867 2.21766 28.3867H29.7316C30.0552 28.3867 30.3175 28.1245 30.3175 27.8008C30.3175 27.4771 30.0552 27.2148 29.7316 27.2148H2.21766C0.994844 27.2148 0 28.2098 0 29.4326V37.7789C0 39.0017 0.994844 39.9966 2.21766 39.9966H37.7823C39.0052 39.9966 40 39.0018 40 37.7789V29.4326C40 28.2098 39.0052 27.2148 37.7823 27.2148Z" fill="currentColor" />
  <path d="M5.83547 10.3454H6.38422L8.49805 21.2876C8.74383 22.5594 9.86227 23.4825 11.1576 23.4825H28.8636C30.1589 23.4825 31.2773 22.5594 31.5231 21.2876L33.637 10.3454H34.1623C34.9504 10.3454 35.5916 9.70421 35.5916 8.91608V7.7789C35.5916 6.99077 34.9504 6.3496 34.1623 6.3496H27.1345L21.2125 0.49874C20.5434 -0.160869 19.4545 -0.160947 18.7862 0.497959L12.8286 6.34952H10.7809C10.4573 6.34952 10.195 6.61179 10.195 6.93546C10.195 7.25913 10.4573 7.5214 10.7809 7.5214H34.1624C34.3043 7.5214 34.4198 7.63694 34.4198 7.77882V8.91601C34.4198 9.05788 34.3043 9.17343 34.1624 9.17343C32.9571 9.17343 8.54945 9.17343 5.83555 9.17343C5.69367 9.17343 5.5782 9.05788 5.5782 8.91601V7.7789C5.5782 7.63702 5.69367 7.52147 5.83555 7.52147H8.04219C8.36578 7.52147 8.62813 7.25921 8.62813 6.93554C8.62813 6.61186 8.36578 6.3496 8.04219 6.3496H5.83547C5.04742 6.3496 4.40625 6.99077 4.40625 7.7789V8.91608C4.40625 9.70421 5.04742 10.3454 5.83547 10.3454ZM14.5009 6.3496L19.608 1.33327C19.8236 1.12085 20.1743 1.12093 20.3893 1.3328L25.4672 6.3496H14.5009ZM32.4434 10.3454L30.3726 21.0652C30.2331 21.7868 29.5985 22.3105 28.8637 22.3105H11.1576C10.4227 22.3105 9.78805 21.7868 9.64867 21.0652L7.57773 10.3454H32.4434Z" fill="currentColor" />
</svg>