<svg width="40" height="40" viewBox="0 0 40 40" fill="none" xmlns="http://www.w3.org/2000/svg">
  <path d="M32.7348 10.8135L28.9575 7.03617V2.37672C28.9575 1.06617 27.8913 0 26.5809 0H2.94313C1.63258 0 0.566406 1.06617 0.566406 2.37672V8.77133C0.566406 9.095 0.82875 9.35727 1.15234 9.35727C1.47594 9.35727 1.73828 9.095 1.73828 8.77133V2.37672C1.73828 1.71234 2.27875 1.17188 2.94313 1.17188H26.5809C27.2452 1.17188 27.7856 1.71234 27.7856 2.37672V5.86438L25.3212 3.39992C25.2085 3.28727 25.0545 3.22836 24.9069 3.22836C24.1379 3.22836 7.99422 3.22836 6.89211 3.22836C5.58164 3.22836 4.51547 4.29445 4.51547 5.605V35.5999H2.94313C2.27883 35.5999 1.73836 35.0595 1.73836 34.3951V11.5126C1.73836 11.1889 1.47602 10.9266 1.15242 10.9266C0.828828 10.9266 0.566484 11.1889 0.566484 11.5126V34.395C0.566484 35.7055 1.63266 36.7717 2.94313 36.7717H4.51539V37.6233C4.51539 38.9338 5.58156 40 6.89203 40H16.2784C16.602 40 16.8644 39.7377 16.8644 39.4141C16.8644 39.0904 16.602 38.8281 16.2784 38.8281H6.89203C6.22773 38.8281 5.68727 38.2877 5.68727 37.6233C5.68727 37.342 5.68727 5.95133 5.68727 5.60492C5.68727 4.94062 6.22773 4.40016 6.89203 4.40016H24.3209V9.43711C24.3209 10.7476 25.3871 11.8138 26.6976 11.8138H31.7345V37.6233C31.7345 38.2877 31.1941 38.8281 30.5298 38.8281H19.0128C18.6892 38.8281 18.4269 39.0904 18.4269 39.4141C18.4269 39.7377 18.6892 40 19.0128 40H30.5298C31.8402 40 32.9064 38.9338 32.9064 37.6233V11.2279C32.9065 11.0793 32.8476 10.9263 32.7348 10.8135ZM26.6976 10.642C26.0333 10.642 25.4928 10.1015 25.4928 9.43711V5.22883C26.1172 5.8532 30.0023 9.73836 30.9059 10.642H26.6976Z" fill="currentColor" />
  <path d="M10.6055 12.6172H22.4052C22.7287 12.6172 22.9911 12.3549 22.9911 12.0312C22.9911 11.7076 22.7287 11.4453 22.4052 11.4453H10.6055C10.2819 11.4453 10.0195 11.7076 10.0195 12.0312C10.0195 12.3549 10.2819 12.6172 10.6055 12.6172Z" fill="currentColor" />
  <path d="M10.6055 22.1641H26.8166C27.1402 22.1641 27.4026 21.9018 27.4026 21.5781C27.4026 21.2545 27.1402 20.9922 26.8166 20.9922H10.6055C10.2819 20.9922 10.0195 21.2545 10.0195 21.5781C10.0195 21.9018 10.2819 22.1641 10.6055 22.1641Z" fill="currentColor" />
  <path d="M10.6055 25.4609H26.8166C27.1402 25.4609 27.4026 25.1987 27.4026 24.875C27.4026 24.5513 27.1402 24.2891 26.8166 24.2891H10.6055C10.2819 24.2891 10.0195 24.5513 10.0195 24.875C10.0195 25.1987 10.2819 25.4609 10.6055 25.4609Z" fill="currentColor" />
  <path d="M27.4034 28.1719C27.4034 27.8482 27.141 27.5859 26.8174 27.5859H20.457C20.1334 27.5859 19.8711 27.8482 19.8711 28.1719C19.8711 28.4955 20.1334 28.7578 20.457 28.7578H26.8174C27.141 28.7578 27.4034 28.4955 27.4034 28.1719Z" fill="currentColor" />
  <path d="M10.6055 18.6211H26.8166C27.1402 18.6211 27.4026 18.3588 27.4026 18.0352C27.4026 17.7115 27.1402 17.4492 26.8166 17.4492H10.6055C10.2819 17.4492 10.0195 17.7115 10.0195 18.0352C10.0195 18.3588 10.2819 18.6211 10.6055 18.6211Z" fill="currentColor" />
  <path d="M25.2439 31.4068L23.9283 33.2582C23.8961 33.3034 23.8297 33.2971 23.8061 33.2476C23.5953 32.808 23.1593 32.531 22.6567 32.5425C22.1619 32.5539 21.7343 32.844 21.5409 33.2997L21.0154 34.5383C20.889 34.8361 21.0281 35.1801 21.326 35.3065C21.6244 35.4329 21.968 35.2934 22.0942 34.9958L22.6197 33.7572C22.6438 33.7008 22.7226 33.6987 22.7494 33.7543C22.9416 34.1554 23.321 34.4175 23.7642 34.4554C24.2071 34.4932 24.6258 34.2996 24.8835 33.937L26.1991 32.0856C26.3865 31.8218 26.3247 31.456 26.0608 31.2686C25.7972 31.081 25.4313 31.143 25.2439 31.4068Z" fill="currentColor" />
  <path d="M38.5852 10.0969V7.78281C38.5852 7.24563 38.1482 6.80859 37.6111 6.80859H36.1299C35.5928 6.80859 35.1558 7.24563 35.1558 7.78281V10.0969C34.6674 10.2214 34.3047 10.6636 34.3047 11.1902V30.886C34.3047 30.9612 34.3209 31.0458 34.3549 31.1228C34.3555 31.1241 34.3558 31.1254 34.3563 31.1266L35.9114 34.5795C36.284 35.4067 37.4574 35.4053 37.8295 34.5795L39.3845 31.1266C39.3851 31.1254 39.3854 31.1241 39.3859 31.1228C39.4205 31.0447 39.4362 30.9579 39.4362 30.886V25.8196C39.4362 25.4959 39.1738 25.2337 38.8502 25.2337C38.5266 25.2337 38.2643 25.4959 38.2643 25.8196V30.3001H35.4764V13.8168H38.2643V23.0854C38.2643 23.4091 38.5266 23.6713 38.8502 23.6713C39.1738 23.6713 39.4362 23.4091 39.4362 23.0854V11.1902C39.4363 10.6637 39.0736 10.2214 38.5852 10.0969ZM36.3277 7.98055H37.4134V10.0608H36.3277V7.98055ZM37.9439 31.472L36.8705 33.8553L35.7972 31.472H37.9439ZM35.4766 12.6449V11.2327H38.2645V12.6449H35.4766Z" fill="currentColor" />
</svg>