<svg width="40" height="40" viewBox="0 0 40 40" fill="none" xmlns="http://www.w3.org/2000/svg">
  <path d="M15.8203 3.51562C16.1439 3.51562 16.4062 3.25329 16.4062 2.92969C16.4062 2.60608 16.1439 2.34375 15.8203 2.34375C15.4967 2.34375 15.2344 2.60608 15.2344 2.92969C15.2344 3.25329 15.4967 3.51562 15.8203 3.51562Z" fill="currentColor" />
  <path d="M8.78906 3.51562C9.11267 3.51562 9.375 3.25329 9.375 2.92969C9.375 2.60608 9.11267 2.34375 8.78906 2.34375C8.46546 2.34375 8.20312 2.60608 8.20312 2.92969C8.20312 3.25329 8.46546 3.51562 8.78906 3.51562Z" fill="currentColor" />
  <path d="M29.5703 19.8438H15.5859C15.2623 19.8438 15 20.106 15 20.4297V23.7109C15 24.0346 15.2623 24.2969 15.5859 24.2969H29.5703C29.894 24.2969 30.1562 24.0346 30.1562 23.7109V20.4297C30.1562 20.106 29.894 19.8438 29.5703 19.8438ZM28.9844 23.125H16.1719V21.0156H28.9844V23.125Z" fill="currentColor" />
  <path d="M13.4766 2.34375H11.1328C10.8091 2.34375 10.5469 2.60602 10.5469 2.92969C10.5469 3.25336 10.8091 3.51562 11.1328 3.51562H13.4766C13.8002 3.51562 14.0625 3.25336 14.0625 2.92969C14.0625 2.60602 13.8002 2.34375 13.4766 2.34375Z" fill="currentColor" />
  <path d="M37.8516 9.375H24.6094V2.92969C24.6094 1.31422 23.2952 0 21.6797 0H2.92969C1.31422 0 0 1.31422 0 2.92969V37.0703C0 38.6858 1.31422 40 2.92969 40H21.6797C23.2952 40 24.6094 38.6858 24.6094 37.0703V32.3828C24.6094 32.0591 24.3471 31.7969 24.0234 31.7969C23.6998 31.7969 23.4375 32.0591 23.4375 32.3828V34.1406H1.17188V5.85938H23.4375V9.375H13.8672C12.6826 9.375 11.7188 10.3388 11.7188 11.5234V28.4766C11.7188 29.6612 12.6826 30.625 13.8672 30.625H37.8516C39.0362 30.625 40 29.6612 40 28.4766V11.5234C40 10.3388 39.0362 9.375 37.8516 9.375ZM23.4375 35.3125V37.0703C23.4375 38.0395 22.6489 38.8281 21.6797 38.8281H2.92969C1.96047 38.8281 1.17188 38.0395 1.17188 37.0703V35.3125H23.4375ZM1.17188 4.6875V2.92969C1.17188 1.96047 1.96047 1.17188 2.92969 1.17188H21.6797C22.6489 1.17188 23.4375 1.96047 23.4375 2.92969V4.6875H1.17188ZM13.8672 10.5469H37.8516C38.3901 10.5469 38.8281 10.9849 38.8281 11.5234V12.6562H12.8906V11.5234C12.8906 10.9849 13.3287 10.5469 13.8672 10.5469ZM38.8281 13.8281V16.5625H12.8906V13.8281H38.8281ZM37.8516 29.4531H13.8672C13.3287 29.4531 12.8906 29.0151 12.8906 28.4766V17.7344H38.8281V28.4766C38.8281 29.0151 38.3901 29.4531 37.8516 29.4531Z" fill="currentColor" />
  <path d="M36.1328 19.8438H32.8516C32.5279 19.8438 32.2656 20.106 32.2656 20.4297C32.2656 20.7534 32.5279 21.0156 32.8516 21.0156H36.1328C36.4565 21.0156 36.7188 20.7534 36.7188 20.4297C36.7188 20.106 36.4565 19.8438 36.1328 19.8438Z" fill="currentColor" />
</svg>