<svg width="40" height="40" viewBox="0 0 40 40" fill="none" xmlns="http://www.w3.org/2000/svg">
  <path d="M33.0098 21.1406C32.6883 21.1406 32.4277 21.4012 32.4277 21.7227C32.4277 22.1303 32.0961 22.4619 31.6885 22.4619C31.281 22.4619 30.9494 22.1303 30.9494 21.7227C30.9494 21.4012 30.6887 21.1406 30.3673 21.1406C30.0458 21.1406 29.7852 21.4012 29.7852 21.7227C29.7852 22.7723 30.6391 23.6261 31.6885 23.6261C32.738 23.6261 33.5919 22.7722 33.5919 21.7227C33.5919 21.4011 33.3312 21.1406 33.0098 21.1406Z" fill="currentColor" />
  <path d="M38.4722 21.2355L36.8337 20.7107C36.6239 20.6434 36.4585 20.4759 36.3914 20.2626C36.0461 19.1647 35.525 18.134 34.8426 17.199C34.5316 16.7728 34.1857 16.3659 33.8079 15.9784C34.0496 14.918 34.181 13.718 34.164 12.6812C34.1396 11.198 33.8432 10.328 33.2579 10.0215C32.9427 9.85617 31.9833 9.35398 26.7905 11.731C26.6676 11.7873 26.5527 11.8566 26.4464 11.9359C26.0963 11.8419 25.7385 11.7548 25.3785 11.6767C25.3352 11.6673 25.2905 11.6589 25.2468 11.6497C25.6676 10.7305 25.9133 9.73211 25.9595 8.70148C25.9738 8.38023 25.7252 8.1082 25.4039 8.09391C25.0835 8.07797 24.8106 8.32812 24.7963 8.64937C24.7205 10.344 24.0175 11.9384 22.817 13.139C22.0998 13.8562 21.2599 14.3773 20.3648 14.7054C18.8126 14.4876 17.2315 14.4876 15.6792 14.7054C14.7841 14.3773 13.9443 13.8562 13.227 13.139C11.9462 11.8582 11.2409 10.1553 11.2409 8.34398C11.2409 6.53258 11.9462 4.82977 13.227 3.54898C14.5078 2.26813 16.2108 1.56273 18.022 1.56273C19.8333 1.56273 21.5363 2.26813 22.817 3.54898C23.3317 4.06367 23.757 4.65102 24.0812 5.29453C24.2258 5.58172 24.5759 5.69734 24.863 5.55266C25.1502 5.40812 25.2657 5.05805 25.1211 4.77094C24.7412 4.01633 24.243 3.32828 23.6404 2.72563C22.1397 1.22492 20.1444 0.398438 18.0221 0.398438C15.8998 0.398438 13.9045 1.22492 12.4038 2.72563C10.9031 4.22641 10.0766 6.22164 10.0766 8.34391C10.0766 10.4662 10.9031 12.4615 12.4038 13.9622C12.8367 14.3951 13.3077 14.7673 13.8058 15.0792C13.8059 15.0792 13.8061 15.0791 13.8062 15.0791C13.4443 15.1732 13.0851 15.2788 12.7298 15.3976C12.4249 15.4995 12.2604 15.8293 12.3623 16.1343C12.4642 16.4392 12.7941 16.6038 13.099 16.5019C16.2737 15.4405 19.7705 15.4405 22.9452 16.5019C23.0065 16.5223 23.0687 16.532 23.1298 16.532C23.3734 16.532 23.6004 16.378 23.6819 16.1343C23.7838 15.8294 23.6193 15.4995 23.3144 15.3976C22.9591 15.2788 22.5999 15.1731 22.238 15.0791C22.2381 15.0791 22.2383 15.0792 22.2384 15.0792C22.7366 14.7673 23.2075 14.3951 23.6404 13.9622C24.0234 13.5792 24.3614 13.161 24.6549 12.7166C24.8154 12.7477 24.9747 12.7804 25.1316 12.8145C25.3407 12.8598 25.5488 12.9086 25.7551 12.9598C25.7486 12.9851 25.742 13.0103 25.7366 13.036C25.4527 14.3833 25.4711 15.5748 25.7913 16.5774C26.0791 17.4786 26.5986 18.2087 27.3351 18.7475C28.2031 19.3825 29.2511 19.6568 30.2004 19.6568C30.9148 19.6568 31.5735 19.5013 32.0573 19.2273C32.6045 18.9174 33.0629 18.2644 33.4258 17.2839C33.5935 17.4797 33.7525 17.6802 33.9023 17.8855C34.5099 18.7179 34.9738 19.6352 35.2809 20.612C35.4613 21.1856 35.9091 21.637 36.4788 21.8196L38.1172 22.3445C38.5471 22.4822 38.8359 22.8779 38.8359 23.3293V26.0461C38.8359 26.4975 38.5471 26.8932 38.1172 27.0309L35.4774 27.8765C35.0551 28.0119 34.6977 28.3021 34.471 28.6938C33.4339 30.4862 31.8034 31.9694 29.6244 33.1023C29.3727 33.2333 29.1983 33.4676 29.1458 33.7452L28.3003 38.222C28.277 38.3454 28.1689 38.4348 28.0434 38.4348H25.2944C25.1688 38.4348 25.0608 38.3453 25.0374 38.222L24.5691 35.7479C24.477 35.2611 24.0204 34.9377 23.529 35.0122C22.3448 35.1912 21.1247 35.282 19.9026 35.282C18.9934 35.282 18.0958 35.2313 17.2346 35.1312C16.7584 35.0764 16.3148 35.401 16.2259 35.8712L15.7809 38.222C15.7575 38.3454 15.6495 38.4348 15.5239 38.4348H12.7749C12.6494 38.4348 12.5413 38.3453 12.5177 38.2202L11.7036 33.9919C11.6512 33.7195 11.4801 33.4878 11.2339 33.3563C7.51953 31.3734 5.55625 28.0606 5.55625 23.7763C5.55625 21.6116 6.02984 19.6974 6.96383 18.0868C7.83539 16.5837 9.10836 15.341 10.7473 14.393C11.0256 14.232 11.1207 13.8759 10.9598 13.5975C10.7988 13.3192 10.4427 13.2243 10.1644 13.3851C6.98633 15.2235 5.06953 18.0598 4.5418 21.6621V21.662C4.48578 21.657 4.42969 21.6521 4.37383 21.6463C4.38398 21.2577 4.31367 20.8655 4.16055 20.4848C3.82281 19.6453 3.12906 19.0394 2.39305 18.9412C1.81305 18.8635 1.26109 19.1098 0.878047 19.6159C0.322656 20.3498 0.413203 20.9305 0.586875 21.2885C0.880078 21.8927 1.63375 22.32 2.88445 22.5887C2.85008 22.6402 2.81227 22.6919 2.77086 22.7438C2.03187 23.6706 1.16125 23.8755 0.595937 23.8948C0.265 23.906 0 24.1717 0 24.5029V24.5057C0 24.8323 0.257734 25.0988 0.584062 25.1137C0.625859 25.1156 0.669531 25.1166 0.715 25.1166C1.43031 25.1166 2.57836 24.8528 3.68133 23.4698C3.85547 23.2515 3.99734 23.0212 4.10641 22.7832C4.21625 22.7956 4.3218 22.8062 4.42289 22.8156C4.42289 22.8154 4.42289 22.8152 4.42297 22.815C4.40312 23.1305 4.39211 23.4505 4.39211 23.7763C4.39211 26.2003 4.97 28.3616 6.10961 30.2005C7.16039 31.8958 8.66484 33.2839 10.5827 34.3278L11.3741 38.4384C11.5013 39.1109 12.0905 39.5991 12.7749 39.5991H15.5239C16.2084 39.5991 16.7975 39.1109 16.9248 38.4384L17.3271 36.3128C18.1627 36.4013 19.0279 36.4462 19.9025 36.4462C21.1025 36.4462 22.3011 36.3626 23.4692 36.1976L23.8934 38.4386C24.0207 39.1111 24.6098 39.5991 25.2942 39.5991H28.0432C28.7277 39.5991 29.3168 39.111 29.4441 38.4383L30.2673 34.0796C32.593 32.8498 34.3459 31.2344 35.4786 29.2769C35.5602 29.1358 35.6859 29.0323 35.8325 28.9853L38.4722 28.1398C39.386 27.8469 40 27.0055 40 26.0459V23.3291C40 22.3696 39.386 21.5283 38.4722 21.2355ZM32.9123 14.317C32.6883 16.2331 32.0873 17.8722 31.4834 18.2142C30.797 18.603 29.2122 18.6781 28.0223 17.8077C26.8311 16.9363 26.4346 15.3693 26.8756 13.276C26.8756 13.2759 26.8756 13.2759 26.8756 13.2759C26.9199 13.0657 27.0693 12.8838 27.2752 12.7896C30.1895 11.4555 31.8698 11.0192 32.494 11.0192C32.5882 11.0192 32.6584 11.0291 32.7051 11.0474C32.8926 11.2473 33.1385 12.3833 32.9123 14.317ZM1.63445 20.7802C1.57422 20.6559 1.71641 20.4376 1.80656 20.3184C1.94945 20.1296 2.08109 20.091 2.18055 20.091C2.20156 20.091 2.22117 20.0927 2.23914 20.0952C2.5068 20.1309 2.8818 20.4254 3.08047 20.9192C3.12727 21.0355 3.18805 21.228 3.20227 21.4682C2.39641 21.3013 1.77031 21.0605 1.63445 20.7802Z" fill="currentColor" />
</svg>