<svg width="32" height="32" viewBox="0 0 32 32" fill="none" xmlns="http://www.w3.org/2000/svg">
<path d="M10.9097 21.089C8.08638 18.2727 6.13019 14.7056 5.27324 10.8108C5.07861 9.80876 5.261 8.77016 5.78538 7.8944C6.30976 7.01864 7.13918 6.36746 8.11437 6.06589L10.059 5.44418L12.637 10.3629L10.1002 12.8996L9.48645 13.5133L9.8798 14.287C11.5804 17.672 14.3269 20.4184 17.7118 22.1189L18.4855 22.5123L19.0992 21.8986L21.6359 19.3617L26.5549 21.9394L25.9331 23.884C25.6316 24.8593 24.9805 25.6888 24.1047 26.2133C23.2289 26.7377 22.1903 26.9201 21.1883 26.7255C17.2934 25.8686 13.7262 23.9125 10.9097 21.089ZM10.0643 21.9344C13.041 24.9207 16.8129 26.989 20.9313 27.8932C22.2246 28.155 23.569 27.927 24.7035 27.2534C25.8381 26.5799 26.6821 25.5088 27.0717 24.2482L28 21.3458L21.4122 17.8952L18.2532 21.0532C15.0942 19.4674 12.5313 16.9046 10.9456 13.7456L14.1036 10.5878L10.6529 4L7.75054 4.92827C6.49015 5.31785 5.41937 6.16165 4.74587 7.296C4.07237 8.43035 3.84415 9.77441 4.10549 11.0675C5.00979 15.1858 7.07807 18.9576 10.0643 21.9343V21.9344Z" fill="currentColor"/>
</svg>
