<svg width="20" height="21" viewBox="0 0 20 21" fill="none" xmlns="http://www.w3.org/2000/svg">
<path d="M16.6654 13.9915V16.6108C16.6655 16.7983 16.5944 16.9789 16.4665 17.1161C16.3387 17.2533 16.1636 17.3369 15.9765 17.35C15.6528 17.3723 15.3883 17.3841 15.1839 17.3841C8.63796 17.3841 3.33203 12.0782 3.33203 5.53226C3.33203 5.32782 3.34314 5.06337 3.36611 4.73967C3.37923 4.55259 3.46283 4.37746 3.60003 4.2496C3.73724 4.12175 3.91783 4.0507 4.10536 4.05078H6.72462C6.8165 4.05069 6.90514 4.08475 6.97331 4.14635C7.04148 4.20795 7.08432 4.29269 7.09351 4.38411C7.11055 4.55449 7.12611 4.69004 7.14092 4.793C7.28813 5.82035 7.58981 6.81955 8.03574 7.75671C8.10611 7.90486 8.06018 8.08189 7.92685 8.17671L6.32833 9.31893C7.3057 11.5963 9.12059 13.4112 11.398 14.3886L12.5387 12.793C12.5853 12.7278 12.6534 12.6811 12.7309 12.6609C12.8085 12.6407 12.8907 12.6484 12.9631 12.6826C13.9002 13.1277 14.8991 13.4286 15.9261 13.5752C16.0291 13.59 16.1646 13.6063 16.3335 13.6226C16.4248 13.632 16.5094 13.6749 16.5708 13.7431C16.6323 13.8112 16.6662 13.8998 16.6661 13.9915H16.6654Z" fill="currentColor"/>
</svg>
