<svg width="40" height="40" viewBox="0 0 40 40" fill="none" xmlns="http://www.w3.org/2000/svg">
  <g clip-path="url(#clip0_530_7415)">
    <path d="M39.4141 38.8301H37.495V30.7763C37.8785 30.4391 38.1213 29.9455 38.1213 29.3959C38.1213 28.3821 37.2965 27.5574 36.2828 27.5574H32.4495L31.8575 18.0866C31.8382 17.7778 31.5821 17.5373 31.2727 17.5373H28.7677C28.4583 17.5373 28.2022 17.7778 28.1829 18.0866L27.5909 27.5574H26.1868L25.5948 18.0866C25.5755 17.7778 25.3195 17.5373 25.0101 17.5373H22.5051C22.1957 17.5373 21.9396 17.7778 21.9203 18.0866L21.3284 27.5574H19.9242L19.3323 18.0866C19.313 17.7778 19.0569 17.5373 18.7475 17.5373H16.2425C15.9331 17.5373 15.677 17.7778 15.6577 18.0866L15.0658 27.5574H13.4338L13.0708 11.2213C13.0638 10.9029 12.8035 10.6484 12.485 10.6484H8.72742C8.40891 10.6484 8.14867 10.9029 8.14164 11.2213L7.72297 30.0625H3.09094C2.07719 30.0625 1.2525 30.8873 1.2525 31.9009C1.2525 32.4505 1.49523 32.9442 1.87875 33.2814V38.8301H0.585938C0.262344 38.8301 0 39.0924 0 39.416C0 39.7396 0.262344 40.002 0.585938 40.002H39.4141C39.7377 40.002 40 39.7396 40 39.416C40 39.0924 39.7377 38.8301 39.4141 38.8301ZM7.66711 32.5676H5.59625C5.27266 32.5676 5.01031 32.8299 5.01031 33.1535C5.01031 33.4771 5.27266 33.7395 5.59625 33.7395H7.64109L7.52797 38.8301H3.05063V33.7384C3.06406 33.7387 3.07742 33.7394 3.09094 33.7394C3.41453 33.7394 3.67687 33.477 3.67687 33.1534C3.67687 32.8298 3.41453 32.5675 3.09094 32.5675C2.72336 32.5675 2.42438 32.2684 2.42438 31.9009C2.42438 31.5334 2.72344 31.2344 3.09094 31.2344H7.69672L7.66711 32.5676ZM29.318 18.7091H30.7222L31.2752 27.5574H28.7651L29.318 18.7091ZM23.0555 18.7091H24.4596L25.0127 27.5574H22.5025L23.0555 18.7091ZM16.7929 18.7091H18.197L18.75 27.5574H16.2398L16.7929 18.7091ZM10.0202 38.8301H8.70023L9.30031 11.8202H11.9118L12.2616 27.5574H11.2324C10.2187 27.5574 9.39391 28.3822 9.39391 29.3959C9.39391 29.9455 9.63664 30.4391 10.0202 30.7763V38.8301ZM36.2828 30.0624H35.0303C34.7067 30.0624 34.4444 30.3248 34.4444 30.6484C34.4444 30.972 34.7067 31.2343 35.0303 31.2343H36.2828C36.2963 31.2343 36.3097 31.2335 36.3231 31.2333V38.8301H11.192V31.2333C11.2055 31.2336 11.2188 31.2343 11.2323 31.2343H32.5257C32.8493 31.2343 33.1116 30.972 33.1116 30.6484C33.1116 30.3248 32.8493 30.0624 32.5257 30.0624H11.2323C10.8648 30.0624 10.5657 29.7634 10.5657 29.3959C10.5657 29.0284 10.8648 28.7293 11.2323 28.7293H36.2827C36.6503 28.7293 36.9494 29.0283 36.9494 29.3959C36.9494 29.7634 36.6503 30.0624 36.2828 30.0624Z" fill="currentColor" />
    <path d="M32.5259 0C30.7608 0 29.078 0.616016 27.7327 1.74484C26.767 1.02016 25.5965 0.62625 24.3845 0.62625C22.9133 0.62625 21.5087 1.20711 20.4648 2.23406C19.9236 2.0007 19.3382 1.87875 18.7482 1.87875C17.0062 1.87875 15.4533 2.9218 14.7717 4.48281C14.5366 4.41695 14.2958 4.38375 14.0513 4.38375C12.8409 4.38375 11.8 5.17086 11.4282 6.27344C11.3634 6.26625 11.2983 6.26258 11.233 6.26258C10.2193 6.26258 9.39453 7.08734 9.39453 8.10102C9.39461 8.42469 9.65695 8.68703 9.98055 8.68703C10.3041 8.68703 10.5665 8.42469 10.5665 8.10109C10.5665 7.73352 10.8655 7.43453 11.2331 7.43453C11.3494 7.43453 11.4634 7.46742 11.5718 7.53234C11.7474 7.63742 11.9651 7.6432 12.1461 7.54781C12.327 7.45234 12.4452 7.26937 12.4575 7.06508C12.5088 6.21875 13.2089 5.55578 14.0512 5.55578C14.3175 5.55578 14.5804 5.62773 14.8324 5.76969C14.9903 5.85867 15.1807 5.86945 15.3478 5.79891C15.5149 5.72836 15.6398 5.58445 15.6863 5.40914C16.0542 4.02055 17.3133 3.0507 18.7481 3.0507C19.2919 3.0507 19.8305 3.19289 20.3059 3.4618C20.5488 3.5993 20.8553 3.54625 21.0378 3.33484C21.8812 2.35828 23.1011 1.7982 24.3845 1.7982C25.4817 1.7982 26.5367 2.20781 27.355 2.95148C27.5834 3.15898 27.9335 3.15391 28.1557 2.93977C29.3385 1.79969 30.8905 1.17188 32.5259 1.17188C36.0014 1.17188 38.8288 3.99938 38.8288 7.47477C38.8288 10.9502 36.0014 13.7777 32.5259 13.7777C30.2185 13.7777 28.0973 12.5178 26.9902 10.4898C26.8426 10.2193 26.5106 10.1095 26.2308 10.2384C25.6431 10.5091 25.022 10.6463 24.3845 10.6463C23.1012 10.6463 21.8813 10.0862 21.0379 9.10969C20.8554 8.89836 20.549 8.84523 20.3059 8.98273C19.8306 9.25164 19.292 9.39383 18.7482 9.39383C17.758 9.39383 16.8418 8.94047 16.2345 8.15C16.1242 8.00648 15.9538 7.92195 15.7728 7.92102C15.7718 7.92102 15.7709 7.92102 15.7699 7.92102C15.59 7.92102 15.4199 8.00375 15.3088 8.14539C14.9988 8.54078 14.5405 8.7675 14.0513 8.7675C13.7277 8.7675 13.4653 9.02984 13.4653 9.35344C13.4653 9.67703 13.7277 9.93937 14.0513 9.93937C14.6723 9.93937 15.2629 9.73188 15.7441 9.35547C16.5481 10.1311 17.6123 10.5656 18.7482 10.5656C19.3382 10.5656 19.9236 10.4437 20.4648 10.2104C21.5087 11.2373 22.9134 11.8182 24.3845 11.8182C25.016 11.8182 25.6343 11.7122 26.2288 11.5026C27.5979 13.6413 29.9651 14.9495 32.5259 14.9495C36.6476 14.9495 40.0007 11.5963 40.0007 7.47477C40.0007 3.3532 36.6476 0 32.5259 0Z" fill="currentColor" />
    <path d="M14.9883 32.5664C14.6647 32.5664 14.4023 32.8287 14.4023 33.1523V34.4048C14.4023 34.7284 14.6647 34.9908 14.9883 34.9908C15.3119 34.9908 15.5742 34.7284 15.5742 34.4048V33.1523C15.5742 32.8287 15.3119 32.5664 14.9883 32.5664Z" fill="currentColor" />
    <path d="M17.4961 32.5664C17.1725 32.5664 16.9102 32.8287 16.9102 33.1523V34.4048C16.9102 34.7284 17.1725 34.9908 17.4961 34.9908C17.8197 34.9908 18.082 34.7284 18.082 34.4048V33.1523C18.082 32.8287 17.8197 32.5664 17.4961 32.5664Z" fill="currentColor" />
    <path d="M20 32.5664C19.6764 32.5664 19.4141 32.8287 19.4141 33.1523V34.4048C19.4141 34.7284 19.6764 34.9908 20 34.9908C20.3236 34.9908 20.5859 34.7284 20.5859 34.4048V33.1523C20.5859 32.8287 20.3236 32.5664 20 32.5664Z" fill="currentColor" />
    <path d="M22.5039 32.5664C22.1803 32.5664 21.918 32.8287 21.918 33.1523V34.4048C21.918 34.7284 22.1803 34.9908 22.5039 34.9908C22.8275 34.9908 23.0898 34.7284 23.0898 34.4048V33.1523C23.0898 32.8287 22.8276 32.5664 22.5039 32.5664Z" fill="currentColor" />
    <path d="M25.0117 32.5664C24.6881 32.5664 24.4258 32.8287 24.4258 33.1523V34.4048C24.4258 34.7284 24.6881 34.9908 25.0117 34.9908C25.3353 34.9908 25.5977 34.7284 25.5977 34.4048V33.1523C25.5977 32.8287 25.3353 32.5664 25.0117 32.5664Z" fill="currentColor" />
    <path d="M27.5156 32.5664C27.192 32.5664 26.9297 32.8287 26.9297 33.1523V34.4048C26.9297 34.7284 27.192 34.9908 27.5156 34.9908C27.8392 34.9908 28.1016 34.7284 28.1016 34.4048V33.1523C28.1016 32.8287 27.8392 32.5664 27.5156 32.5664Z" fill="currentColor" />
    <path d="M30.0195 32.5664C29.6959 32.5664 29.4336 32.8287 29.4336 33.1523V34.4048C29.4336 34.7284 29.6959 34.9908 30.0195 34.9908C30.3431 34.9908 30.6055 34.7284 30.6055 34.4048V33.1523C30.6055 32.8287 30.3431 32.5664 30.0195 32.5664Z" fill="currentColor" />
    <path d="M32.5234 32.5664C32.1998 32.5664 31.9375 32.8287 31.9375 33.1523V34.4048C31.9375 34.7284 32.1998 34.9908 32.5234 34.9908C32.847 34.9908 33.1094 34.7284 33.1094 34.4048V33.1523C33.1094 32.8287 32.847 32.5664 32.5234 32.5664Z" fill="currentColor" />
  </g>
</svg>