<svg width="40" height="40" viewBox="0 0 40 40" fill="none" xmlns="http://www.w3.org/2000/svg">
  <g clip-path="url(#clip0_530_7397)">
    <path d="M40 18.9259C40 13.7547 37.9863 8.89306 34.3298 5.23661C34.1013 5.00819 33.7309 5.00819 33.5024 5.23661L13.0812 25.6577C11.5627 24.8559 10.175 25.0885 8.58308 25.3672C7.86062 22.7605 6.04913 21.7509 5.95364 21.6995C5.66913 21.5462 5.31434 21.6528 5.16113 21.9373C5.00791 22.2218 5.11432 22.5766 5.3989 22.7298C5.41583 22.7388 6.6438 23.4244 7.30152 25.21C5.41014 24.7407 3.39472 25.3893 2.04591 26.7713C0.193073 20.0145 2.42107 9.8774 11.0478 9.88942C14.8854 9.88942 18.2735 12.415 19.5389 16.0013C19.6463 16.306 19.9806 16.4661 20.2852 16.3586C20.59 16.2511 20.7499 15.917 20.6425 15.6123C19.9016 13.5087 18.5507 11.692 16.6942 10.4428C16.8604 9.5748 17.2155 8.74617 17.732 8.02753L18.5034 6.95417C19.2441 5.92318 18.0995 4.49105 16.9207 5.02839L15.0835 5.86701C15.0433 4.29642 15.4424 3.08959 16.3946 1.83993C16.6841 1.437 16.6671 0.90871 16.352 0.525442C16.037 0.142017 15.522 0.0231286 15.0706 0.228844C13.4345 0.975643 11.8564 1.63866 10.9792 3.34226C10.1086 1.65153 8.51544 0.971743 6.88774 0.228844C6.43645 0.0227385 5.92134 0.142095 5.60641 0.525364C5.29141 0.90871 5.27424 1.43692 5.56374 1.83993C6.51119 3.09076 6.91879 4.29345 6.87495 5.86701L5.03756 5.02839C3.88276 4.50143 2.6991 5.90204 3.45503 6.95417L4.2264 8.02753C4.74993 8.75599 5.10722 9.59688 5.27058 10.4777C-0.0927601 14.1259 -0.672382 22.2454 1.16688 27.9132C-0.306822 30.3492 -0.373911 34.0349 0.904845 36.5569C1.05104 36.8451 1.4031 36.9603 1.69127 36.8142C1.97945 36.6681 2.09467 36.316 1.94856 36.0278C0.535073 33.2395 0.958049 28.5088 3.87831 26.8092C5.15652 26.0652 6.277 26.2357 7.62643 26.5057C7.67761 26.8544 7.70764 27.2296 7.70764 27.636C7.70764 27.9592 7.96952 28.2211 8.29272 28.2211C8.61592 28.2211 8.87781 27.9592 8.87781 27.636C8.87781 27.2391 8.8537 26.8658 8.8104 26.5146C10.1891 26.261 11.3501 26.0115 12.6664 26.7632C16.3698 28.8779 16.3764 36.0734 12.6529 38.1506C11.6291 38.7217 10.3192 38.8758 9.20889 38.4643C8.57661 38.2612 7.90821 38.2612 7.27593 38.4643C6.03828 38.8622 4.7447 38.6773 3.63391 37.9437C3.3643 37.7656 3.00131 37.8398 2.82329 38.1094C2.64519 38.3791 2.71938 38.742 2.98907 38.9201C4.38133 39.8397 6.0744 40.0797 7.634 39.5784C8.03193 39.4504 8.45272 39.4504 8.85081 39.5784C10.297 40.0681 11.8891 39.9168 13.223 39.1726C13.68 38.9176 14.1001 38.5994 14.4751 38.2296C15.8343 39.2887 17.5054 39.8678 19.2425 39.8678C21.2091 39.8678 23.0069 39.1325 24.3763 37.9228C28.1554 37.1833 31.5942 35.351 34.3298 32.6154C37.9863 28.9588 40 24.0973 40 18.9259ZM5.17665 7.34462L4.40528 6.27127C4.36261 6.1367 4.41144 6.07725 4.5517 6.09301C5.42683 6.49243 6.33496 6.85323 7.18294 7.30889C7.36431 7.40648 7.58353 7.40149 7.76014 7.29578C7.93692 7.19016 8.04504 6.99942 8.04504 6.79355C8.04504 4.78601 7.99043 3.13148 6.71448 1.43614C8.61507 2.3037 10.394 3.34687 10.394 5.75101C10.394 6.07421 10.6559 6.33609 10.9791 6.33609C11.3023 6.33609 11.5642 6.07421 11.5642 5.75101C11.5642 3.35935 13.3434 2.3037 15.2437 1.43622C13.9679 3.13156 13.9133 4.78601 13.9133 6.79355C13.9133 6.9995 14.0215 7.19016 14.1982 7.29578C14.375 7.40133 14.5941 7.40633 14.7755 7.30873C15.6233 6.85276 16.5312 6.49243 17.4064 6.09293C17.5467 6.07717 17.5955 6.13662 17.5529 6.27119L16.7817 7.34462C16.247 8.08884 15.8578 8.93214 15.6348 9.81905C14.2195 9.09745 12.6575 8.71925 11.0478 8.71925C9.41195 8.70615 7.78409 9.09698 6.33051 9.84698C6.10873 8.94977 5.71727 8.09688 5.17665 7.34462ZM15.2254 37.3311C17.1482 34.5458 17.0593 29.8018 14.893 27.1503C16.0958 26.09 17.6201 25.5103 19.2426 25.5103C22.8782 25.5103 25.8362 28.4682 25.8362 32.1039C25.8362 35.7395 22.8783 38.6975 19.2426 38.6975C17.7808 38.6975 16.3739 38.2149 15.2254 37.3311ZM25.7066 36.3992C26.1808 35.6879 26.5411 34.8945 26.7607 34.0448C28.7895 33.2252 30.609 32.02 32.1718 30.4572C34.4571 28.1718 35.9988 25.2957 36.6301 22.1398C36.6936 21.8229 36.4881 21.5146 36.1712 21.4513C35.8542 21.3877 35.5461 21.5933 35.4827 21.9102C34.8967 24.839 33.4658 27.5084 31.3443 29.6298C30.0659 30.9082 28.6027 31.9283 26.9853 32.6733C27.3081 28.2417 23.6883 24.3402 19.2426 24.3402C17.3466 24.3402 15.5636 25.011 14.1524 26.2415L31.7502 8.64358C34.3945 11.4946 35.8206 15.1832 35.7771 19.0947C35.7735 19.4178 36.0326 19.6827 36.3557 19.6863C36.6784 19.6894 36.9437 19.4308 36.9473 19.1077C36.9941 14.8788 35.4459 10.8924 32.5774 7.81643L33.9097 6.48416C37.0871 9.8675 38.8298 14.2626 38.8298 18.9259C38.8298 23.7846 36.9378 28.3524 33.5024 31.7877C31.3127 33.9774 28.6438 35.5515 25.7066 36.3992Z" fill="currentColor" />
    <path d="M28.0066 25.4643C27.7781 25.2359 27.4077 25.2359 27.1792 25.4643C26.9507 25.6929 26.9507 26.0632 27.1792 26.2917L28.0627 27.1753C28.177 27.2895 28.3268 27.3466 28.4765 27.3466C28.6262 27.3466 28.776 27.2895 28.8903 27.1753C29.1188 26.9467 29.1188 26.5763 28.8903 26.3478L28.0066 25.4643Z" fill="currentColor" />
    <path d="M31.1693 22.613L30.0304 22.1055C29.7352 21.9739 29.3894 22.1068 29.2578 22.4018C29.1263 22.697 29.259 23.0429 29.5541 23.1744L30.693 23.6818C30.7704 23.7163 30.8512 23.7326 30.9309 23.7326C31.1548 23.7326 31.3685 23.6033 31.4655 23.3855C31.597 23.0904 31.4644 22.7445 31.1693 22.613Z" fill="currentColor" />
    <path d="M31.9154 18.2855L30.6769 18.2234C30.6668 18.2229 30.6569 18.2227 30.6471 18.2227C30.3374 18.2227 30.0789 18.4657 30.0633 18.7784C30.047 19.1012 30.2956 19.3759 30.6182 19.392L31.8567 19.4541C31.8668 19.4547 31.8767 19.4549 31.8865 19.4549C32.1962 19.4549 32.4548 19.2119 32.4704 18.8992C32.4866 18.5764 32.238 18.3017 31.9154 18.2855Z" fill="currentColor" />
    <path d="M30.05 15.4842C30.1116 15.4842 30.1744 15.4744 30.236 15.4537L31.4049 15.0619C31.7113 14.9591 31.8764 14.6275 31.7737 14.3212C31.6711 14.0147 31.3391 13.8497 31.033 13.9523L29.8642 14.3442C29.5577 14.4469 29.3927 14.7785 29.4953 15.0849C29.5773 15.3296 29.8053 15.4842 30.05 15.4842Z" fill="currentColor" />
    <path d="M10.9797 17.0373C11.1294 17.0373 11.2792 16.9802 11.3934 16.866L12.6826 15.5769C12.9111 15.3484 12.9111 14.978 12.6826 14.7495C12.4541 14.5211 12.0837 14.521 11.8553 14.7495L10.9797 15.6249L10.1042 14.7495C9.8758 14.521 9.50532 14.521 9.27683 14.7495C9.04834 14.978 9.04834 15.3485 9.27691 15.5769L10.566 16.866C10.6802 16.9801 10.83 17.0373 10.9797 17.0373Z" fill="currentColor" />
    <path d="M16.2571 17.0373C16.4068 17.0373 16.5566 16.9802 16.6708 16.866L17.9599 15.5769C18.1885 15.3484 18.1885 14.978 17.96 14.7495C17.7314 14.521 17.3609 14.521 17.1326 14.7495L16.2571 15.6249L15.3816 14.7495C15.1531 14.521 14.7827 14.521 14.5542 14.7495C14.3257 14.978 14.3257 15.3485 14.5543 15.5769L15.8434 16.866C15.9576 16.9801 16.1074 17.0373 16.2571 17.0373Z" fill="currentColor" />
    <path d="M9.19103 18.4448L8.31559 19.3203L7.44023 18.4448C7.21166 18.2164 6.84118 18.2163 6.61285 18.4448C6.38427 18.6733 6.38427 19.0437 6.61277 19.2722L7.90182 20.5613C8.01158 20.671 8.16035 20.7327 8.31559 20.7327C8.47083 20.7327 8.61952 20.671 8.72936 20.5614L10.0185 19.2722C10.247 19.0437 10.247 18.6733 10.0185 18.4448C9.79 18.2164 9.4196 18.2164 9.19103 18.4448Z" fill="currentColor" />
    <path d="M13.1792 20.5613C13.2889 20.671 13.4377 20.7327 13.5929 20.7327C13.7482 20.7327 13.8969 20.671 14.0067 20.5614L15.2958 19.2722C15.5243 19.0437 15.5243 18.6733 15.2958 18.4448C15.0673 18.2164 14.6969 18.2164 14.4684 18.4448L13.5929 19.3203L12.7176 18.4448C12.4891 18.2164 12.1186 18.2163 11.8902 18.4448C11.6616 18.6733 11.6616 19.0437 11.8901 19.2722L13.1792 20.5613Z" fill="currentColor" />
    <path d="M20.5499 28.5725C20.8731 28.5725 21.135 28.3106 21.135 27.9874C21.135 27.6643 20.8731 27.4023 20.5499 27.4023C20.2268 27.4023 19.9648 27.6643 19.9648 27.9874C19.9648 28.3106 20.2268 28.5725 20.5499 28.5725Z" fill="currentColor" />
  </g>
</svg>