<svg width="40" height="40" viewBox="0 0 40 40" fill="none" xmlns="http://www.w3.org/2000/svg">
  <path d="M32.6107 21.5586H21.4261C21.098 21.5586 20.832 21.8246 20.832 22.1527V31.9745C20.832 32.3025 21.098 32.5685 21.4261 32.5685H32.6107C32.9388 32.5685 33.2048 32.3025 33.2048 31.9745V22.1527C33.2048 21.8245 32.9388 21.5586 32.6107 21.5586ZM32.0166 31.3803H22.0202V25.7312H32.0166V31.3803ZM32.0166 24.5431H22.0202V22.7467H32.0166V24.5431Z" fill="currentColor" />
  <path d="M39.4059 33.8111H35.4854V20.622L36.5442 21.633C36.6586 21.7422 36.8064 21.7973 36.9545 21.7973C37.09 21.7973 37.2256 21.7512 37.3364 21.6583L39.6941 19.6791C39.7737 19.6123 39.8399 19.5293 39.8776 19.4326C39.9686 19.1993 39.9057 18.9458 39.7349 18.783L35.6438 14.8868V9.26358C35.6438 8.93554 35.3778 8.66952 35.0498 8.66952C34.7217 8.66952 34.4557 8.93554 34.4557 9.26358V13.7553L28.1983 7.79601V4.84679H34.4557V6.49116C34.4557 6.81921 34.7217 7.08522 35.0498 7.08522C35.3778 7.08522 35.6438 6.81921 35.6438 6.49116V4.25272C35.6438 3.92468 35.3778 3.65866 35.0498 3.65866H27.6042C27.2762 3.65866 27.0102 3.92468 27.0102 4.25272V6.66444L21.5864 1.49913L20.4043 0.401006C20.1762 0.189209 19.8235 0.189287 19.5957 0.401006L18.4082 1.50421L0.265078 18.7829C0.0942969 18.9456 0.0314063 19.1991 0.122422 19.4325C0.160156 19.5292 0.226328 19.6123 0.305859 19.6791L2.66359 21.6583C2.89555 21.853 3.23672 21.842 3.45578 21.633L4.51516 20.6215V24.5098C4.51516 24.8379 4.78117 25.1039 5.10922 25.1039C5.43727 25.1039 5.70328 24.8379 5.70328 24.5098V19.4871L20 5.83749L34.2973 19.4876V33.8112H21.426C21.098 33.8112 20.832 34.0772 20.832 34.4052V38.568H19.1686V22.1538C19.1686 21.8258 18.9026 21.5598 18.5745 21.5598H8.75274C8.42469 21.5598 8.15867 21.8258 8.15867 22.1538V38.568H7.49109V34.4052C7.49109 34.0772 7.22508 33.8112 6.89703 33.8112H5.7032V27.2823C5.7032 26.9542 5.43719 26.6882 5.10914 26.6882C4.78109 26.6882 4.51508 26.9542 4.51508 27.2823V33.8112H0.594063C0.266016 33.8112 0 34.0772 0 34.4052V39.1622C0 39.4902 0.266016 39.7562 0.594063 39.7562H6.89703C6.89758 39.7562 6.89805 39.7562 6.89852 39.7562H8.75258H18.5744H21.4244C21.4248 39.7562 21.4254 39.7562 21.4259 39.7562H39.4059C39.734 39.7562 40 39.4902 40 39.1622V34.4052C40 34.077 39.734 33.8111 39.4059 33.8111ZM6.30297 38.568H5.10914V38.568H1.18813V34.9992H6.30297V38.568ZM17.9805 38.568H9.3468V22.7478H17.9805V38.568ZM20.4102 4.58647C20.2954 4.47694 20.1477 4.4221 20 4.4221C19.8523 4.4221 19.7046 4.47694 19.5898 4.58647L3.02 20.4062L1.56547 19.1851L19.2222 2.3696L20 1.64694L20.7723 2.36452L38.4345 19.1851L36.9798 20.4062L20.4102 4.58647ZM38.8119 38.568H34.8913V38.568H22.0201V34.9992H38.812V38.568H38.8119Z" fill="currentColor" />
  <path d="M16.6409 30.0078H15.2152C14.887 30.0078 14.6211 30.2738 14.6211 30.6019C14.6211 30.9299 14.887 31.1959 15.2152 31.1959H16.6409C16.9691 31.1959 17.235 30.9299 17.235 30.6019C17.235 30.2738 16.9691 30.0078 16.6409 30.0078Z" fill="currentColor" />
  <path d="M19.9984 11.2383C18.1641 11.2383 16.6719 12.7305 16.6719 14.5649C16.6719 16.3992 18.1641 17.8915 19.9984 17.8915C21.8327 17.8915 23.325 16.3992 23.325 14.5649C23.325 12.7306 21.8327 11.2383 19.9984 11.2383ZM19.9984 16.7034C18.8193 16.7034 17.86 15.7441 17.86 14.5649C17.86 13.3858 18.8193 12.4264 19.9984 12.4264C21.1776 12.4264 22.1369 13.3857 22.1369 14.5649C22.1369 15.7441 21.1776 16.7034 19.9984 16.7034Z" fill="currentColor" />
</svg>