<svg width="40" height="40" viewBox="0 0 40 40" fill="none" xmlns="http://www.w3.org/2000/svg">
  <g clip-path="url(#clip0_530_7452)">
    <path d="M8.57252 32.8399C8.34322 32.6107 7.9715 32.6107 7.74229 32.8399C7.51299 33.0692 7.51299 33.4409 7.74229 33.6701L8.30814 34.236C8.42275 34.3506 8.57307 34.4079 8.7233 34.4079C8.87354 34.4079 9.02377 34.3506 9.13846 34.236C9.36775 34.0067 9.36775 33.635 9.13846 33.4057L8.57252 32.8399Z" fill="currentColor" />
    <path d="M35.6198 15.3277H35.282C33.8878 8.85461 28.5764 4.02539 22.1191 3.14867V2.11914C22.1191 0.950625 21.1684 0 19.9999 0C18.8314 0 17.8808 0.950625 17.8808 2.11914V3.14742C15.2721 3.49852 12.812 4.49867 10.6718 6.09219C10.4117 6.28586 10.3579 6.65367 10.5515 6.91367C10.7452 7.17383 11.113 7.22766 11.373 7.03398C13.8807 5.1668 16.8638 4.17977 19.9999 4.17977C26.7486 4.17977 32.5598 8.82695 34.0791 15.3277H27.8251C27.5009 15.3277 27.238 15.5905 27.238 15.9148C27.238 16.239 27.5009 16.5019 27.8251 16.5019H35.6198C36.0478 16.5019 36.3959 16.85 36.3959 17.278C36.3959 17.7059 36.0478 18.0541 35.6198 18.0541H4.38C3.95203 18.0541 3.60391 17.7059 3.60391 17.278C3.60391 16.85 3.95211 16.5019 4.38 16.5019H25.4767C25.8009 16.5019 26.0638 16.239 26.0638 15.9148C26.0638 15.5905 25.8009 15.3277 25.4767 15.3277H5.92094C6.52141 12.7619 7.80906 10.4197 9.67258 8.51859C9.89953 8.28703 9.89586 7.91531 9.6643 7.68836C9.43273 7.46133 9.06109 7.46508 8.83406 7.69664C6.75477 9.81797 5.33836 12.4477 4.71758 15.3277H4.38C3.30461 15.3277 2.42969 16.2026 2.42969 17.278C2.42969 18.3534 3.30461 19.2283 4.38 19.2283H11.3462C11.3437 19.2478 11.3402 19.267 11.3386 19.2867L11.0791 22.5097C10.9652 23.9238 10.5233 25.2983 9.7657 26.5949C8.97852 27.9423 8.68328 29.4311 8.57328 30.4248C8.17367 30.318 7.72945 30.4199 7.41656 30.7328L5.63727 32.5121C5.17078 32.9786 5.17078 33.7377 5.63727 34.2041L11.0832 39.6502H11.0833C11.3165 39.8834 11.6229 40 11.9292 40C12.2355 40 12.542 39.8834 12.7752 39.6502L14.5545 37.8709C14.7805 37.6449 14.9049 37.3445 14.9049 37.0248C14.9049 36.7577 14.8169 36.5045 14.6563 36.2965L18.5722 33.662C18.8412 33.4809 18.9126 33.1162 18.7316 32.8471C18.5506 32.5781 18.1857 32.5067 17.9167 32.6877L13.8198 35.4441L9.68648 31.3107C9.70719 30.6724 9.84891 28.7799 10.7795 27.1872C11.6266 25.7371 12.1212 24.1951 12.2494 22.6038L12.5089 19.3808C12.5159 19.2952 12.5885 19.2281 12.6745 19.2281C13.5673 19.2281 14.3255 19.9237 14.4005 20.8115C14.4155 20.989 14.43 21.1697 14.4447 21.3526C14.6462 23.8687 14.8745 26.7205 16.8685 27.5991C17.8853 28.047 19.3334 27.5007 21.2955 25.9287C22.6325 24.8575 23.7137 23.7013 23.759 23.6527C23.7837 23.6261 23.806 23.5973 23.8254 23.5666L25.8356 20.3927C26.2975 19.6634 27.0886 19.2281 27.9517 19.2281C28.1596 19.2281 28.2655 19.366 28.3012 19.4253C28.337 19.4846 28.4099 19.6423 28.3133 19.8265L27.0832 22.1676C26.5425 23.1966 25.8998 24.1784 25.173 25.0854L22.3719 28.5813C21.581 29.5684 20.6925 30.4854 19.7309 31.3069C19.4845 31.5175 19.4553 31.888 19.6659 32.1346C19.782 32.2705 19.9468 32.3403 20.1126 32.3403C20.2475 32.3403 20.383 32.2941 20.4937 32.1996C21.5111 31.3303 22.4513 30.36 23.2882 29.3155L26.0893 25.8196C26.863 24.8541 27.547 23.8091 28.1226 22.7137L29.3527 20.3726C29.5419 20.0124 29.5834 19.6068 29.4811 19.228H35.6198C36.6952 19.228 37.5701 18.3531 37.5701 17.2777C37.5702 16.2026 36.6952 15.3277 35.6198 15.3277ZM19.0549 3.03344V2.11914C19.0549 1.59812 19.4788 1.17422 19.9999 1.17422C20.521 1.17422 20.9449 1.59812 20.9449 2.11914V3.03461C20.632 3.01586 20.317 3.00555 19.9999 3.00555C19.6834 3.00563 19.3683 3.01492 19.0549 3.03344ZM13.7242 37.0405L11.9449 38.8198C11.9362 38.8286 11.922 38.8286 11.9134 38.8198L6.46742 33.3739C6.45875 33.3652 6.45875 33.3511 6.46742 33.3424L8.24672 31.5631C8.25539 31.5544 8.26953 31.5543 8.27828 31.5631L13.7243 37.0091C13.7264 37.0112 13.7308 37.0156 13.7308 37.0248C13.7307 37.0341 13.7263 37.0384 13.7242 37.0405ZM15.6151 21.2591C15.6003 21.0745 15.5857 20.892 15.5705 20.7128C15.5237 20.1588 15.3184 19.6497 15.0024 19.2283H22.1436C21.808 19.5374 21.5173 19.9002 21.287 20.3088L19.9755 22.6362L16.7165 26.0225C15.9161 25.0115 15.7516 22.9648 15.6151 21.2591ZM22.8637 22.8907C22.6666 23.0981 21.6925 24.1074 20.5522 25.0198C19.1525 26.1398 18.3114 26.4782 17.8345 26.5539L20.8732 23.3965C20.9076 23.3608 20.9373 23.3208 20.9616 23.2776L22.3099 20.8852C22.8859 19.8631 23.9725 19.2282 25.1457 19.2282C25.1554 19.2282 25.1663 19.2282 25.1759 19.2464C25.1855 19.2646 25.1794 19.2737 25.1739 19.2817L24.9837 19.5595C24.9352 19.6259 24.8883 19.6941 24.8438 19.7645L22.8637 22.8907Z" fill="currentColor" />
  </g>
</svg>