<svg width="40" height="40" viewBox="0 0 40 40" fill="none" xmlns="http://www.w3.org/2000/svg">
  <g clip-path="url(#clip0_530_7464)">
    <path d="M38.2029 31.5484H37.8982L36.749 13.1616C36.6915 12.2333 35.9177 11.506 34.9874 11.506H32.4804C32.1555 11.506 31.892 11.7694 31.892 12.0943C31.892 12.4193 32.1555 12.6827 32.4804 12.6827H34.9874C35.2975 12.6827 35.5554 12.925 35.5745 13.2348L36.7192 31.5484H9.48766C9.16274 31.5484 8.89933 31.8119 8.89933 32.1368C8.89933 32.4617 9.16274 32.7251 9.48766 32.7251H37.3441H37.3448H37.346H38.2028C38.5272 32.7251 38.7911 32.989 38.7911 33.3134V38.235C38.7911 38.5595 38.5272 38.8233 38.2028 38.8233H31.8308V37.8724C31.8308 36.8992 31.039 36.1074 30.0658 36.1074H9.15968C8.18643 36.1074 7.39469 36.8992 7.39469 37.8724V38.8233H1.80007C1.47562 38.8233 1.21174 38.5595 1.21174 38.235V33.3134C1.21174 32.989 1.47562 32.7251 1.80007 32.7251H2.65683H2.65801H2.65879H6.74204C7.06695 32.7251 7.33037 32.4617 7.33037 32.1368C7.33037 31.8119 7.06695 31.5484 6.74204 31.5484H3.28376L4.42849 13.2344C4.44763 12.925 4.70548 12.6827 5.01556 12.6827H7.52656V16.9461H6.64563C5.97517 16.9461 5.42975 17.4915 5.42975 18.162V25.2266C5.42975 25.8971 5.97517 26.4425 6.64563 26.4425H15.5655C16.236 26.4425 16.7814 25.8971 16.7814 25.2266V18.162C16.7814 17.4915 16.236 16.9461 15.5655 16.9461H14.6846V12.6827H29.7348C30.0598 12.6827 30.3232 12.4193 30.3232 12.0943C30.3232 11.7694 30.0598 11.506 29.7348 11.506H28.6853V8.53376H34.0977C35.0709 8.53376 35.8626 7.74203 35.8626 6.76877V1.76499C35.8626 0.791735 35.0709 0 34.0977 0H16.9472C15.974 0 15.1822 0.791735 15.1822 1.76499V6.76877C15.1822 7.74203 15.974 8.53376 16.9472 8.53376H22.3595V11.506H14.6846V9.37233C14.6846 8.70187 14.1392 8.15645 13.4687 8.15645H8.74244C8.07198 8.15645 7.52656 8.70187 7.52656 9.37233V11.506H5.01556C4.0853 11.506 3.31153 12.2333 3.25411 13.1613L2.10482 31.5484H1.80015C0.826891 31.5484 0.0351562 32.3402 0.0351562 33.3134V38.235C0.0351562 39.2083 0.826891 40 1.80015 40H38.2029C39.1761 40 39.9679 39.2083 39.9679 38.235V33.3134C39.9679 32.3402 39.1761 31.5484 38.2029 31.5484ZM16.3589 6.76877V1.76499C16.3589 1.44055 16.6228 1.17666 16.9472 1.17666H34.0977C34.422 1.17666 34.686 1.44055 34.686 1.76499V6.76877C34.686 7.09322 34.422 7.3571 34.0977 7.3571H16.9472C16.6228 7.3571 16.3589 7.09322 16.3589 6.76877ZM23.5362 8.53376H27.5086V11.506H23.5362V8.53376ZM6.64563 18.1228H7.52656V22.622H6.60641V18.162C6.60641 18.1407 6.62437 18.1228 6.64563 18.1228ZM15.5655 25.2659H6.64563C6.62437 25.2659 6.60641 25.2479 6.60641 25.2266V23.7986H15.6047V25.2266C15.6047 25.2483 15.5871 25.2659 15.5655 25.2659ZM15.5655 18.1228C15.5871 18.1228 15.6047 18.1403 15.6047 18.162V22.622H14.6846V18.1228H15.5655ZM8.74244 9.33311H13.4687C13.4899 9.33311 13.5079 9.35107 13.5079 9.37233V22.622H8.70322V9.37233C8.70322 9.35107 8.72118 9.33311 8.74244 9.33311ZM8.57143 37.8724C8.57143 37.5481 8.83532 37.2841 9.15976 37.2841H30.0659C30.3903 37.2841 30.6542 37.5481 30.6542 37.8724V38.8233H8.57143V37.8724Z" fill="currentColor" />
    <path d="M28.847 15.6837C28.847 15.143 28.4071 14.7031 27.8664 14.7031H25.8477C25.307 14.7031 24.8672 15.143 24.8672 15.6837V17.7024C24.8672 18.2431 25.307 18.6829 25.8477 18.6829H27.8664C28.4071 18.6829 28.847 18.2431 28.847 17.7024V15.6837ZM27.6703 17.5062H26.0438V15.8798H27.6703V17.5062Z" fill="currentColor" />
    <path d="M33.7532 15.6837C33.7532 15.143 33.3134 14.7031 32.7727 14.7031H30.754C30.2133 14.7031 29.7734 15.143 29.7734 15.6837V17.7024C29.7734 18.2431 30.2133 18.6829 30.754 18.6829H32.7727C33.3134 18.6829 33.7532 18.2431 33.7532 17.7024V15.6837ZM32.5766 17.5062H30.9501V15.8798H32.5766V17.5062Z" fill="currentColor" />
    <path d="M23.9407 15.6837C23.9407 15.143 23.5009 14.7031 22.9602 14.7031H20.9415C20.4008 14.7031 19.9609 15.143 19.9609 15.6837V17.7024C19.9609 18.2431 20.4008 18.6829 20.9415 18.6829H22.9602C23.5009 18.6829 23.9407 18.2431 23.9407 17.7024V15.6837ZM22.7641 17.5062H21.1376V15.8798H22.7641V17.5062Z" fill="currentColor" />
    <path d="M28.847 20.7579C28.847 20.2172 28.4071 19.7773 27.8664 19.7773H25.8477C25.307 19.7773 24.8672 20.2172 24.8672 20.7579V22.7766C24.8672 23.3173 25.307 23.7571 25.8477 23.7571H27.8664C28.4071 23.7571 28.847 23.3173 28.847 22.7766V20.7579ZM27.6703 22.5805H26.0438V20.954H27.6703V22.5805Z" fill="currentColor" />
    <path d="M23.9407 20.7579C23.9407 20.2172 23.5009 19.7773 22.9602 19.7773H20.9415C20.4008 19.7773 19.9609 20.2172 19.9609 20.7579V22.7766C19.9609 23.3173 20.4008 23.7571 20.9415 23.7571H22.9602C23.5009 23.7571 23.9407 23.3173 23.9407 22.7766V20.7579ZM22.7641 22.5805H21.1376V20.954H22.7641V22.5805Z" fill="currentColor" />
    <path d="M27.8664 24.2734H25.8477C25.307 24.2734 24.8672 24.7133 24.8672 25.254V27.2727C24.8672 27.8135 25.307 28.2533 25.8477 28.2533H27.8664C28.4071 28.2533 28.847 27.8135 28.847 27.2727V25.254C28.847 24.7133 28.4071 24.2734 27.8664 24.2734ZM27.6703 27.0766H26.0438V25.4501H27.6703V27.0766Z" fill="currentColor" />
    <path d="M32.7727 19.7773H30.754C30.2133 19.7773 29.7734 20.2172 29.7734 20.7579V27.2736C29.7734 27.8143 30.2133 28.2542 30.754 28.2542H32.7727C33.3134 28.2542 33.7532 27.8143 33.7532 27.2736V20.7579C33.7532 20.2172 33.3134 19.7773 32.7727 19.7773ZM32.5766 27.0775H30.9501V20.954H32.5766V27.0775Z" fill="currentColor" />
    <path d="M22.9602 24.2734H20.9415C20.4008 24.2734 19.9609 24.7133 19.9609 25.254V27.2727C19.9609 27.8135 20.4008 28.2533 20.9415 28.2533H22.9602C23.5009 28.2533 23.9407 27.8135 23.9407 27.2727V25.254C23.9407 24.7133 23.5009 24.2734 22.9602 24.2734ZM22.7641 27.0766H21.1376V25.4501H22.7641V27.0766Z" fill="currentColor" />
    <path d="M32.6068 2.35156H18.4373C17.9398 2.35156 17.5352 2.75626 17.5352 3.25367V5.27658C17.5352 5.774 17.9398 6.17869 18.4373 6.17869H32.6068C33.1042 6.17869 33.5089 5.774 33.5089 5.27658V3.25367C33.5089 2.75626 33.1042 2.35156 32.6068 2.35156ZM32.3323 5.00203H18.7118V3.52822H32.3323V5.00203Z" fill="currentColor" />
  </g>
</svg>