<svg width="40" height="40" viewBox="0 0 40 40" fill="none" xmlns="http://www.w3.org/2000/svg">
  <path d="M39.7267 23.884C39.5827 23.6493 39.3323 23.5092 39.0569 23.5092H38.9173L33.2714 11.0706H34.5932C35.4791 11.0706 36.1999 10.3498 36.1999 9.46389C36.1999 8.57795 35.4791 7.85717 34.5932 7.85717H21.7385V5.74155C22.5796 5.17874 23.1346 4.22046 23.1346 3.13468C23.1346 1.40625 21.7284 0 20 0C18.2715 0 16.8653 1.40625 16.8653 3.13468C16.8653 4.22046 17.4203 5.17874 18.2614 5.74155V7.85709H5.40662C4.52061 7.85709 3.79991 8.57787 3.79991 9.46381C3.79991 10.3497 4.52069 11.0705 5.40662 11.0705H6.72842L1.08249 23.5091H0.94296C0.66757 23.5091 0.41718 23.6493 0.273117 23.8839C0.129055 24.1186 0.117493 24.4054 0.242258 24.6511L1.26272 26.6596C1.6578 27.4374 2.44522 27.9206 3.31764 27.9206H12.346C13.2184 27.9206 14.0057 27.4374 14.4009 26.6596L15.4213 24.6513C15.5461 24.4057 15.5347 24.119 15.3907 23.8842C15.2466 23.6494 14.9961 23.5092 14.7207 23.5092H14.5812L8.93529 11.0706H18.2613V32.9971H14.0217C12.9809 32.9971 12.1342 33.8438 12.1342 34.8846V35.9106H11.1954C10.1546 35.9106 9.30787 36.7573 9.30787 37.798V39.412C9.30787 39.7367 9.57107 40 9.89583 40H30.104C30.4288 40 30.692 39.7368 30.692 39.412V37.798C30.692 36.7573 29.8452 35.9106 28.8045 35.9106H27.8656V34.8846C27.8656 33.8438 27.0189 32.9971 25.9781 32.9971H21.7385V16.0181C21.7385 15.6934 21.4753 15.4301 21.1506 15.4301C20.8258 15.4301 20.5626 15.6933 20.5626 16.0181V32.997H19.4371V10.4826C19.4371 10.1579 19.1739 9.89467 18.8491 9.89467H5.40662C5.16905 9.89467 4.97576 9.70139 4.97576 9.46381C4.97576 9.22623 5.16905 9.03295 5.40662 9.03295H18.8492C19.1739 9.03295 19.4371 8.76975 19.4371 8.44498V6.21928C19.4591 6.22327 19.4813 6.22624 19.5034 6.22975C19.5146 6.23155 19.5258 6.23342 19.537 6.23507C19.5747 6.24061 19.6127 6.24538 19.6507 6.2496C19.6648 6.25116 19.6789 6.25296 19.693 6.25428C19.7288 6.25772 19.7647 6.26022 19.8007 6.26249C19.8164 6.2635 19.8321 6.26491 19.848 6.26561C19.8928 6.26772 19.9376 6.26874 19.9825 6.26905C19.9883 6.26905 19.994 6.26952 19.9999 6.26952C20.0057 6.26952 20.0115 6.26913 20.0173 6.26905C20.0621 6.26882 20.107 6.2678 20.1518 6.26561C20.1676 6.26483 20.1833 6.26343 20.1991 6.26249C20.235 6.26022 20.271 6.25772 20.3068 6.25428C20.3209 6.25288 20.335 6.25116 20.3491 6.2496C20.3871 6.24538 20.425 6.24069 20.4628 6.23514C20.474 6.2335 20.4852 6.23163 20.4964 6.22983C20.5184 6.22632 20.5407 6.22335 20.5626 6.21936V8.44506C20.5626 8.76975 20.8258 9.03303 21.1506 9.03303H34.5931C34.8307 9.03303 35.024 9.22631 35.024 9.46389C35.024 9.70146 34.8307 9.89475 34.5931 9.89475H21.1507C20.8259 9.89475 20.5627 10.1579 20.5627 10.4827V13.231C20.5627 13.5557 20.8259 13.819 21.1507 13.819C21.4754 13.819 21.7386 13.5558 21.7386 13.231V11.0706H31.0646L25.4187 23.5091H25.2792C25.0038 23.5091 24.7533 23.6493 24.6092 23.8841C24.4653 24.1189 24.4538 24.4057 24.5785 24.6511L25.599 26.6596C25.9941 27.4374 26.7815 27.9206 27.6539 27.9206H36.6823C37.5547 27.9206 38.342 27.4374 38.7372 26.6596L39.7577 24.651C39.8824 24.4055 39.8709 24.1187 39.7267 23.884ZM25.9782 34.173C26.3706 34.173 26.6898 34.4922 26.6898 34.8845V35.9106H17.6936C17.3688 35.9106 17.1056 36.1738 17.1056 36.4985C17.1056 36.8232 17.3688 37.0865 17.6936 37.0865H28.8045C29.1968 37.0865 29.516 37.4057 29.516 37.798V38.8241H10.4838V37.798C10.4838 37.4057 10.803 37.0865 11.1954 37.0865H14.9648C15.2896 37.0865 15.5528 36.8233 15.5528 36.4985C15.5528 36.1738 15.2896 35.9106 14.9648 35.9106H13.31V34.8845C13.31 34.4921 13.6293 34.173 14.0216 34.173H25.9782ZM13.3525 26.1271C13.159 26.508 12.7733 26.7446 12.346 26.7446H3.31772C2.89038 26.7446 2.50468 26.508 2.31116 26.1271L1.57851 24.685H14.0852L13.3525 26.1271ZM13.2969 23.5091H2.36679L7.83185 11.469L13.2969 23.5091ZM20.8688 4.88968C20.8474 4.9003 20.8257 4.91038 20.8041 4.92022C20.7931 4.92522 20.7821 4.93046 20.771 4.93522C20.7464 4.94577 20.7217 4.95554 20.6968 4.96507C20.6778 4.97233 20.6585 4.97929 20.6391 4.98601C20.6187 4.99311 20.5982 5.00022 20.5776 5.00663C20.5589 5.01241 20.5398 5.01757 20.5208 5.0228C20.5064 5.02679 20.4921 5.03085 20.4775 5.03452C20.4579 5.03944 20.4381 5.0439 20.4182 5.04827C20.4037 5.0514 20.3892 5.05452 20.3746 5.05733C20.3552 5.06108 20.3357 5.0646 20.316 5.0678C20.2999 5.07046 20.2836 5.07272 20.2674 5.07491C20.2493 5.07741 20.2311 5.07991 20.2128 5.08186C20.1926 5.08405 20.1721 5.08561 20.1518 5.08718C20.1371 5.08835 20.1225 5.08976 20.1078 5.09054C20.072 5.09249 20.0361 5.09366 20 5.09366C19.9639 5.09366 19.928 5.09249 19.8923 5.09054C19.8775 5.08976 19.8629 5.08835 19.8483 5.08718C19.8279 5.08561 19.8075 5.08405 19.7872 5.08186C19.7689 5.07991 19.7508 5.07741 19.7327 5.07491C19.7164 5.07272 19.7002 5.07038 19.684 5.0678C19.6644 5.0646 19.6449 5.06108 19.6254 5.05733C19.6108 5.05452 19.5963 5.0514 19.5818 5.04827C19.562 5.04397 19.5421 5.03952 19.5225 5.03452C19.5081 5.03085 19.4937 5.02679 19.4793 5.0228C19.4603 5.01757 19.4412 5.01241 19.4225 5.00663C19.4018 5.00022 19.3814 4.99311 19.361 4.98601C19.3416 4.97929 19.3223 4.97241 19.3032 4.96507C19.2784 4.95554 19.2536 4.94577 19.2291 4.93522C19.2179 4.93046 19.207 4.92522 19.196 4.92022C19.1743 4.91038 19.1527 4.90038 19.1313 4.88968C18.486 4.5689 18.0413 3.90288 18.0413 3.13468C18.0413 2.05461 18.92 1.17586 20.0001 1.17586C21.0803 1.17586 21.9589 2.05461 21.9589 3.13468C21.9588 3.90288 21.5142 4.5689 20.8688 4.88968ZM32.1681 11.469L37.6331 23.5091H26.7029L32.1681 11.469ZM37.6887 26.1271C37.4952 26.508 37.1095 26.7446 36.6822 26.7446H27.6538C27.2265 26.7446 26.8408 26.508 26.6473 26.1271L25.9146 24.685H38.4213L37.6887 26.1271Z" fill="currentColor" />
</svg>