<svg width="40" height="40" viewBox="0 0 40 40" fill="none" xmlns="http://www.w3.org/2000/svg">
  <path d="M6.87109 12.4883H12.4968C12.8204 12.4883 13.0827 12.226 13.0827 11.9023C13.0827 11.5787 12.8204 11.3164 12.4968 11.3164H6.87109C6.5475 11.3164 6.28516 11.5787 6.28516 11.9023C6.28516 12.226 6.54742 12.4883 6.87109 12.4883Z" fill="currentColor" />
  <path d="M24.727 15.8945H6.87109C6.5475 15.8945 6.28516 16.1568 6.28516 16.4805C6.28516 16.8041 6.5475 17.0664 6.87109 17.0664H24.7271C25.0507 17.0664 25.313 16.8041 25.313 16.4805C25.313 16.1568 25.0506 15.8945 24.727 15.8945Z" fill="currentColor" />
  <path d="M24.727 20.4727H6.87109C6.5475 20.4727 6.28516 20.7349 6.28516 21.0586C6.28516 21.3823 6.5475 21.6445 6.87109 21.6445H24.7271C25.0507 21.6445 25.313 21.3823 25.313 21.0586C25.313 20.7349 25.0506 20.4727 24.727 20.4727Z" fill="currentColor" />
  <path d="M37.2498 29.1585C37.5734 29.1585 37.8358 28.8963 37.8358 28.5726V25.0702C37.8358 24.0674 37.0156 23.2722 36.0379 23.2722H29.4332V2.30289C29.4332 1.03305 28.4002 0 27.1303 0H25.5486C25.225 0 24.9627 0.262266 24.9627 0.585938C24.9627 0.909609 25.225 1.17188 25.5486 1.17188H27.1303C27.7539 1.17188 28.2613 1.67922 28.2613 2.30289V23.2723H16.0399C15.0648 23.2723 14.2523 24.0605 14.2424 25.052H6.87078C6.54719 25.052 6.28484 25.3143 6.28484 25.638C6.28484 25.9616 6.54719 26.2239 6.87078 26.2239H14.242V34.1324H4.46695C3.84336 34.1324 3.33594 33.6251 3.33594 33.0014V8.27984H8.14117C9.41094 8.27984 10.4441 7.2468 10.4441 5.97695V1.17188H22.8143C23.1379 1.17188 23.4002 0.909609 23.4002 0.585938C23.4002 0.262266 23.1379 0 22.8143 0H9.85813C9.71063 0 9.5582 0.0571875 9.44383 0.171563L2.3357 7.27961C2.22305 7.39242 2.16406 7.54524 2.16406 7.69399V33.0015C2.16406 34.2713 3.19711 35.3044 4.46695 35.3044H14.242V38.2022C14.242 39.1945 15.0513 40.0002 16.0399 40.0002H36.0378C37.0348 40.0002 37.8357 39.1858 37.8357 38.2022V31.3071C37.8357 30.9834 37.5734 30.7212 37.2498 30.7212C36.9262 30.7212 36.6638 30.9834 36.6638 31.3071V37.8641L29.9269 30.226L36.6627 25.0486C36.663 25.0559 36.6638 25.063 36.6638 25.0703V28.5727C36.6639 28.8963 36.9262 29.1585 37.2498 29.1585ZM9.27219 5.97703C9.27219 6.60063 8.76484 7.10805 8.14117 7.10805H4.16461L9.27211 2.00055V5.97703H9.27219ZM15.4139 37.864C15.4139 27.6469 15.4129 25.11 15.4151 25.0485L22.1509 30.2259L15.4139 37.864ZM28.9957 30.9417L35.9518 38.8281H16.126L23.0821 30.9417C23.8012 31.4944 23.4116 31.195 25.0171 32.429C25.6258 32.8968 26.4699 32.883 27.0608 32.429C28.038 31.6777 27.6234 31.9964 28.9957 30.9417ZM26.3466 31.4998C26.1655 31.6389 25.9124 31.6391 25.7313 31.4998L16.5517 24.4441H28.8473H35.5261L26.3466 31.4998Z" fill="currentColor" />
</svg>