<svg width="20" height="21" viewBox="0 0 20 21" fill="none" xmlns="http://www.w3.org/2000/svg">
<path d="M15.0271 14.5676L18.5963 18.1359L17.4171 19.3151L13.8488 15.7459C12.5211 16.8102 10.8696 17.3891 9.16797 17.3867C5.02797 17.3867 1.66797 14.0267 1.66797 9.88672C1.66797 5.74672 5.02797 2.38672 9.16797 2.38672C13.308 2.38672 16.668 5.74672 16.668 9.88672C16.6704 11.5884 16.0915 13.2398 15.0271 14.5676ZM13.3555 13.9492C14.4131 12.8616 15.0037 11.4037 15.0013 9.88672C15.0013 6.66339 12.3905 4.05339 9.16797 4.05339C5.94464 4.05339 3.33464 6.66339 3.33464 9.88672C3.33464 13.1092 5.94464 15.7201 9.16797 15.7201C10.685 15.7224 12.1429 15.1318 13.2305 14.0742L13.3555 13.9492Z" fill="currentColor"/>
</svg>
