<svg width="32" height="32" viewBox="0 0 32 32" fill="none" xmlns="http://www.w3.org/2000/svg">
<path d="M29.1381 28.1955L21.3248 20.3822C23.1631 18.299 24.1184 15.5821 23.9884 12.8068C23.8585 10.0315 22.6535 7.41577 20.6287 5.51343C18.6037 3.61108 15.918 2.57151 13.14 2.61483C10.3621 2.65815 7.71 3.78097 5.74544 5.74553C3.78088 7.71009 2.65806 10.3621 2.61474 13.1401C2.57142 15.9181 3.61099 18.6038 5.51333 20.6287C7.41568 22.6535 10.0314 23.8586 12.8067 23.9885C15.582 24.1185 18.2989 23.1631 20.3821 21.3249L28.1955 29.1382L29.1381 28.1955ZM13.3335 22.6669C11.4874 22.6669 9.68292 22.1194 8.14807 21.0938C6.61322 20.0683 5.41694 18.6106 4.71052 16.9051C4.0041 15.1998 3.81927 13.3231 4.1794 11.5126C4.53952 9.70215 5.42844 8.03911 6.73372 6.73381C8.03902 5.42853 9.70206 4.53961 11.5125 4.17949C13.323 3.81936 15.1997 4.00419 16.9051 4.71061C18.6105 5.41703 20.0683 6.61331 21.0937 8.14816C22.1193 9.68301 22.6668 11.4875 22.6668 13.3335C22.664 15.8079 21.6797 18.1803 19.93 19.9301C18.1803 21.6798 15.8079 22.6641 13.3335 22.6669Z" fill="currentColor"/>
</svg>
