<svg width="40" height="40" viewBox="0 0 40 40" fill="none" xmlns="http://www.w3.org/2000/svg">
  <g clip-path="url(#clip0_530_7493)">
    <path d="M20 16.4844C20.3236 16.4844 20.5859 16.222 20.5859 15.8984C20.5859 15.5748 20.3236 15.3125 20 15.3125C19.6764 15.3125 19.4141 15.5748 19.4141 15.8984C19.4141 16.222 19.6764 16.4844 20 16.4844Z" fill="currentColor" />
    <path d="M15.9167 19.2879C16.2245 19.3879 16.5551 19.2195 16.6551 18.9117C16.7551 18.604 16.5866 18.2734 16.2789 18.1734C15.9712 18.0734 15.6406 18.2418 15.5406 18.5495C15.4406 18.8573 15.609 19.1878 15.9167 19.2879Z" fill="currentColor" />
    <path d="M18.0639 23.6609C18.2541 23.3991 18.1961 23.0326 17.9343 22.8424C17.6725 22.6522 17.3061 22.7102 17.1159 22.972C16.9256 23.2338 16.9837 23.6003 17.2455 23.7905C17.5073 23.9807 17.8737 23.9227 18.0639 23.6609Z" fill="currentColor" />
    <path d="M22.7546 23.7905C23.0164 23.6002 23.0745 23.2338 22.8842 22.972C22.694 22.7102 22.3276 22.6522 22.0658 22.8424C21.804 23.0327 21.7459 23.3991 21.9362 23.6609C22.1264 23.9227 22.4928 23.9807 22.7546 23.7905Z" fill="currentColor" />
    <path d="M24.0836 19.2879C24.3913 19.1879 24.5598 18.8574 24.4598 18.5495C24.3598 18.2418 24.0292 18.0734 23.7214 18.1734C23.4137 18.2734 23.2452 18.6039 23.3452 18.9117C23.4452 19.2195 23.7759 19.3878 24.0836 19.2879Z" fill="currentColor" />
    <path d="M20 5.85938C17.4242 5.85938 14.9024 6.55922 12.7071 7.88328C12.43 8.05039 12.3409 8.41047 12.508 8.68758C12.6751 8.96477 13.0352 9.05398 13.3123 8.88672C15.325 7.67289 17.6375 7.03125 20 7.03125C27.151 7.03125 32.9688 12.8491 32.9688 20C32.9688 27.1509 27.151 32.9688 20 32.9688C12.849 32.9688 7.03125 27.1509 7.03125 20C7.03125 16.2426 8.65961 12.673 11.4988 10.2063C11.7431 9.99406 11.7691 9.62398 11.5569 9.37969C11.3447 9.13539 10.9746 9.10938 10.7302 9.32164C7.63477 12.0109 5.85938 15.9031 5.85938 20C5.85938 27.7972 12.2028 34.1406 20 34.1406C27.7972 34.1406 34.1406 27.7972 34.1406 20C34.1406 12.2028 27.7972 5.85938 20 5.85938Z" fill="currentColor" />
    <path d="M34.1422 5.85781C30.3646 2.08039 25.3422 0 20 0C14.6578 0 9.63539 2.08039 5.85781 5.85781C2.08039 9.63531 0 14.6578 0 20C0 25.3422 2.08039 30.3647 5.85781 34.1422C9.63539 37.9196 14.6578 40 20 40C25.3422 40 30.3646 37.9196 34.1422 34.1422C37.9196 30.3647 40 25.3422 40 20C40 14.6578 37.9196 9.63531 34.1422 5.85781ZM38.0799 25.2584L36.4159 24.7177C36.1081 24.6177 35.7776 24.7862 35.6776 25.0939C35.5776 25.4016 35.7459 25.7322 36.0537 25.8322L37.717 26.3727C37.1755 27.8735 36.4487 29.2864 35.5638 30.5835L34.1545 29.5596C33.8927 29.3694 33.5263 29.4274 33.3361 29.6892C33.1459 29.951 33.2039 30.3174 33.4657 30.5077L34.8736 31.5305C33.9032 32.7795 32.7795 33.9032 31.5305 34.8736L30.5077 33.4657C30.3174 33.2038 29.951 33.1459 29.6892 33.3361C29.4274 33.5263 29.3694 33.8927 29.5596 34.1545L30.5835 35.5638C29.2864 36.4487 27.8735 37.1755 26.3727 37.717L25.8322 36.0537C25.7322 35.7459 25.4016 35.5776 25.0938 35.6776C24.7861 35.7776 24.6177 36.1081 24.7177 36.4159L25.2584 38.0799C23.7682 38.514 22.2024 38.7684 20.5859 38.8181V37.0703C20.5859 36.7466 20.3235 36.4844 19.9999 36.4844C19.6763 36.4844 19.414 36.7466 19.414 37.0703V38.8181C17.7974 38.7684 16.2316 38.514 14.7415 38.0799L15.2822 36.4159C15.3822 36.1081 15.2137 35.7776 14.906 35.6776C14.5983 35.5776 14.2677 35.7459 14.1677 36.0537L13.6272 37.717C12.1263 37.1755 10.7134 36.4487 9.41633 35.5638L10.4402 34.1545C10.6305 33.8927 10.5724 33.5262 10.3106 33.3361C10.0488 33.1459 9.68242 33.2039 9.49219 33.4657L8.4693 34.8736C7.22039 33.9032 6.09664 32.7795 5.12625 31.5305L6.53414 30.5077C6.79594 30.3174 6.85398 29.951 6.66375 29.6892C6.47352 29.4274 6.10711 29.3694 5.84531 29.5596L4.43602 30.5835C3.55117 29.2864 2.8243 27.8735 2.28281 26.3727L3.94609 25.8322C4.25391 25.7322 4.42227 25.4016 4.32227 25.0939C4.22227 24.7862 3.89172 24.6177 3.58391 24.7177L1.91992 25.2584C1.48578 23.7683 1.23141 22.2025 1.18172 20.5859H2.92969C3.25336 20.5859 3.51562 20.3236 3.51562 20C3.51562 19.6764 3.25336 19.4141 2.92969 19.4141H1.18187C1.23156 17.7975 1.48602 16.2317 1.92008 14.7416L3.58406 15.2823C3.89188 15.3823 4.22242 15.2138 4.32242 14.9061C4.42242 14.5984 4.25406 14.2678 3.94625 14.1678L2.28297 13.6273C2.82445 12.1265 3.55133 10.7136 4.43617 9.41648L5.84547 10.4404C6.10727 10.6306 6.47367 10.5726 6.66391 10.3108C6.85414 10.049 6.79609 9.68258 6.5343 9.49234L5.12641 8.46945C6.0968 7.22055 7.22055 6.0968 8.46945 5.12641L9.49234 6.5343C9.68258 6.79609 10.049 6.85414 10.3108 6.66391C10.5726 6.47367 10.6306 6.10727 10.4404 5.84547L9.41648 4.43617C10.7136 3.55133 12.1265 2.82445 13.6273 2.28297L14.1678 3.94625C14.2678 4.25406 14.5984 4.42242 14.9062 4.32242C15.2139 4.22242 15.3823 3.89188 15.2823 3.58406L14.7416 1.92008C16.2318 1.48602 17.7976 1.23156 19.4141 1.18187V2.92969C19.4141 3.25336 19.6765 3.51562 20.0001 3.51562C20.3237 3.51562 20.586 3.25336 20.586 2.92969V1.18187C22.2026 1.23156 23.7684 1.48602 25.2585 1.92008L24.7178 3.58406C24.6178 3.89188 24.7863 4.22242 25.094 4.32242C25.4017 4.42242 25.7323 4.25406 25.8323 3.94625L26.3728 2.28297C27.8737 2.82445 29.2866 3.55133 30.5837 4.43617L29.5598 5.84547C29.3695 6.10734 29.4276 6.47375 29.6894 6.66391C29.9512 6.85406 30.3176 6.79609 30.5078 6.5343L31.5307 5.12641C32.7796 6.0968 33.9034 7.22055 34.8737 8.46945L33.4659 9.49234C33.2041 9.68258 33.146 10.049 33.3363 10.3108C33.5265 10.5726 33.8929 10.6306 34.1547 10.4404L35.564 9.41648C36.4488 10.7136 37.1757 12.1265 37.7172 13.6273L36.0539 14.1678C35.7461 14.2678 35.5777 14.5984 35.6777 14.9061C35.7777 15.2138 36.1083 15.3823 36.4161 15.2823L38.0801 14.7416C38.5142 16.2317 38.7686 17.7975 38.8183 19.4141H37.0703C36.7466 19.4141 36.4844 19.6764 36.4844 20C36.4844 20.3236 36.7466 20.5859 37.0703 20.5859H38.8181C38.7684 22.2025 38.514 23.7683 38.0799 25.2584Z" fill="currentColor" />
    <path d="M17.6562 20C17.6562 21.2923 18.7077 22.3438 20 22.3438C21.2923 22.3438 22.3438 21.2923 22.3438 20C22.3438 18.7077 21.2923 17.6562 20 17.6562C18.7077 17.6562 17.6562 18.7077 17.6562 20ZM20 18.8281C20.6462 18.8281 21.1719 19.3538 21.1719 20C21.1719 20.6462 20.6462 21.1719 20 21.1719C19.3538 21.1719 18.8281 20.6462 18.8281 20C18.8281 19.3538 19.3538 18.8281 20 18.8281Z" fill="currentColor" />
    <path d="M21.8489 8.34707C21.6797 8.32019 21.5073 8.3691 21.377 8.48043C21.2468 8.59176 21.1719 8.75449 21.1719 8.92582V12.7409C21.1719 14.069 21.7881 15.2785 22.8627 16.0592C23.5779 16.5788 24.4108 16.8466 25.2605 16.8466C25.6873 16.8466 26.1186 16.779 26.5409 16.6418L30.1704 15.4625C30.3335 15.4094 30.4652 15.2877 30.5308 15.1291C30.5963 14.9705 30.5891 14.7914 30.5111 14.6386C28.7966 11.2832 25.5584 8.93121 21.8489 8.34707ZM26.1787 15.5272C25.2765 15.8204 24.3188 15.6687 23.5513 15.1111C22.7838 14.5535 22.3437 13.6896 22.3437 12.7409V9.63418C25.1752 10.2734 27.6418 12.0654 29.1333 14.5672L26.1787 15.5272Z" fill="currentColor" />
    <path d="M12.7348 18.8718L9.10641 17.6928C8.94312 17.6396 8.76492 17.661 8.61875 17.7507C8.4725 17.8404 8.37297 17.9899 8.34641 18.1592C8.25133 18.7659 8.20312 19.3853 8.20312 20.0002C8.20312 23.1496 9.42914 26.111 11.6553 28.3388C11.7656 28.4492 11.9149 28.5105 12.0698 28.5105C12.085 28.5105 12.1004 28.5099 12.1156 28.5087C12.2866 28.4953 12.443 28.4077 12.5437 28.269L14.7855 25.1835C15.5662 24.1089 15.7785 22.7683 15.3681 21.5052C14.9577 20.242 13.998 19.2822 12.7348 18.8718ZM13.8376 24.4946L12.0123 27.007C10.3066 25.0681 9.375 22.6056 9.375 20.0002C9.375 19.676 9.38984 19.3505 9.41938 19.0267L12.3727 19.9863C13.275 20.2795 13.9605 20.965 14.2537 21.8672C14.5469 22.7695 14.3952 23.7271 13.8376 24.4946Z" fill="currentColor" />
    <path d="M18.624 8.48043C18.4938 8.3691 18.3214 8.32019 18.1521 8.34707C14.4426 8.93121 11.2044 11.2832 9.48994 14.6386C9.4119 14.7914 9.40471 14.9706 9.47026 15.1291C9.5358 15.2876 9.66752 15.4094 9.83065 15.4625L13.4602 16.6418C13.8826 16.779 14.3136 16.8466 14.7406 16.8466C15.5903 16.8466 16.4234 16.5788 17.1385 16.0592C18.2129 15.2785 18.8292 14.069 18.8292 12.7409V8.92582C18.8292 8.75441 18.7542 8.59168 18.624 8.48043ZM17.6573 12.7409C17.6573 13.6896 17.2171 14.5535 16.4496 15.1111C15.6822 15.6688 14.7245 15.8205 13.8223 15.5272L10.8677 14.5672C12.3592 12.0655 14.8258 10.2734 17.6573 9.63418V12.7409Z" fill="currentColor" />
    <path d="M27.8832 28.5085C27.8985 28.5098 27.9138 28.5103 27.9291 28.5103C28.0839 28.5103 28.2332 28.449 28.3435 28.3386C30.5698 26.1108 31.7958 23.1495 31.7958 20C31.7958 19.3851 31.7476 18.7657 31.6525 18.1591C31.626 17.9897 31.5264 17.8403 31.3802 17.7506C31.2339 17.6609 31.0558 17.6397 30.8925 17.6927L27.264 18.8717C26.001 19.2821 25.0411 20.242 24.6306 21.5051C24.2202 22.7682 24.4326 24.1088 25.2133 25.1834L27.4551 28.2689C27.5559 28.4075 27.7123 28.4952 27.8832 28.5085ZM25.7452 21.867C26.0383 20.9649 26.7239 20.2793 27.6262 19.9861L30.5796 19.0265C30.6091 19.3503 30.6239 19.6759 30.6239 20C30.6239 22.6055 29.6924 25.0679 27.9867 27.0069L26.1614 24.4945C25.6038 23.727 25.4521 22.7693 25.7452 21.867Z" fill="currentColor" />
    <path d="M14.6478 30.5155C16.3158 31.3664 18.117 31.7978 20.0013 31.7978C21.8856 31.7978 23.6868 31.3664 25.3548 30.5155C25.5075 30.4377 25.6184 30.2969 25.6583 30.1302C25.6983 29.9636 25.6633 29.7878 25.5626 29.6492L23.3195 26.5618C22.5389 25.4873 21.3294 24.8711 20.0013 24.8711C18.6732 24.8711 17.4637 25.4873 16.6831 26.5619L14.4401 29.6493C14.3393 29.7879 14.3043 29.9637 14.3443 30.1303C14.3842 30.2969 14.4951 30.4377 14.6478 30.5155ZM17.6311 27.2506C18.1888 26.4831 19.0526 26.043 20.0013 26.043C20.95 26.043 21.8139 26.4831 22.3715 27.2506L24.1985 29.7652C22.8748 30.3367 21.4661 30.6259 20.0013 30.6259C18.5365 30.6259 17.1278 30.3367 15.8042 29.7652L17.6311 27.2506Z" fill="currentColor" />
  </g>
</svg>