<svg width="40" height="40" viewBox="0 0 40 40" fill="none" xmlns="http://www.w3.org/2000/svg">
  <path d="M16.8192 31.3203C15.6588 31.3203 14.7148 32.2643 14.7148 33.4247C14.7148 34.585 15.6588 35.529 16.8192 35.529C17.9796 35.529 18.9236 34.585 18.9236 33.4247C18.9235 32.2643 17.9795 31.3203 16.8192 31.3203ZM16.8192 34.3571C16.3051 34.3571 15.8867 33.9388 15.8867 33.4247C15.8867 32.9105 16.305 32.4922 16.8192 32.4922C17.3334 32.4922 17.7517 32.9105 17.7517 33.4247C17.7517 33.9389 17.3334 34.3571 16.8192 34.3571Z" fill="currentColor" />
  <path d="M29.4219 33.4247C29.4219 34.585 30.3659 35.529 31.5263 35.529C32.6866 35.529 33.6305 34.585 33.6305 33.4247C33.6305 32.2643 32.6866 31.3203 31.5263 31.3203C30.3659 31.3203 29.4219 32.2643 29.4219 33.4247ZM32.4586 33.4247C32.4586 33.9388 32.0403 34.3571 31.5262 34.3571C31.012 34.3571 30.5937 33.9388 30.5937 33.4247C30.5937 32.9105 31.012 32.4922 31.5262 32.4922C32.0404 32.4922 32.4586 32.9105 32.4586 33.4247Z" fill="currentColor" />
  <path d="M38.2292 8.92708H26.0503C25.7266 8.92708 25.4644 9.18943 25.4644 9.51302C25.4644 9.83661 25.7266 10.099 26.0503 10.099H38.2292C38.5595 10.099 38.8281 10.3676 38.8281 10.6979C38.8281 11.0281 38.5595 11.2968 38.2292 11.2968C37.2855 11.2968 13.2432 11.2968 11.9156 11.2968L11.7006 10.099H23.316C23.6397 10.099 23.9019 9.83661 23.9019 9.51302C23.9019 9.18943 23.6397 8.92708 23.316 8.92708H11.4901L10.73 4.69288C10.7292 4.68858 10.7283 4.68421 10.7275 4.67991C10.4272 3.19953 9.11293 2.125 7.60231 2.125C6.08568 2.125 2.77444 2.125 1.77077 2.125C0.794372 2.125 0 2.91937 0 3.89577C0 4.87218 0.794372 5.66655 1.77077 5.66655H7.30724L11.2401 27.5739C11.2409 27.5783 11.2418 27.5826 11.2425 27.5869C11.5087 28.8984 12.5708 29.8906 13.8599 30.1C12.9443 30.9165 12.3664 32.1038 12.3664 33.424C12.3664 35.8801 14.3646 37.8782 16.8206 37.8782C19.2767 37.8782 21.2748 35.8801 21.2748 33.424C21.2748 32.1262 20.7166 30.9565 19.828 30.1417H28.5179C27.6292 30.9565 27.071 32.1262 27.071 33.424C27.071 35.8801 29.0691 37.8782 31.5253 37.8782C33.3665 37.8782 35.0411 36.721 35.6922 34.9984C35.8067 34.6957 35.654 34.3575 35.3513 34.2432C35.0485 34.1289 34.7106 34.2813 34.596 34.5841C34.1162 35.8535 32.8821 36.7064 31.5253 36.7064C29.7154 36.7064 28.2429 35.234 28.2429 33.4241C28.2429 31.6142 29.7154 30.1418 31.5253 30.1418C32.8821 30.1418 34.1162 30.9947 34.596 32.2641C34.7105 32.5668 35.0485 32.7194 35.3513 32.605C35.654 32.4906 35.8067 32.1525 35.6922 31.8498C35.4408 31.1847 35.0363 30.6043 34.529 30.1418H35.2138C36.1903 30.1418 36.9846 29.3475 36.9846 28.3711C36.9846 27.3947 36.1903 26.6003 35.2138 26.6003H14.6628L14.4515 25.4232H34.6396C35.8163 25.4232 36.7983 24.5196 36.9742 23.2746L38.5042 12.4475C39.3505 12.315 40 11.5811 40 10.6982C40 9.72146 39.2056 8.92708 38.2292 8.92708ZM6.28435 4.49468H1.77077C1.44054 4.49468 1.17187 4.22601 1.17187 3.89577C1.17187 3.56554 1.44054 3.29687 1.77077 3.29687H6.28435V4.49468ZM15.4785 12.4686L16.0284 17.7739H13.0783L12.1259 12.4686H15.4785ZM20.1029 33.424C20.1029 35.2339 18.6304 36.7063 16.8206 36.7063C15.0107 36.7063 13.5382 35.2339 13.5382 33.424C13.5382 31.6141 15.0107 30.1417 16.8206 30.1417C18.6304 30.1417 20.1029 31.6141 20.1029 33.424ZM35.2137 27.7719C35.544 27.7719 35.8127 28.0406 35.8127 28.3708C35.8127 28.7011 35.544 28.9697 35.2137 28.9697H14.3678C13.4144 28.9697 12.5846 28.293 12.3923 27.3597L8.40762 5.16397C8.40684 5.15968 8.40598 5.15538 8.4052 5.151C8.32809 4.77069 7.99036 4.49468 7.60231 4.49468H7.45622V3.29687H7.60224C8.55567 3.29687 9.38551 3.97359 9.57778 4.90686L13.5624 27.1027C13.5632 27.1071 13.5641 27.1114 13.5649 27.1158C13.6421 27.4961 13.9798 27.772 14.3678 27.772H35.2137V27.7719ZM14.2411 24.2511L13.2887 18.9458H16.1499L16.6998 24.2511H14.2411ZM16.6566 12.4686H19.938L20.132 17.7739H17.2064L16.6566 12.4686ZM17.878 24.2511L17.3281 18.9458H20.175L20.3691 24.2511H17.878ZM24.0972 24.2511H21.5417L21.3477 18.9458H24.0972V24.2511ZM24.0972 17.7739H21.3048L21.1107 12.4686H24.0972V17.7739ZM27.8245 24.2511H25.269V18.9458H28.0186L27.8245 24.2511ZM28.0615 17.7739H25.269V12.4686H28.2555L28.0615 17.7739ZM31.5641 24.2511H28.9972L29.1912 18.9458H32.0817L31.5641 24.2511ZM32.196 17.7739H29.2342L29.4282 12.4686H32.7136L32.196 17.7739ZM35.8139 23.1104C35.7205 23.7713 35.2266 24.2511 34.6396 24.2511H32.7416L33.2592 18.9458H36.4024L35.8139 23.1104ZM36.5681 17.7739H33.3735L33.8911 12.4686H37.3177L36.5681 17.7739Z" fill="currentColor" />
</svg>