<svg width="40" height="40" viewBox="0 0 40 40" fill="none" xmlns="http://www.w3.org/2000/svg">
  <path d="M31.5689 28.3945C30.4884 28.3945 29.6094 29.2736 29.6094 30.3541C29.6094 31.4346 30.4884 32.3137 31.5689 32.3137C32.6495 32.3137 33.5285 31.4346 33.5285 30.3541C33.5285 29.2736 32.6495 28.3945 31.5689 28.3945ZM31.5689 31.1417C31.1345 31.1417 30.7812 30.7884 30.7812 30.354C30.7812 29.9197 31.1345 29.5663 31.5689 29.5663C32.0033 29.5663 32.3566 29.9197 32.3566 30.354C32.3566 30.7884 32.0032 31.1417 31.5689 31.1417Z" fill="currentColor" />
  <path d="M8.02984 28.3945C6.94937 28.3945 6.07031 29.2736 6.07031 30.3541C6.07031 31.4346 6.94937 32.3137 8.02984 32.3137C9.11031 32.3137 9.98937 31.4346 9.98937 30.3541C9.98937 29.2736 9.11031 28.3945 8.02984 28.3945ZM8.02984 31.1417C7.59547 31.1417 7.24219 30.7884 7.24219 30.354C7.24219 29.9197 7.59547 29.5663 8.02984 29.5663C8.46422 29.5663 8.8175 29.9197 8.8175 30.354C8.8175 30.7884 8.46414 31.1417 8.02984 31.1417Z" fill="currentColor" />
  <path d="M39.1403 27.5472C39.1403 26.4446 39.1403 23.5186 39.1403 23.0097C39.1403 21.9036 38.4746 20.9287 37.4445 20.5259L35.0141 19.5759C34.7102 19.4571 34.4517 19.2398 34.282 18.9617C32.392 14.1303 32.5149 14.4233 32.4742 14.3524C32.0002 13.5259 31.1137 13.0126 30.1609 13.0126H25.3996V11.3839C25.3996 11.0603 25.1373 10.798 24.8137 10.798C24.49 10.798 24.2277 11.0603 24.2277 11.3839V27.5348H11.2509C10.4081 26.5687 9.22922 26.0724 8.02891 26.0724C6.82922 26.0724 5.65023 26.568 4.80688 27.5348H1.80812V26.1547H4.24914C4.80586 26.1547 5.25875 25.7018 5.25875 25.1451V23.3866C5.25875 22.8299 4.80586 22.377 4.24922 22.377H1.80812V6.96789C1.80812 6.73148 2.00055 6.53906 2.23695 6.53906H23.7989C24.0353 6.53906 24.2277 6.73133 24.2277 6.96773V8.64945C24.2277 8.97305 24.4899 9.23539 24.8136 9.23539C25.1373 9.23539 25.3995 8.97305 25.3995 8.64945V6.96773C25.3995 6.08516 24.6815 5.36719 23.7989 5.36719H2.23695C1.3543 5.36719 0.63625 6.08523 0.63625 6.96789V27.6072C0.263984 27.756 0 28.1197 0 28.5444V30.3029C0 30.8595 0.452891 31.3125 1.00953 31.3125H3.85711C4.29375 33.213 5.99781 34.6351 8.02883 34.6351C10.0598 34.6351 11.7639 33.213 12.2005 31.3125H18.2761C18.5998 31.3125 18.862 31.0502 18.862 30.7266C18.862 30.403 18.5998 30.1406 18.2761 30.1406H12.3049C12.2847 29.7005 12.1823 29.1848 11.9825 28.7067H27.6156C27.4209 29.1727 27.3145 29.6784 27.2932 30.1406H21.0105C20.6868 30.1406 20.4245 30.403 20.4245 30.7266C20.4245 31.0502 20.6868 31.3125 21.0105 31.3125H27.3976C27.8342 33.213 29.5383 34.6351 31.5693 34.6351C33.6003 34.6351 35.3044 33.213 35.741 31.3125H38.9902C39.547 31.3125 39.9998 30.8596 39.9998 30.3029V28.5444C39.9999 28.0388 39.6259 27.62 39.1403 27.5472ZM1.80812 23.5489H4.08687V24.9828H1.80812V23.5489ZM3.75273 30.1406H1.17188V28.7066H4.07516C3.88297 29.1666 3.77422 29.6742 3.75273 30.1406ZM11.1383 30.3538C11.1383 32.0527 9.75695 33.4632 8.02883 33.4632C6.40398 33.4632 5.06703 32.2102 4.93156 30.6198C4.77734 28.8002 6.21031 27.2443 8.02883 27.2443C9.72391 27.2443 11.1383 28.6207 11.1383 30.3536V30.3538ZM32.1184 16.6444C33.3045 19.6159 33.1366 19.3557 33.3337 19.6541H28.0223V16.6444H32.1184ZM31.5694 33.4632C29.8384 33.4632 28.4599 32.0501 28.4599 30.3538C28.4599 30.3538 28.4599 30.3537 28.4599 30.3536C28.4599 28.6291 29.8666 27.2443 31.5694 27.2443C33.3188 27.2443 34.6788 28.6738 34.6788 30.3538C34.6788 32.0533 33.2968 33.4632 31.5694 33.4632ZM31.5694 26.0724C30.3699 26.0724 29.1911 26.5676 28.3473 27.5348H25.3996V14.1845H30.1609C30.6817 14.1845 31.1671 14.458 31.4374 14.9012L31.6606 15.4725H27.9065C27.3242 15.4725 26.8505 15.9462 26.8505 16.5284V19.77C26.8505 20.3523 27.3241 20.826 27.9065 20.826H34.9935L37.0179 21.6174C37.5183 21.813 37.8648 22.2496 37.9485 22.766H35.5275C34.9709 22.766 34.518 23.2189 34.518 23.7755V25.5341C34.518 26.0907 34.9709 26.5437 35.5275 26.5437H37.9685V27.5348H34.7914C33.9492 26.5695 32.7712 26.0724 31.5694 26.0724ZM37.9684 23.9379V25.3718H35.6898V23.9379H37.9684ZM38.828 30.1406H35.8455C35.8241 29.6744 35.7158 29.1678 35.523 28.7067H38.828V30.1406Z" fill="currentColor" />
</svg>