<svg width="40" height="40" viewBox="0 0 40 40" fill="none" xmlns="http://www.w3.org/2000/svg">
  <path d="M18.8031 14.9543C18.8031 13.5299 17.6443 12.3711 16.2199 12.3711C14.7955 12.3711 13.6367 13.5299 13.6367 14.9543C13.6367 16.3787 14.7955 17.5375 16.2199 17.5375C17.6443 17.5375 18.8031 16.3787 18.8031 14.9543ZM14.8077 14.9543C14.8077 14.1755 15.4413 13.542 16.22 13.542C16.9988 13.542 17.6323 14.1755 17.6323 14.9543C17.6323 15.733 16.9988 16.3666 16.22 16.3666C15.4413 16.3666 14.8077 15.7331 14.8077 14.9543Z" fill="currentColor" />
  <path d="M32.1606 25.3946H29.9337V24.4275C29.9337 23.1047 28.8575 22.0285 27.5347 22.0285H22.9559C21.633 22.0285 20.5569 23.1048 20.5569 24.4275V25.3946H18.3298C15.942 25.3946 13.9995 27.3372 13.9995 29.725V35.6696C13.9995 35.6955 14.0009 35.7209 14.0014 35.7466H7.76242C6.06414 35.7466 4.6825 34.365 4.6825 32.6667V12.9816C4.6825 11.2833 6.06414 9.90164 7.76242 9.90164H20.9802C22.6784 9.90164 24.0601 11.2833 24.0601 12.9816V19.7026C24.0601 20.0259 24.3221 20.288 24.6455 20.288C24.9688 20.288 25.2309 20.0259 25.2309 19.7026V12.9816C25.2309 10.6377 23.324 8.73078 20.9801 8.73078H18.0802V3.98445H19.184C19.8013 3.98445 20.3036 3.48219 20.3036 2.86484V1.11969C20.3036 0.502266 19.8013 0 19.184 0H9.55859C8.94125 0 8.43898 0.502266 8.43898 1.11969V2.86484C8.43898 3.48219 8.94125 3.98445 9.55859 3.98445H10.6623V8.73078H7.76242C5.41859 8.73078 3.51172 10.6377 3.51172 12.9816V32.6667C3.51172 34.6136 4.82789 36.2578 6.6168 36.7594C6.53125 37.0116 6.4857 37.277 6.4857 37.5472C6.4857 38.8997 7.58602 40 8.93852 40C10.2909 40 11.3913 38.8997 11.3913 37.5472C11.3913 37.332 11.3621 37.1211 11.3081 36.9175H14.1834C14.7205 38.6987 16.3756 40 18.3297 40H20.8295C21.1528 40 21.4148 39.7379 21.4148 39.4146C21.4148 39.0913 21.1528 38.8292 20.8295 38.8292H18.3297C16.5875 38.8292 15.1702 37.4119 15.1702 35.6697V29.725C15.1702 27.9828 16.5875 26.5655 18.3297 26.5655H32.1605C33.9027 26.5655 35.3201 27.9828 35.3201 29.725V35.6696C35.3201 37.4118 33.9027 38.8291 32.1605 38.8291H24.0418C23.7184 38.8291 23.4564 39.0913 23.4564 39.4145C23.4564 39.7378 23.7185 40 24.0419 40H32.1606C34.5484 40 36.491 38.0574 36.491 35.6696V29.725C36.491 27.3372 34.5484 25.3946 32.1606 25.3946ZM9.60984 1.17086H19.1327V2.81359H9.60984V1.17086ZM11.8331 3.98445H16.9093V8.73078H11.8331V3.98445ZM10.2204 37.5472C10.2204 38.2541 9.64531 38.8291 8.93852 38.8291C8.23172 38.8291 7.65656 38.2541 7.65656 37.5472C7.65656 37.325 7.71398 37.1089 7.82219 36.9175H10.0546C10.1629 37.1088 10.2204 37.3237 10.2204 37.5472ZM21.7276 24.4275C21.7276 23.7503 22.2785 23.1993 22.9558 23.1993H27.5346C28.2118 23.1993 28.7628 23.7502 28.7628 24.4275V25.3946H21.7277V24.4275H21.7276Z" fill="currentColor" />
  <path d="M12.4269 18.7895C12.2251 18.5877 11.9568 18.4766 11.6714 18.4766C11.386 18.4766 11.1177 18.5877 10.9159 18.7895L6.69969 23.0059C6.49781 23.2077 6.38672 23.4759 6.38672 23.7614C6.38672 24.0468 6.49789 24.3151 6.69961 24.5169L8.37625 26.1935C8.58453 26.4018 8.85805 26.5059 9.13164 26.5059C9.40523 26.5059 9.67891 26.4017 9.88711 26.1934L14.1034 21.9771C14.5199 21.5605 14.5199 20.8827 14.1034 20.4662L12.4269 18.7895ZM9.13156 25.293L7.59992 23.7613L11.6714 19.6898L13.203 21.2215L9.13156 25.293Z" fill="currentColor" />
</svg>