<svg width="40" height="40" viewBox="0 0 40 40" fill="none" xmlns="http://www.w3.org/2000/svg">
  <path d="M39.5744 24.8377C38.8135 23.7195 37.2813 23.4236 36.1598 24.1773L31.0551 27.5936L31.0402 16.96L32.8137 18.6213C33.1908 18.9745 33.6825 19.1689 34.1987 19.1689C34.1997 19.1689 34.2008 19.1689 34.2018 19.1689C34.7591 19.1681 35.2973 18.9345 35.6782 18.5279C36.0483 18.1328 36.2424 17.6173 36.2248 17.0763C36.2071 16.5352 35.9798 16.0334 35.5847 15.6633L32.2226 12.5138C31.9924 12.2981 31.6311 12.3099 31.4155 12.5401C31.2 12.7702 31.2118 13.1315 31.4419 13.3471L34.804 16.4966C34.9765 16.6582 35.0757 16.8773 35.0834 17.1134C35.0911 17.3496 35.0064 17.5747 34.8448 17.7471C34.676 17.9273 34.4471 18.0266 34.2001 18.027C34.1996 18.027 34.1992 18.027 34.1987 18.027C33.9735 18.027 33.7589 17.9421 33.5943 17.7879C33.5942 17.7878 33.5942 17.7878 33.5942 17.7878L20.2441 5.28164C20.0241 5.07563 19.6817 5.07594 19.4623 5.28274L6.1468 17.8263C5.97484 17.9884 5.75 18.0732 5.51375 18.0666C5.2775 18.0596 5.0582 17.9609 4.89617 17.7888C4.73414 17.6169 4.64875 17.392 4.65586 17.1559C4.66289 16.9196 4.76156 16.7003 4.93352 16.5383L19.2442 3.05719C19.5834 2.73758 20.1156 2.7368 20.4557 3.05555L28.8281 10.8987C29.0582 11.1142 29.4195 11.1025 29.6352 10.8723C29.8507 10.6422 29.8389 10.2809 29.6088 10.0653L21.2365 2.22219C20.4573 1.49219 19.2384 1.49383 18.4613 2.22602L13.8801 6.54164L13.8788 5.77188C13.8785 5.52922 13.7837 5.30125 13.6119 5.13C13.4404 4.95899 13.2127 4.86485 12.9705 4.86485C12.9701 4.86485 12.9697 4.86485 12.9692 4.86485L9.69211 4.86946C9.44945 4.86977 9.22156 4.96461 9.05023 5.13641C8.87898 5.30821 8.78477 5.53641 8.78516 5.77914L8.79422 11.3328L4.15055 15.7073C3.75648 16.0784 3.53063 16.5809 3.51445 17.122C3.49828 17.663 3.69383 18.178 4.065 18.572C4.43609 18.966 4.93852 19.192 5.47969 19.2081C5.50039 19.2088 5.52109 19.2091 5.5418 19.2091C6.06016 19.2091 6.55102 19.0145 6.92984 18.6575L8.6993 16.9906L8.70633 22.0134C8.13383 21.93 7.55461 21.8863 6.97273 21.8863H5.99578V21.5439C5.99578 20.3946 5.0607 19.4595 3.91141 19.4595H2.08437C0.935078 19.4595 0 20.3945 0 21.5438V30.4906C0 30.8059 0.255625 31.0615 0.570938 31.0615C0.88625 31.0615 1.14188 30.8059 1.14188 30.4906V21.5438C1.14188 21.0241 1.56469 20.6013 2.08437 20.6013H3.91133C4.43102 20.6013 4.85383 21.0241 4.85383 21.5438V22.4571V34.1599V35.0642C4.85383 35.5839 4.43102 36.0067 3.91133 36.0067H2.08437C1.56469 36.0067 1.14188 35.5839 1.14188 35.0642V34.0652C1.14188 33.7498 0.88625 33.4942 0.570938 33.4942C0.255625 33.4942 0 33.7498 0 34.0652V35.0642C0 36.2135 0.935078 37.1486 2.08437 37.1486H3.91133C5.06063 37.1486 5.9957 36.2136 5.9957 35.0642V34.9866L14.357 38.1529C14.3724 38.1588 14.3881 38.1639 14.4041 38.1684C14.7676 38.271 15.1309 38.3225 15.4897 38.3225C15.6838 38.3225 15.8765 38.3074 16.0673 38.2773L28.3548 36.506C28.3577 36.5056 28.3605 36.5052 28.3634 36.5047C29.4081 36.3379 30.3937 35.8963 31.2134 35.2277C31.2205 35.2219 31.2276 35.2159 31.2344 35.2097L39.1727 28.07C40.0972 27.2493 40.2698 25.8597 39.5744 24.8377ZM12.7373 6.00711L12.7399 7.6157L9.9343 10.2587L9.92734 6.01094L12.7373 6.00711ZM19.8548 6.48164L29.8968 15.8888L29.9142 28.357L28.2977 29.4389L26.5859 29.3429L26.5407 28.8882C26.3814 27.2868 25.1992 25.9986 23.636 25.6912L23.6257 18.2736C23.6249 17.7044 23.1615 17.2418 22.5923 17.2418C22.5919 17.2418 22.5915 17.2418 22.5909 17.2418L17.1492 17.2495C16.8732 17.2498 16.6138 17.3577 16.419 17.5531C16.2241 17.7485 16.117 18.0082 16.1173 18.2841L16.1264 24.7514C15.0485 24.505 14.0193 24.098 13.057 23.5352C12.937 23.4649 12.8157 23.3971 12.6934 23.3312C12.6458 23.3055 12.5973 23.2813 12.5493 23.2563C12.4749 23.2174 12.4007 23.1784 12.3255 23.1411C12.2657 23.1114 12.2052 23.0833 12.1448 23.0546C12.0809 23.0242 12.017 22.9935 11.9525 22.9642C11.8869 22.9345 11.8207 22.9061 11.7546 22.8775C11.6942 22.8514 11.6338 22.8252 11.573 22.8001C11.5051 22.772 11.4367 22.7451 11.3683 22.7183C11.3076 22.6945 11.2468 22.6709 11.1858 22.6481C11.118 22.6228 11.05 22.5984 10.9818 22.5744C10.9178 22.5518 10.8538 22.5298 10.7894 22.5083C10.7241 22.4865 10.6586 22.4652 10.5928 22.4445C10.5227 22.4223 10.4523 22.4013 10.3819 22.3804C10.3213 22.3626 10.2609 22.3448 10.2 22.3279C10.1205 22.3058 10.0407 22.2851 9.96078 22.2646C9.92336 22.255 9.88617 22.2441 9.84852 22.2348L9.83969 15.9163L19.8548 6.48164ZM22.494 25.5483L17.7186 24.9985L17.2687 24.9467L17.2595 18.3912L22.484 18.3838L22.494 25.5483ZM38.412 27.2187L30.4814 34.3513C29.8205 34.8872 29.0278 35.2416 28.1876 35.3765L15.9053 37.147C15.9027 37.1473 15.9002 37.1477 15.8977 37.1481L15.8891 37.1495C15.517 37.2084 15.1295 37.1835 14.7373 37.0759L5.99578 33.7655V23.028H6.97273C7.80438 23.028 8.63039 23.1241 9.43477 23.3105C9.46469 23.3175 9.49453 23.3246 9.52437 23.3318C9.6232 23.3556 9.7218 23.3802 9.81992 23.4067C9.82852 23.4091 9.83703 23.4116 9.84562 23.4139C9.94398 23.4408 10.042 23.4691 10.1396 23.4988C10.1571 23.5041 10.1747 23.5093 10.1921 23.5147C10.296 23.5468 10.3995 23.5803 10.5023 23.6155C10.513 23.6191 10.5235 23.6229 10.5341 23.6266C10.7484 23.7006 10.9606 23.7813 11.1702 23.8686C11.1816 23.8734 11.193 23.8781 11.2044 23.883C11.3088 23.9269 11.4127 23.9723 11.5158 24.0195C11.5185 24.0207 11.5213 24.022 11.5241 24.0234C11.6237 24.0691 11.7227 24.1166 11.8211 24.1655C11.8327 24.1712 11.8443 24.1768 11.8559 24.1826C11.952 24.2306 12.0473 24.2804 12.142 24.3313C12.1599 24.3409 12.1777 24.3508 12.1956 24.3605C12.2913 24.4126 12.3863 24.4657 12.4805 24.5208C13.8391 25.3155 15.3182 25.8303 16.8766 26.0509C16.8816 26.0516 16.8864 26.0522 16.8913 26.0527L23.2883 26.7892C23.3237 26.7943 23.3588 26.8002 23.3937 26.8067C24.3355 26.9836 25.0788 27.6795 25.3274 28.5856C25.3643 28.7198 25.3902 28.8588 25.4045 29.0012L25.4298 29.2566L13.4408 28.2063C13.1269 28.1788 12.8497 28.4111 12.8222 28.7252C12.7946 29.0393 13.027 29.3163 13.3411 29.3438L26.0163 30.4543C26.0193 30.4545 26.0223 30.4545 26.0252 30.4547C26.0282 30.4549 26.0311 30.4554 26.0341 30.4556L28.4245 30.5898C28.4352 30.5904 28.4459 30.5906 28.4565 30.5906C28.4678 30.5906 28.479 30.5888 28.4902 30.5881C28.503 30.5873 28.5157 30.5869 28.5284 30.5853C28.5454 30.5831 28.562 30.5795 28.5788 30.5758C28.5907 30.5731 28.6027 30.5712 28.6145 30.5677C28.6327 30.5625 28.6503 30.5554 28.668 30.5483C28.6776 30.5445 28.6874 30.5416 28.6968 30.5372C28.7234 30.5248 28.7494 30.5106 28.7741 30.4941L30.8031 29.1362C30.8032 29.1361 30.8033 29.136 30.8034 29.1359L36.7957 25.1256C37.3986 24.7204 38.2216 24.8794 38.6302 25.48C39.0038 26.0289 38.9111 26.7754 38.412 27.2187Z" fill="currentColor" />
</svg>