<svg width="40" height="40" viewBox="0 0 40 40" fill="none" xmlns="http://www.w3.org/2000/svg">
  <path d="M20.3384 16.416C22.9353 16.2518 25.0175 14.1697 25.1817 11.5728C25.3787 8.45401 22.8064 5.85932 19.6664 6.05753C17.0695 6.22159 14.9873 8.3037 14.8231 10.9007C14.6253 14.0316 17.2121 16.6142 20.3384 16.416ZM15.9915 10.9745C16.1185 8.9644 17.7302 7.35276 19.7403 7.22573C22.1654 7.07323 24.1667 9.0719 24.0133 11.4989C23.8863 13.5089 22.2746 15.1206 20.2645 15.2476C17.8418 15.4002 15.8381 13.4035 15.9915 10.9745Z" fill="currentColor" />
  <path d="M11.0594 8.48086C11.055 8.48078 11.0509 8.48086 11.0466 8.48086C9.79148 8.48086 8.76172 9.45922 8.76172 10.7232V11.6978C8.76172 12.9648 9.79242 13.9955 11.0594 13.9955C11.9039 13.9955 12.3271 15.0115 11.7282 15.6104C10.8324 16.5063 10.8324 17.964 11.7282 18.8598L12.3782 19.5098C13.2762 20.4077 14.7296 20.408 15.6277 19.5098C16.225 18.9126 17.2425 19.332 17.2425 20.1787C17.2425 21.4457 18.2732 22.4764 19.5402 22.4764H20.4595C21.7264 22.4764 22.7572 21.4456 22.7572 20.1787C22.7572 19.333 23.7743 18.912 24.372 19.5098C25.268 20.4057 26.7255 20.4057 27.6215 19.5098L28.2715 18.8598C29.1673 17.964 29.1673 16.5063 28.2715 15.6104C27.6721 15.0112 28.0965 13.9955 28.9404 13.9955H28.9531C30.211 13.9955 31.238 13.0148 31.238 11.7533V10.7233C31.238 9.4607 30.2099 8.48094 28.9532 8.48094C28.9502 8.48094 28.9473 8.48094 28.9443 8.48094C28.943 8.48094 28.9418 8.48094 28.9405 8.48094C28.0952 8.48094 27.673 7.46438 28.2715 6.86609C29.1673 5.97023 29.1673 4.51258 28.2714 3.61664L27.5823 2.9275C26.6943 2.0393 25.2705 2.06172 24.3749 2.96375C23.7777 3.56555 22.7573 3.14508 22.7573 2.29766C22.7573 1.0307 21.7266 0 20.4595 0H19.5402C18.2733 0 17.2426 1.03078 17.2426 2.29766C17.2426 3.14219 16.2267 3.56531 15.6277 2.96648C14.7318 2.07063 13.2742 2.07063 12.3783 2.96648L11.7283 3.61648C10.8325 4.51234 10.8325 5.97008 11.7284 6.86594C12.3287 7.46633 11.9013 8.48086 11.0594 8.48086ZM12.5561 6.0382C12.1166 5.59883 12.1166 4.88375 12.5561 4.4443L13.2061 3.7943C13.6465 3.35391 14.3594 3.35383 14.7998 3.7943C16.1327 5.12711 18.4131 4.1857 18.4131 2.29766C18.4131 1.67617 18.9188 1.17062 19.5402 1.17062H20.4595C21.0809 1.17062 21.5865 1.67625 21.5865 2.29766C21.5865 4.18664 23.8725 5.13125 25.2055 3.78844C25.6465 3.3443 26.3275 3.32805 26.7545 3.75516L27.4436 4.4443C27.883 4.88375 27.883 5.59875 27.4437 6.0382C26.1069 7.37484 27.0586 9.66141 28.9485 9.65141H28.953C29.5715 9.65141 30.0673 10.1155 30.0673 10.7231V11.7531C30.0673 12.3616 29.5705 12.8248 28.953 12.8248C28.9485 12.8248 28.9445 12.8248 28.9403 12.8248C27.0548 12.8248 26.1089 15.1032 27.4436 16.438C27.883 16.8775 27.883 17.5925 27.4436 18.032L26.7936 18.682C26.3531 19.1224 25.6404 19.1224 25.1998 18.6819C23.8667 17.349 21.5866 18.2908 21.5866 20.1786C21.5866 20.8001 21.0809 21.3056 20.4595 21.3056H19.5402C18.9187 21.3056 18.4132 20.8 18.4132 20.1785C18.4132 18.2935 16.1351 17.3468 14.7999 18.6819C14.3595 19.1223 13.6466 19.1223 13.2062 18.6819L12.5562 18.0319C12.1167 17.5924 12.1167 16.8774 12.5562 16.438C13.8895 15.1046 12.947 12.8247 11.0595 12.8247C10.438 12.8247 9.93242 12.3191 9.93242 11.6977V10.723C9.93242 10.1145 10.4293 9.65133 11.0467 9.65133H11.0595C12.9445 9.65141 13.891 7.3732 12.5561 6.0382Z" fill="currentColor" />
  <path d="M37.6684 5.44531H30.9271C30.6038 5.44531 30.3418 5.70734 30.3418 6.03062C30.3418 6.35391 30.6038 6.61594 30.9271 6.61594H37.6684C38.2778 6.61594 38.7737 7.1118 38.7737 7.72125V26.1566H1.22922V7.72125C1.22922 7.1118 1.72508 6.61594 2.33453 6.61594H9.08844C9.41172 6.61594 9.67375 6.35391 9.67375 6.03062C9.67375 5.70734 9.41172 5.44531 9.08844 5.44531H2.33453C1.07961 5.44531 0.0585938 6.46633 0.0585938 7.72125V29.3748C0.0585938 30.6298 1.07961 31.6508 2.33453 31.6508H15.6986V31.7677C15.6986 33.3288 14.9752 34.8142 13.755 35.7788H11.8226C10.6592 35.7788 9.71281 36.7252 9.71281 37.8886C9.71281 39.052 10.6592 39.9984 11.8226 39.9984H28.1804C29.3438 39.9984 30.2902 39.0519 30.2902 37.8886C30.2902 36.7252 29.3438 35.7788 28.1804 35.7788H26.248C25.0277 34.8141 24.3042 33.3287 24.3042 31.7677V31.6508H37.6684C38.9233 31.6508 39.9443 30.6298 39.9443 29.3748C39.9443 28.2661 39.9443 8.43422 39.9443 7.72125C39.9444 6.46625 38.9234 5.44531 37.6684 5.44531ZM28.1804 36.9494C28.6982 36.9494 29.1195 37.3707 29.1195 37.8886C29.1195 38.4064 28.6982 38.8277 28.1804 38.8277H11.8226C11.3048 38.8277 10.8834 38.4064 10.8834 37.8886C10.8834 37.3707 11.3048 36.9494 11.8226 36.9494H28.1804ZM24.5834 35.7788H15.4195C16.3437 34.6623 16.8693 33.2426 16.8693 31.7677V31.6508H23.1335V31.7677C23.1336 33.2426 23.6592 34.6623 24.5834 35.7788ZM38.7738 29.3748C38.7738 29.9843 38.2779 30.4802 37.6684 30.4802H2.33461C1.72516 30.4802 1.2293 29.9843 1.2293 29.3748V27.3273H38.7738V29.3748Z" fill="currentColor" />
</svg>