<svg width="40" height="40" viewBox="0 0 40 40" fill="none" xmlns="http://www.w3.org/2000/svg">
  <g clip-path="url(#clip0_530_7329)">
    <path d="M38.7091 21.29V5.22278C38.7091 3.9502 37.674 2.91504 36.4014 2.91504H26.5805V1.66138C26.5805 0.745239 25.8353 0 24.9191 0H15.0809C14.165 0 13.4195 0.745239 13.4195 1.66138V2.91504H3.59863C2.32605 2.91504 1.29089 3.9502 1.29089 5.22278V21.29C0.539551 21.5567 0 22.2748 0 23.1165V32.9025C0 33.6777 1.17279 33.6789 1.17279 32.9025V23.1165C1.17279 22.695 1.51581 22.352 1.93726 22.352H38.0627C38.4842 22.352 38.8272 22.695 38.8272 23.1165V37.7054C38.8272 38.1268 38.4842 38.4698 38.0627 38.4698H1.93726C1.51581 38.4698 1.17279 38.1268 1.17279 37.7054V35.2481C1.17279 34.473 0 34.4717 0 35.2481V37.7054C0 38.7735 0.869141 39.6426 1.93726 39.6426H38.0627C39.1309 39.6426 40 38.7735 40 37.7054V23.1165C40 22.2748 39.4604 21.5567 38.7091 21.29ZM14.5923 1.66138C14.5923 1.39191 14.8117 1.17279 15.0809 1.17279H24.9191C25.1883 1.17279 25.4077 1.39191 25.4077 1.66138V2.91504H14.5923V1.66138ZM3.59863 4.08783H36.4014C37.027 4.08783 37.5363 4.59686 37.5363 5.22278V21.1792H27.9532V15.6781C28.9127 15.2307 28.6987 14.2236 28.7256 14.1098L29.1312 14.1095C29.2078 14.5847 29.6194 14.9579 30.1285 14.9579C30.1367 14.9579 30.7605 14.9576 31.9977 14.9576C32.5546 14.9573 33.0078 14.5044 33.0078 13.9474V10.5164C33.0078 9.95941 32.5546 9.50623 31.9977 9.50623L30.1279 9.50653C29.6262 9.50653 29.2087 9.87396 29.1309 10.354H28.7421C28.6591 9.90112 28.262 9.54712 27.7725 9.54712C25.4144 9.54742 26.362 9.54742 23.8882 9.54742C21.5067 9.54742 18.8367 11.6592 18.7054 14.9048C18.6853 15.3967 19.0823 15.802 19.5691 15.802C19.8355 15.7703 20.3247 15.9235 20.6848 15.4929C20.8646 15.278 21.5475 14.6014 22.6566 14.3146C22.7362 14.2938 22.8534 14.3256 22.8555 14.4696C22.8632 15.0723 23.2422 15.5569 23.7592 15.7318V21.1792H14.054V19.5291C14.054 18.2745 14.5081 17.0755 15.3329 16.1526C16.0825 15.314 16.4954 14.2325 16.4954 13.1067C16.4954 11.3986 15.5542 9.84528 14.0393 9.05304C13.4708 8.7558 12.7899 9.16748 12.7899 9.80865C12.7451 12.6807 12.8882 12.8519 12.6837 12.8519H11.1627C11.1041 12.8519 11.0565 12.8043 11.0565 12.7457V9.80865C11.0565 9.16748 10.3754 8.75549 9.80713 9.05304C8.29224 9.84528 7.35107 11.3986 7.35107 13.1067C7.35107 14.2325 7.76398 15.314 8.51349 16.1526C9.33838 17.0755 9.79279 18.2745 9.79279 19.5294V21.1792H2.46368V5.22278C2.46368 4.59686 2.97302 4.08783 3.59863 4.08783ZM27.5531 13.9182L27.5519 14.4699C27.5519 14.5578 27.4802 14.6292 27.3926 14.6292C24.1974 14.6045 24.0283 14.7202 24.0283 14.4696C24.0283 13.6176 23.2401 12.9871 22.4069 13.1686C21.1182 13.4494 20.2853 14.1891 19.9033 14.606C20.1831 12.0682 22.3474 10.7202 23.8882 10.7202L27.5995 10.7199C27.6764 11.1661 28.0661 11.5271 28.5593 11.5271C28.5715 11.5271 29.2889 11.5265 29.281 11.5265C29.7824 11.5265 30.1996 11.1588 30.2777 10.679H31.835V13.7848C31.3745 13.7848 30.737 13.7848 30.2795 13.7848C30.209 13.3127 29.801 12.9367 29.2926 12.9367C29.2783 12.9367 28.5309 12.9373 28.5388 12.9373C28.0005 12.9373 27.5583 13.3752 27.5531 13.9182ZM24.9323 15.802H26.7804V21.1792H24.9323V15.802ZM11.1627 14.0247H12.6837C13.389 14.0247 13.9627 13.4509 13.9627 12.7457V10.386C14.8126 11.0223 15.3226 12.0224 15.3226 13.1067C15.3226 13.9435 15.0159 14.7476 14.4586 15.3708C13.4415 16.5088 12.8812 17.9858 12.8812 19.5291V21.1792H10.9653V19.5291C10.9653 17.9855 10.4053 16.5088 9.38782 15.3708C8.83057 14.7476 8.52386 13.9435 8.52386 13.1067C8.52386 12.0224 9.03381 11.0223 9.88373 10.386V12.7457C9.88373 13.4509 10.4575 14.0247 11.1627 14.0247Z" fill="currentColor" />
    <path d="M24.7341 28.762C25.8907 28.762 26.8319 27.8208 26.8319 26.6642C26.8319 25.5073 25.8907 24.5664 24.7341 24.5664H15.2657C14.1091 24.5664 13.168 25.5073 13.168 26.6642C13.168 27.8208 14.1091 28.762 15.2657 28.762H24.7341ZM14.3408 26.6642C14.3408 26.1539 14.7555 25.7392 15.2657 25.7392H24.7341C25.2441 25.7392 25.6591 26.1539 25.6591 26.6642C25.6591 27.1741 25.2444 27.5892 24.7341 27.5892H15.2657C14.7558 27.5889 14.3408 27.1741 14.3408 26.6642Z" fill="currentColor" />
    <path d="M5.1806 19.4183V6.8017H34.8217V19.4183C34.8217 20.1934 35.9945 20.1946 35.9945 19.4183V6.7547C35.9945 6.13397 35.4894 5.62891 34.8687 5.62891H5.13361C4.51288 5.62891 4.00781 6.13397 4.00781 6.7547V19.4183C4.00781 20.1934 5.1806 20.1946 5.1806 19.4183Z" fill="currentColor" />
  </g>
</svg>