<svg width="40" height="40" viewBox="0 0 40 40" fill="none" xmlns="http://www.w3.org/2000/svg">
  <path d="M38.1231 35.1768H35.3273V20.1015C35.3273 19.7778 35.065 19.5156 34.7414 19.5156C34.4178 19.5156 34.1555 19.7778 34.1555 20.1015V35.1768H25.5504V15.5173C25.5504 15.3662 25.6733 15.2433 25.8243 15.2433H33.8815C34.0326 15.2433 34.1554 15.3662 34.1554 15.5173V17.3625C34.1554 17.6861 34.4177 17.9484 34.7413 17.9484C35.0649 17.9484 35.3273 17.6861 35.3273 17.3625V15.5173C35.3273 14.72 34.6787 14.0714 33.8815 14.0714H30.4388V9.72762L37.3968 6.34457C37.7786 6.15887 38.0157 5.7798 38.0157 5.35535C38.0157 4.9309 37.7785 4.55191 37.3968 4.36621L30.8477 1.18191C30.5046 1.01504 30.1068 1.03637 29.7834 1.23879C29.46 1.44113 29.267 1.78973 29.267 2.17121V14.0715H25.8243C25.027 14.0715 24.3785 14.7201 24.3785 15.5174V21.8156H16.0473C15.2502 21.8156 14.6016 22.4642 14.6016 23.2614V28.4436H6.27039C5.47312 28.4436 4.82461 29.0922 4.82461 29.8895V35.1769H1.87695C0.841953 35.1768 0 36.0188 0 37.0537C0 38.0886 0.841953 38.9305 1.87688 38.9305H38.123C39.158 38.9305 39.9999 38.0886 39.9999 37.0537C39.9999 36.0188 39.158 35.1768 38.1231 35.1768ZM30.4389 2.28613L36.7512 5.35535L30.4389 8.42457V5.35535V2.28613ZM5.99648 29.8894C5.99648 29.7383 6.11938 29.6154 6.27039 29.6154H14.6016V31.1679C14.6016 31.4916 14.8639 31.7539 15.1875 31.7539C15.5111 31.7539 15.7734 31.4916 15.7734 31.1679V23.2613C15.7734 23.1102 15.8963 22.9874 16.0473 22.9874H24.3785V35.1768H15.7734V33.9073C15.7734 33.5836 15.5111 33.3214 15.1875 33.3214C14.8639 33.3214 14.6016 33.5836 14.6016 33.9073V35.1768H5.99648V29.8894ZM38.1231 37.7587H1.87688C1.48813 37.7587 1.17188 37.4425 1.17188 37.0538C1.17188 36.6651 1.48813 36.3488 1.87688 36.3488H38.123C38.5118 36.3488 38.828 36.6651 38.828 37.0538C38.828 37.4425 38.5119 37.7587 38.1231 37.7587Z" fill="currentColor" />
</svg>