<svg width="16" height="16" viewBox="0 0 16 16" fill="none" xmlns="http://www.w3.org/2000/svg">
<path d="M0 8C0 3.5816 3.5808 0 8 0C12.4176 0 16 3.5816 16 8C16 12.4184 12.4176 16 8 16C3.5808 16 0 12.4184 0 8Z" fill="#213966"/>
<path d="M1.19922 7.99922C1.19922 4.24358 4.2429 1.19922 7.99922 1.19922C11.7542 1.19922 14.7992 4.24358 14.7992 7.99922C14.7992 11.7549 11.7542 14.7992 7.99922 14.7992C4.2429 14.7992 1.19922 11.7549 1.19922 7.99922Z" fill="white"/>
<path d="M9.02338 4.5348H8.28418C6.92898 4.5348 6.21618 5.2212 6.21618 6.2332C6.21618 7.3772 6.70898 7.9132 7.72098 8.6004L8.55698 9.1636L6.15458 12.7532H4.35938L6.51538 9.542C5.27538 8.6532 4.57938 7.79 4.57938 6.33C4.57938 4.4996 5.85538 3.25 8.27538 3.25H10.6778V12.7444H9.02338V4.5348Z" fill="#213966"/>
</svg>
