<svg width="264" height="44" viewBox="0 0 264 44" fill="none" xmlns="http://www.w3.org/2000/svg">
<path fill-rule="evenodd" clip-rule="evenodd" d="M91.9604 27.0457V43.9998H87.2302V27.0457H81.1761V22.7316H98.5032V27.0457H91.9604ZM81.1913 0.000437365H98.3509V4.16284H85.8393V8.47732H98.3509V12.6399H85.8393V17.1062H98.3509V21.2686H81.1913V0.000437365ZM75.1159 7.38342L69.1314 16.4681H69.0099L63.0863 7.47447L58.4994 8.25264e-05H63.542L69.1315 8.99361L74.7208 8.25264e-05H79.7635V21.2686H75.1159V7.38342ZM52.2123 0.000437365H56.8904V21.2686H52.2123V0.000437365ZM44.0607 21.2688H39.3302V4.31457H33.2762V0.000437365H50.6033V4.31457H44.0607V21.2688ZM39.3504 27.0266H28.9858C27.6502 27.0266 27.6797 31.1962 29.0361 31.1962H37.0989C44.1666 31.1962 44.1859 44 37.0238 44H24.393V43.4354L25.943 39.6451H37.0489C38.3811 39.6451 38.3639 35.5509 36.9734 35.5509H29.0612C21.849 35.5509 21.8682 22.6719 28.9858 22.6719H41.1313L39.3504 27.0266ZM14.8015 39.2297H7.61704L5.67266 44H0L9.11304 22.5795H14.2862L9.11275 35.2308H18.8089L22.5398 44H16.7457L14.8015 39.2297ZM55.7352 35.5746H47.8451C40.6531 35.5746 40.6724 22.7314 47.7699 22.7314H59.8814L58.1056 27.0741H47.7699C46.4381 27.0741 46.4674 31.232 47.82 31.232H55.8605C62.9083 31.232 62.9275 44 55.7855 44H43.19V43.437L44.7356 39.6573H55.8105C57.139 39.6573 57.1219 35.5746 55.7352 35.5746ZM79.7393 26.894H67.2275V31.2085H79.7393V35.371H67.2275V39.8374H79.7393V43.9998H62.5796V22.7314H79.7393V26.894Z" fill="#1A1A1A"/>
<path fill-rule="evenodd" clip-rule="evenodd" d="M109.771 0H111.01V41.6901H109.771V0Z" fill="#1A1A1A"/>
<path fill-rule="evenodd" clip-rule="evenodd" d="M250.826 10.072V4.09436L246.79 10.072H245.877V3.00244H246.681V8.98936L250.74 3.00244H251.63V10.072H250.826ZM248.685 2.27933C248.14 2.27933 247.695 2.13357 247.349 1.84238C246.977 1.52418 246.79 1.09644 246.79 0.55955H247.322C247.468 1.29667 247.945 1.66498 248.754 1.66498C249.544 1.66498 250.031 1.29667 250.212 0.55955H250.717C250.589 1.70616 249.912 2.27933 248.685 2.27933ZM243.082 3.00244H243.887V10.072H243.082V3.00244ZM239.292 10.072H236.293V3.00244H237.097V5.96409H239.176C239.879 5.96409 240.447 6.12335 240.885 6.442C241.388 6.7968 241.637 7.31054 241.637 7.98387C241.637 8.65732 241.41 9.18026 240.956 9.55326C240.538 9.89919 239.983 10.072 239.292 10.072ZM240.272 6.9742C239.981 6.75551 239.601 6.64641 239.136 6.64641H237.097V9.38969H238.945C240.158 9.38969 240.764 8.93003 240.764 8.01133C240.764 7.56545 240.601 7.21958 240.272 6.9742ZM233.471 6.64641H229.518V10.072H228.713V3.00244H229.518V5.96409H233.471V3.00244H234.275V10.072H233.471V6.64641ZM224.773 10.072H221.774V3.00244H222.578V5.96409H224.63C225.323 5.96409 225.896 6.13234 226.352 6.46901C226.864 6.84228 227.118 7.36534 227.118 8.03834C227.118 8.84823 226.8 9.42145 226.164 9.75811C225.764 9.96716 225.3 10.072 224.773 10.072ZM225.752 6.9742C225.461 6.75551 225.087 6.64641 224.63 6.64641H222.578V9.38969H224.425C225.639 9.38969 226.245 8.93003 226.245 8.01133C226.245 7.56545 226.082 7.21958 225.752 6.9742ZM218.87 3.68476H215.598V5.00877C215.598 6.25528 215.553 7.26076 215.462 8.02483C215.298 9.42597 214.799 10.1264 213.962 10.1264C213.717 10.1264 213.517 10.0948 213.362 10.0311V9.36235C213.49 9.39862 213.653 9.41676 213.853 9.41676C214.071 9.41676 214.267 9.26207 214.439 8.95286C214.667 8.55274 214.78 6.5689 214.78 3.00244H219.675V10.072H218.87V3.68476ZM212.312 10.1812L211.945 10.1403C211.508 10.0948 211.29 9.74461 211.29 9.0893C210.59 9.8719 209.713 10.2632 208.659 10.2632C207.986 10.2632 207.436 10.0948 207.01 9.75811C206.537 9.39399 206.3 8.88489 206.3 8.22958C206.3 7.02856 207.125 6.31889 208.775 6.1007L209.909 5.95025C210.174 5.91431 210.534 5.8368 210.99 5.71838C211.19 5.62742 211.29 5.38171 211.29 4.98143C211.29 4.02645 210.702 3.54854 209.527 3.54854C208.277 3.54854 207.589 4.08086 207.462 5.14533H206.627C206.627 4.35391 206.923 3.75307 207.514 3.3438C208.032 2.9886 208.704 2.81153 209.532 2.81153C211.24 2.81153 212.094 3.54631 212.094 5.01341V8.86871C212.094 9.30766 212.217 9.52591 212.462 9.52591C212.572 9.52591 212.736 9.48506 212.954 9.40326V10.0446C212.708 10.1356 212.495 10.1812 212.312 10.1812ZM211.29 6.35985C210.624 6.62358 209.918 6.75551 209.17 6.75551C207.839 6.75551 207.173 7.25613 207.173 8.2567C207.173 8.66619 207.327 8.98936 207.639 9.22585C207.921 9.42597 208.277 9.52591 208.704 9.52591C209.416 9.52591 210.009 9.36235 210.484 9.03483C211.022 8.67082 211.29 8.14743 211.29 7.46517V6.35985ZM205.182 19.6663L201.147 25.6439H200.233V18.5744H201.038V24.5613L205.096 18.5744H205.986V25.6439H205.182V19.6663ZM203.846 6.64641H199.893V10.072H199.089V3.00244H199.893V5.96409H203.846V3.00244H204.651V10.072H203.846V6.64641ZM198.161 25.6439L195.512 21.6952L194.167 22.9757V25.6439H193.362V18.5744H194.167V21.9318L197.643 18.5744H198.781L196.118 21.1287L199.074 25.6439H198.161ZM194.276 10.2632C193.231 10.2632 192.413 9.89919 191.822 9.17144C191.277 8.48879 191.004 7.61093 191.004 6.53726C191.004 5.45465 191.272 4.57679 191.809 3.90335C192.4 3.17555 193.222 2.81153 194.276 2.81153C195.348 2.81153 196.176 3.17103 196.757 3.88951C197.285 4.55402 197.548 5.43651 197.548 6.53726C197.548 7.61093 197.275 8.48449 196.73 9.1576C196.139 9.89456 195.322 10.2632 194.276 10.2632ZM196.144 4.44917C195.735 3.84866 195.112 3.54854 194.276 3.54854C193.467 3.54854 192.849 3.85787 192.422 4.47651C192.058 5.0042 191.877 5.69104 191.877 6.53726C191.877 7.38336 192.058 8.075 192.422 8.6115C192.849 9.22122 193.467 9.52591 194.276 9.52591C195.076 9.52591 195.689 9.21659 196.117 8.59789C196.489 8.06116 196.676 7.37421 196.676 6.53726C196.676 5.65477 196.498 4.95861 196.144 4.44917ZM190.84 20.799C190.531 19.6797 189.831 19.1204 188.74 19.1204C187.949 19.1204 187.345 19.4341 186.927 20.0623C186.555 20.608 186.368 21.2949 186.368 22.123C186.368 22.9599 186.55 23.6422 186.913 24.1698C187.332 24.7885 187.941 25.0978 188.74 25.0978C189.977 25.0978 190.699 24.4656 190.908 23.2009H191.781C191.453 24.957 190.44 25.8351 188.74 25.8351C187.659 25.8351 186.836 25.4799 186.273 24.7703C185.755 24.1151 185.496 23.2326 185.496 22.123C185.496 21.0766 185.773 20.2073 186.327 19.5162C186.918 18.761 187.723 18.3835 188.74 18.3835C190.458 18.3835 191.435 19.1887 191.672 20.799H190.84ZM188.659 4.09436L184.624 10.072H183.711V3.00244H184.515V8.98936L188.573 3.00244H189.463V10.072H188.659V4.09436ZM183.326 24.702C182.762 25.4573 181.965 25.8351 180.936 25.8351C180.424 25.8351 179.947 25.721 179.5 25.4938C179.027 25.257 178.661 24.9296 178.406 24.5111V28.4281H177.602V18.5744H178.406V19.8162C178.643 19.3796 178.993 19.0315 179.452 18.7722C179.913 18.513 180.392 18.3835 180.894 18.3835C181.979 18.3835 182.799 18.7429 183.353 19.4614C183.846 20.0982 184.092 20.9764 184.092 22.0953C184.092 23.1601 183.837 24.0287 183.326 24.702ZM182.63 19.9393C182.194 19.3931 181.583 19.1204 180.799 19.1204C179.997 19.1204 179.381 19.4341 178.954 20.0623C178.588 20.608 178.406 21.2992 178.406 22.1365C178.406 22.9371 178.602 23.6102 178.995 24.1563C179.431 24.7842 180.034 25.0978 180.799 25.0978C181.647 25.0978 182.281 24.7568 182.699 24.0742C183.046 23.5103 183.219 22.7825 183.219 21.8908C183.219 21.0809 183.024 20.4306 182.63 19.9393ZM179.035 9.52591C180.27 9.52591 180.993 8.89376 181.202 7.62907H182.074C181.747 9.38512 180.734 10.2632 179.035 10.2632C177.953 10.2632 177.13 9.90817 176.567 9.1984C176.049 8.5432 175.79 7.66071 175.79 6.55109C175.79 5.50482 176.067 4.63544 176.622 3.94431C177.212 3.18916 178.016 2.81153 179.035 2.81153C180.752 2.81153 181.729 3.61685 181.965 5.22714H181.134C180.825 4.10787 180.125 3.54854 179.035 3.54854C178.244 3.54854 177.639 3.86216 177.221 4.49035C176.849 5.03612 176.662 5.72307 176.662 6.55109C176.662 7.38805 176.844 8.07031 177.207 8.59789C177.625 9.21659 178.234 9.52591 179.035 9.52591ZM170.431 22.3004C170.431 23.0918 170.627 23.7421 171.018 24.2516C171.444 24.8158 172.04 25.0978 172.803 25.0978C173.34 25.0978 173.801 24.957 174.187 24.675C174.573 24.3928 174.826 23.9927 174.944 23.474H175.857C175.375 25.048 174.357 25.8351 172.803 25.8351C171.722 25.8351 170.899 25.4799 170.336 24.7703C169.818 24.1247 169.559 23.2465 169.559 22.1365C169.559 21.0902 169.832 20.2169 170.376 19.5162C170.977 18.761 171.785 18.3835 172.803 18.3835C173.885 18.3835 174.694 18.7791 175.23 19.5705C175.684 20.2528 175.912 21.163 175.912 22.3004H170.431ZM174.48 19.8437C174.071 19.3615 173.512 19.1204 172.803 19.1204C172.113 19.1204 171.554 19.3704 171.127 19.871C170.754 20.3076 170.522 20.89 170.431 21.6178H175.039C175.039 20.89 174.853 20.2984 174.48 19.8437ZM171.454 9.52591C172.69 9.52591 173.413 8.89376 173.622 7.62907H174.494C174.167 9.38512 173.154 10.2632 171.454 10.2632C170.373 10.2632 169.55 9.90817 168.987 9.1984C168.468 8.5432 168.21 7.66071 168.21 6.55109C168.21 5.50482 168.487 4.63544 169.041 3.94431C169.632 3.18916 170.436 2.81153 171.454 2.81153C173.172 2.81153 174.149 3.61685 174.385 5.22714H173.554C173.245 4.10787 172.545 3.54854 171.454 3.54854C170.663 3.54854 170.059 3.86216 169.641 4.49035C169.269 5.03612 169.082 5.72307 169.082 6.55109C169.082 7.38805 169.264 8.07031 169.627 8.59789C170.045 9.21659 170.655 9.52591 171.454 9.52591ZM162.061 8.68003C162.488 9.24405 163.084 9.52591 163.847 9.52591C164.383 9.52591 164.844 9.38512 165.231 9.10314C165.617 8.82094 165.869 8.42082 165.987 7.90212H166.901C166.419 9.47608 165.401 10.2632 163.847 10.2632C162.765 10.2632 161.943 9.90817 161.379 9.1984C160.861 8.55274 160.602 7.67455 160.602 6.5646C160.602 5.51832 160.875 4.6451 161.42 3.94431C162.02 3.18916 162.829 2.81153 163.847 2.81153C164.929 2.81153 165.738 3.20735 166.274 3.99877C166.728 4.68104 166.955 5.59115 166.955 6.72855H161.475C161.475 7.51997 161.67 8.17026 162.061 8.68003ZM166.083 6.04623C166.083 5.3181 165.896 4.72691 165.524 4.27177C165.115 3.78967 164.556 3.54854 163.847 3.54854C163.156 3.54854 162.597 3.79855 162.17 4.29911C161.798 4.73572 161.566 5.3181 161.475 6.04623H166.083ZM156.676 10.2765C155.712 10.2765 155.004 9.8719 154.549 9.06196V12.8697H153.745V9.03483C153.281 9.86258 152.572 10.2765 151.618 10.2765C150.655 10.2765 149.936 9.8719 149.464 9.06196C149.073 8.39816 148.878 7.55161 148.878 6.52342C148.878 5.53177 149.082 4.69945 149.491 4.02645C149.982 3.22538 150.691 2.82504 151.618 2.82504C152.563 2.82504 153.272 3.23464 153.745 4.0534V0H154.549V4.08086C154.758 3.70758 155.058 3.40513 155.449 3.17303C155.84 2.94117 156.249 2.82504 156.676 2.82504C157.603 2.82504 158.312 3.23464 158.803 4.0534C159.212 4.72691 159.416 5.55912 159.416 6.55109C159.416 7.58822 159.221 8.4298 158.83 9.0758C158.357 9.87642 157.64 10.2765 156.676 10.2765ZM153.308 4.58567C152.945 3.90335 152.423 3.56216 151.741 3.56216C151.059 3.56216 150.541 3.90335 150.187 4.58567C149.896 5.13149 149.75 5.77748 149.75 6.52342C149.75 7.3059 149.887 7.96574 150.159 8.50229C150.505 9.19421 151.032 9.53975 151.741 9.53975C152.45 9.53975 152.981 9.19421 153.336 8.50229C153.608 7.96574 153.745 7.3059 153.745 6.52342C153.745 5.77748 153.599 5.13149 153.308 4.58567ZM158.107 4.58567C157.744 3.90335 157.226 3.56216 156.553 3.56216C155.872 3.56216 155.349 3.90335 154.985 4.58567C154.695 5.13149 154.549 5.77748 154.549 6.52342C154.549 7.3059 154.686 7.96574 154.958 8.50229C155.313 9.19421 155.844 9.53975 156.553 9.53975C157.271 9.53975 157.803 9.19421 158.149 8.50229C158.412 7.97472 158.544 7.31522 158.544 6.52342C158.544 5.78669 158.398 5.1407 158.107 4.58567ZM145.237 25.6439H144.433V18.5744H148.796V19.2566H145.237V25.6439ZM144.515 10.2632C143.47 10.2632 142.652 9.89919 142.061 9.17144C141.516 8.48879 141.243 7.61093 141.243 6.53726C141.243 5.45465 141.511 4.57679 142.048 3.90335C142.639 3.17555 143.461 2.81153 144.515 2.81153C145.588 2.81153 146.415 3.17103 146.996 3.88951C147.524 4.55402 147.787 5.43651 147.787 6.53726C147.787 7.61093 147.514 8.48449 146.969 9.1576C146.378 9.89456 145.561 10.2632 144.515 10.2632ZM146.383 4.44917C145.974 3.84866 145.351 3.54854 144.515 3.54854C143.706 3.54854 143.088 3.85787 142.661 4.47651C142.297 5.0042 142.116 5.69104 142.116 6.53726C142.116 7.38336 142.297 8.075 142.661 8.6115C143.088 9.22122 143.706 9.52591 144.515 9.52591C145.315 9.52591 145.928 9.21659 146.356 8.59789C146.728 8.06116 146.915 7.37421 146.915 6.53726C146.915 5.65477 146.738 4.95861 146.383 4.44917ZM143.086 18.5744L140.534 21.9888L143.179 25.6439H142.202L140.048 22.5688L137.851 25.6439H136.867L139.571 21.9976L137.08 18.5744H138.094L140.043 21.3859L142.047 18.5744H143.086ZM136.806 10.2632C136.295 10.2632 135.817 10.1492 135.37 9.92201C134.897 9.68518 134.531 9.35777 134.277 8.93924V12.8562H133.472V3.00244H134.277V4.2447C134.513 3.80775 134.863 3.45953 135.322 3.20071C135.783 2.94117 136.262 2.81153 136.765 2.81153C137.849 2.81153 138.669 3.17103 139.223 3.88951C139.716 4.52635 139.962 5.40454 139.962 6.52342C139.962 7.58822 139.707 8.45681 139.196 9.13026C138.633 9.88535 137.835 10.2632 136.806 10.2632ZM138.501 4.36742C138.065 3.82131 137.453 3.54854 136.669 3.54854C135.867 3.54854 135.252 3.86216 134.824 4.49035C134.459 5.03612 134.277 5.72737 134.277 6.5646C134.277 7.36534 134.472 8.03834 134.865 8.58438C135.302 9.21224 135.904 9.52591 136.669 9.52591C137.517 9.52591 138.151 9.18489 138.569 8.50229C138.917 7.93839 139.089 7.21059 139.089 6.31889C139.089 5.509 138.894 4.85872 138.501 4.36742ZM136.376 18.5744L133.745 25.5482C133.418 26.4126 133.186 26.9768 133.05 27.2407C132.64 28.0323 132.127 28.4281 131.509 28.4281C131.264 28.4281 131.005 28.3961 130.732 28.3325V27.568C130.968 27.6316 131.195 27.6637 131.413 27.6637C131.814 27.6637 132.118 27.4181 132.327 26.9267C132.427 26.6513 132.582 26.2467 132.79 25.7098L130.05 18.5744H130.971L133.229 24.6361L135.488 18.5744H136.376ZM130.378 1.03746H124.57V10.072H123.643V0.245707H131.304V10.072H130.378V1.03746ZM126.042 16.4315C127.515 16.1499 128.251 15.8584 128.251 15.5583H129.109C129.109 16.0223 128.81 16.386 128.21 16.6502C127.874 16.7956 127.274 16.9502 126.41 17.1141C125.683 17.2507 125.133 17.5419 124.761 17.9874C124.433 18.388 124.202 18.9746 124.065 19.748C124.62 18.8382 125.438 18.3835 126.519 18.3835C127.574 18.3835 128.387 18.7518 128.96 19.4887C129.478 20.1529 129.737 21.0265 129.737 22.1092C129.737 23.1828 129.464 24.0564 128.919 24.7295C128.328 25.4664 127.51 25.8351 126.465 25.8351C125.347 25.8351 124.502 25.4209 123.929 24.5929C123.439 23.8833 123.193 22.9371 123.193 21.7543C123.193 20.2984 123.352 19.1795 123.67 18.397C124.116 17.305 124.907 16.6502 126.042 16.4315ZM124.624 24.1151C125.061 24.7703 125.674 25.0978 126.465 25.0978C127.265 25.0978 127.878 24.7885 128.305 24.1698C128.678 23.6329 128.864 22.9461 128.864 22.1092C128.864 21.2266 128.687 20.5305 128.333 20.0211C127.924 19.4206 127.301 19.1204 126.465 19.1204C125.656 19.1204 125.042 19.4113 124.624 19.994C124.252 20.5035 124.065 21.1765 124.065 22.0138C124.065 22.8508 124.252 23.5511 124.624 24.1151ZM125.654 37.2443L126.788 37.094C127.053 37.0577 127.412 36.9806 127.869 36.8622C128.069 36.7712 128.169 36.5255 128.169 36.1252C128.169 35.1698 127.581 34.6923 126.406 34.6923C125.156 34.6923 124.468 35.2245 124.341 36.289H123.506C123.506 35.4972 123.802 34.8967 124.393 34.4876C124.911 34.1324 125.583 33.9553 126.41 33.9553C128.119 33.9553 128.973 34.69 128.973 36.1571V40.0124C128.973 40.4513 129.096 40.6696 129.341 40.6696C129.451 40.6696 129.614 40.6287 129.832 40.5469V41.1884C129.587 41.2794 129.373 41.3248 129.192 41.3248L128.823 41.284C128.387 41.2386 128.169 40.8883 128.169 40.2331C127.469 41.0155 126.592 41.4067 125.538 41.4067C124.865 41.4067 124.315 41.2386 123.888 40.9017C123.416 40.5377 123.179 40.0286 123.179 39.3734C123.179 38.1723 124.004 37.4627 125.654 37.2443ZM124.518 40.3695C124.799 40.5698 125.156 40.6696 125.583 40.6696C126.295 40.6696 126.888 40.5061 127.362 40.1786C127.901 39.8146 128.169 39.2912 128.169 38.609V37.5035C127.504 37.7674 126.797 37.8993 126.049 37.8993C124.718 37.8993 124.052 38.3999 124.052 39.4004C124.052 39.81 124.206 40.1331 124.518 40.3695ZM130.793 34.1462L133.052 40.2079L135.31 34.1462H136.199L133.568 41.1201C133.241 41.9845 133.009 42.5487 132.873 42.8124C132.464 43.6038 131.95 44 131.332 44C131.087 44 130.828 43.968 130.555 43.9043V43.1399C130.791 43.2036 131.018 43.2355 131.236 43.2355C131.636 43.2355 131.941 42.9898 132.15 42.4986C132.25 42.2232 132.404 41.8186 132.613 41.2817L129.873 34.1462H130.793ZM142.143 34.8285H139.771V41.2157H138.967V34.8285H136.622V34.1462H142.143V34.8285ZM145.619 33.9553C147.337 33.9553 148.314 34.7606 148.55 36.3708H147.719C147.41 35.2517 146.71 34.6923 145.619 34.6923C144.829 34.6923 144.224 35.006 143.806 35.6341C143.434 36.1799 143.247 36.8668 143.247 37.6945C143.247 38.5318 143.429 39.2141 143.793 39.7417C144.211 40.3603 144.819 40.6696 145.619 40.6696C146.855 40.6696 147.578 40.0375 147.787 38.7729H148.659C148.332 40.5288 147.319 41.4067 145.619 41.4067C144.538 41.4067 143.715 41.0518 143.152 40.3422C142.634 39.687 142.375 38.8045 142.375 37.6945C142.375 36.6485 142.652 35.7792 143.207 35.0881C143.797 34.3325 144.601 33.9553 145.619 33.9553ZM151.665 21.6726L152.799 21.5221C153.065 21.4858 153.424 21.4087 153.881 21.2903C154.081 21.1993 154.181 20.9536 154.181 20.5533C154.181 19.5983 153.592 19.1204 152.418 19.1204C151.168 19.1204 150.479 19.6527 150.352 20.7172H149.518C149.518 19.9254 149.814 19.3249 150.404 18.9157C150.923 18.5605 151.595 18.3835 152.422 18.3835C154.131 18.3835 154.985 19.1181 154.985 20.5853V24.4406C154.985 24.8794 155.108 25.0978 155.353 25.0978C155.463 25.0978 155.626 25.0568 155.844 24.9751V25.6165C155.598 25.7075 155.385 25.753 155.203 25.753L154.835 25.7121C154.399 25.6666 154.181 25.3164 154.181 24.6612C153.481 25.4438 152.604 25.8351 151.549 25.8351C150.877 25.8351 150.327 25.6666 149.9 25.33C149.427 24.9659 149.191 24.4566 149.191 23.8015C149.191 22.6004 150.016 21.8908 151.665 21.6726ZM150.529 24.7977C150.811 24.9978 151.168 25.0978 151.595 25.0978C152.306 25.0978 152.899 24.9342 153.374 24.6068C153.913 24.2427 154.181 23.7194 154.181 23.037V21.9318C153.515 22.1955 152.808 22.3274 152.061 22.3274C150.729 22.3274 150.064 22.828 150.064 23.8285C150.064 24.2381 150.218 24.5613 150.529 24.7977ZM153.104 33.9553C154.176 33.9553 155.004 34.3147 155.585 35.0333C156.112 35.6978 156.376 36.5802 156.376 37.6809C156.376 38.7547 156.103 39.6279 155.558 40.3012C154.967 41.0383 154.149 41.4067 153.104 41.4067C152.059 41.4067 151.241 41.043 150.65 40.3152C150.105 39.6326 149.832 38.7547 149.832 37.6809C149.832 36.5983 150.1 35.7205 150.636 35.0471C151.227 34.3193 152.05 33.9553 153.104 33.9553ZM151.25 39.7552C151.677 40.365 152.295 40.6696 153.104 40.6696C153.904 40.6696 154.517 40.3603 154.945 39.7417C155.317 39.2048 155.503 38.5179 155.503 37.6809C155.503 36.7986 155.326 36.1024 154.972 35.5928C154.562 34.9924 153.94 34.6923 153.104 34.6923C152.295 34.6923 151.677 35.0017 151.25 35.6203C150.886 36.1479 150.705 36.8348 150.705 37.6809C150.705 38.5268 150.886 39.2186 151.25 39.7552ZM156.253 25.603V24.9342C156.38 24.9705 156.544 24.9887 156.744 24.9887C156.962 24.9887 157.157 24.8339 157.33 24.5246C157.557 24.1247 157.671 22.1408 157.671 18.5744H162.565V25.6439H161.761V19.2566H158.489V20.5806C158.489 21.8271 158.443 22.8326 158.352 23.5968C158.189 24.9978 157.689 25.6983 156.853 25.6983C156.608 25.6983 156.408 25.6666 156.253 25.603ZM158.775 35.3881C159.012 34.9515 159.361 34.6033 159.821 34.3441C160.282 34.085 160.761 33.9553 161.263 33.9553C162.347 33.9553 163.168 34.3147 163.722 35.0333C164.215 35.6701 164.461 36.5482 164.461 37.6671C164.461 38.7319 164.206 39.6005 163.695 40.2739C163.131 41.0291 162.334 41.4067 161.304 41.4067C160.793 41.4067 160.316 41.2929 159.868 41.0657C159.396 40.8289 159.03 40.5014 158.775 40.083V44H157.971V34.1462H158.775V35.3881ZM159.364 39.7282C159.8 40.356 160.402 40.6696 161.168 40.6696C162.016 40.6696 162.649 40.3283 163.067 39.646C163.415 39.0822 163.588 38.3544 163.588 37.4627C163.588 36.6528 163.393 36.0021 162.999 35.5111C162.563 34.965 161.952 34.6923 161.168 34.6923C160.366 34.6923 159.75 35.006 159.323 35.6341C158.957 36.1799 158.775 36.8712 158.775 37.7084C158.775 38.509 158.971 39.1821 159.364 39.7282ZM166.205 25.6439V19.2566H163.86V18.5744H169.381V19.2566H167.009V25.6439H166.205ZM169.109 33.9553C170.827 33.9553 171.804 34.7606 172.04 36.3708H171.209C170.9 35.2517 170.2 34.6923 169.109 34.6923C168.318 34.6923 167.714 35.006 167.296 35.6341C166.924 36.1799 166.737 36.8668 166.737 37.6945C166.737 38.5318 166.919 39.2141 167.282 39.7417C167.7 40.3603 168.309 40.6696 169.109 40.6696C170.346 40.6696 171.068 40.0375 171.277 38.7729H172.149C171.822 40.5288 170.809 41.4067 169.109 41.4067C168.028 41.4067 167.205 41.0518 166.642 40.3422C166.123 39.687 165.864 38.8045 165.864 37.6945C165.864 36.6485 166.142 35.7792 166.696 35.0881C167.287 34.3325 168.091 33.9553 169.109 33.9553ZM174.59 40.1331L178.648 34.1462H179.538V41.2157H178.734V35.238L174.699 41.2157H173.785V34.1462H174.59V40.1331ZM182.388 37.1079H186.342V34.1462H187.146V41.2157H186.342V37.7902H182.388V41.2157H181.584V34.1462H182.388V37.1079ZM193.526 34.8285H189.968V41.2157H189.163V34.1462H193.526V34.8285ZM209.49 17.4142C209.117 17.096 208.931 16.6683 208.931 16.1315H209.463C209.608 16.8684 210.085 17.2368 210.894 17.2368C211.685 17.2368 212.171 16.8684 212.353 16.1315H212.857C212.73 17.278 212.053 17.8512 210.826 17.8512C210.281 17.8512 209.836 17.7054 209.49 17.4142ZM208.822 24.5613L212.88 18.5744H213.771V25.6439H212.966V19.6663L208.931 25.6439H208.018V18.5744H208.822V24.5613Z" fill="#1A1A1A"/>
</svg>
