<?xml version="1.0" standalone="no"?>
<!DOCTYPE svg PUBLIC "-//W3C//DTD SVG 20010904//EN"
 "http://www.w3.org/TR/2001/REC-SVG-20010904/DTD/svg10.dtd">
<svg version="1.0" xmlns="http://www.w3.org/2000/svg"
 width="700.000000pt" height="700.000000pt" viewBox="0 0 700.000000 700.000000"
 preserveAspectRatio="xMidYMid meet">
<metadata>
Created by potrace 1.14, written by Peter Selinger 2001-2017
</metadata>
<g transform="translate(0.000000,700.000000) scale(0.100000,-0.100000)"
fill="#000000" stroke="none">
<path d="M924 4050 l1 -60 82 0 83 0 0 -235 0 -235 68 0 67 0 0 235 -1 234 91
3 90 3 1 58 1 57 -242 0 -242 0 1 -60z"/>
<path d="M1450 3815 l0 -295 65 0 65 0 0 295 0 295 -65 0 -65 0 0 -295z"/>
<path d="M1630 4105 c0 -15 279 -445 289 -445 3 0 41 54 85 120 43 66 79 120
80 120 1 0 2 -84 2 -187 l0 -188 65 -3 65 -3 0 296 0 295 -71 0 -72 0 -73
-120 c-41 -66 -77 -120 -80 -120 -4 0 -17 19 -31 41 -13 23 -31 52 -39 64 -8
13 -30 48 -48 79 l-33 56 -70 0 c-38 0 -69 -2 -69 -5z"/>
<path d="M2255 3815 l0 -295 237 0 238 0 0 58 0 58 -162 -1 c-90 0 -168 1
-173 2 -6 2 -11 29 -10 61 l0 57 173 5 c95 3 172 8 172 13 0 4 0 29 0 55 l0
48 -160 0 c-88 -1 -166 1 -173 4 -7 3 -12 26 -13 57 -1 39 3 52 15 55 9 2 86
4 171 3 l155 0 5 30 c3 16 4 42 1 58 l-3 27 -237 0 -236 0 0 -295z"/>
<path d="M3050 3530 c0 -509 2 -580 15 -580 8 0 15 6 16 13 1 6 2 267 3 580 1
534 0 567 -16 567 -17 0 -18 -34 -18 -580z"/>
<path d="M3439 4105 c-1 0 -2 -62 -3 -137 -2 -107 1 -138 11 -138 10 0 13 29
13 125 l0 125 80 0 80 0 0 -125 c0 -97 3 -125 13 -125 10 0 14 30 15 135 1 74
-2 135 -6 136 -5 1 -172 4 -203 4z"/>
<path d="M4270 4061 l0 -49 -28 10 c-57 22 -98 -8 -106 -77 -9 -83 40 -136
102 -110 l32 14 0 -50 c0 -35 4 -49 12 -47 7 3 12 23 11 52 -1 35 2 45 10 37
12 -9 39 -14 69 -12 26 2 52 48 54 95 3 80 -44 122 -109 98 -29 -11 -29 -11
-26 26 3 51 1 62 -11 62 -5 0 -10 -22 -10 -49z m-16 -73 c35 -49 9 -138 -38
-138 -31 0 -48 22 -53 70 -9 75 54 121 91 68z m131 2 c21 -23 23 -88 3 -119
-15 -24 -59 -28 -76 -8 -18 21 -21 80 -6 115 15 38 51 43 79 12z"/>
<path d="M6856 4092 c-3 -3 1 -14 11 -24 29 -32 93 -18 93 21 0 13 -2 13 -12
-1 -21 -26 -47 -29 -67 -9 -11 11 -22 17 -25 13z"/>
<path d="M4749 4033 c-73 -10 -102 -132 -45 -188 34 -35 127 -12 139 34 7 27
-19 28 -28 2 -3 -11 -19 -24 -36 -30 -27 -9 -33 -7 -55 14 -28 29 -33 88 -8
123 22 31 66 29 99 -5 l26 -28 -3 24 c-4 30 -52 59 -89 54z"/>
<path d="M5363 4025 c-48 -20 -70 -80 -51 -137 30 -88 157 -77 174 15 15 87
-51 152 -123 122z m79 -32 c23 -20 24 -90 2 -121 -22 -32 -78 -30 -100 3 -21
32 -13 103 12 122 25 18 64 16 86 -4z"/>
<path d="M3709 3998 c-1 -55 -1 -160 0 -205 1 -64 21 -52 21 13 0 50 1 54 16
40 23 -24 89 -21 113 5 20 22 33 71 26 104 -2 11 -4 23 -4 28 -1 4 -10 16 -21
27 -24 24 -77 26 -108 4 -20 -14 -22 -14 -22 0 0 32 -20 15 -21 -16z m133 -5
c23 -20 24 -90 2 -121 -30 -43 -96 -23 -110 34 -19 76 55 136 108 87z"/>
<path d="M3958 4013 c-79 -87 -6 -223 94 -176 54 26 70 109 30 162 -25 34 -99
42 -124 14z m106 -25 c20 -28 20 -71 1 -108 -13 -24 -22 -30 -50 -30 -41 0
-65 29 -65 80 0 51 24 80 65 80 24 0 39 -7 49 -22z"/>
<path d="M4491 4006 c-32 -34 -38 -95 -15 -135 33 -55 114 -58 149 -5 20 31
-2 34 -28 4 -33 -39 -115 -11 -105 36 2 15 14 18 73 18 74 1 71 -1 66 49 0 7
-10 23 -21 35 -29 31 -89 30 -119 -2z m101 -13 c10 -9 18 -24 18 -33 0 -13
-11 -16 -60 -16 -65 0 -76 12 -43 48 20 22 61 23 85 1z"/>
<path d="M4911 4006 c-42 -44 -33 -141 16 -167 45 -24 115 -2 126 40 7 30 -17
27 -31 -4 -16 -34 -74 -36 -96 -3 -36 51 -9 138 42 138 32 0 45 -8 60 -35 10
-19 11 -19 18 -2 20 52 -91 80 -135 33z"/>
<path d="M5103 3930 c0 -74 3 -100 12 -100 7 0 37 37 66 81 l54 82 3 -82 c2
-44 7 -81 12 -81 11 0 11 3 13 108 3 119 -8 120 -83 4 -28 -42 -50 -72 -51
-67 0 6 -1 43 -2 83 0 46 -5 72 -12 72 -8 0 -12 -33 -12 -100z"/>
<path d="M5530 3930 c0 -60 4 -100 10 -100 10 0 11 2 13 60 2 34 3 35 49 37
54 2 62 -5 60 -59 -1 -25 2 -38 11 -38 16 0 17 192 1 197 -6 2 -11 -12 -12
-32 -2 -50 -5 -52 -59 -50 -46 1 -48 2 -50 31 0 16 -2 35 -2 42 -1 6 -5 12
-11 12 -6 0 -10 -40 -10 -100z"/>
<path d="M5762 4014 c-25 -17 -29 -44 -7 -44 8 0 15 7 15 15 0 16 37 29 66 23
23 -4 41 -35 29 -47 -6 -6 -28 -13 -50 -16 -54 -9 -85 -30 -85 -60 0 -24 23
-54 43 -56 28 -3 63 4 75 14 9 7 16 7 24 -1 16 -16 83 -15 97 1 12 15 19 59
20 125 l1 42 45 0 45 0 0 -91 c0 -63 3 -90 11 -87 10 3 14 57 10 166 l-1 32
-65 0 c-45 0 -65 -4 -66 -12 -3 -22 -6 -82 -8 -120 -1 -40 -26 -63 -55 -52
-13 5 -16 22 -16 79 0 54 -4 78 -16 89 -20 20 -83 21 -112 0z m108 -102 c0
-10 -7 -28 -16 -40 -18 -26 -75 -30 -93 -8 -18 21 3 54 36 58 72 8 73 8 73
-10z"/>
<path d="M6160 3930 l0 -100 55 0 c42 0 60 5 75 20 24 24 26 53 4 74 -15 16
-23 18 -79 20 -16 0 -31 7 -31 14 -1 6 -2 26 -3 42 0 17 -5 30 -11 30 -6 0
-10 -40 -10 -100z m116 -25 c25 -33 -11 -61 -67 -53 -18 2 -25 10 -27 32 -2
16 2 32 8 36 20 12 73 3 86 -15z"/>
<path d="M6357 4023 c-3 -5 -6 -51 -6 -102 0 -68 3 -91 12 -88 7 2 12 23 12
48 l1 44 56 0 55 1 -1 -45 c-1 -27 4 -46 12 -48 9 -4 12 20 12 97 0 77 -3 101
-12 98 -7 -3 -14 -19 -14 -36 -1 -18 -2 -36 -3 -40 0 -4 -24 -7 -53 -7 l-52 1
-1 36 c0 37 -9 56 -18 41z"/>
<path d="M6566 4020 c-2 -8 -4 -54 -3 -102 l1 -88 51 0 c62 0 95 20 95 59 0
37 -23 55 -74 57 -22 1 -44 2 -47 3 -3 1 -5 13 -3 28 3 33 -12 67 -20 43z
m106 -107 c36 -32 10 -63 -51 -63 -30 0 -33 4 -33 45 0 8 0 19 1 23 2 16 65
11 83 -5z"/>
<path d="M6750 3931 c0 -56 4 -101 9 -101 14 0 17 20 16 109 0 57 -4 86 -13
89 -9 3 -12 -22 -12 -97z"/>
<path d="M6830 3930 c0 -78 3 -100 14 -100 7 0 37 36 66 80 29 44 54 80 56 80
2 0 3 -30 3 -67 -2 -87 -1 -93 11 -93 6 0 10 40 10 100 0 73 -3 100 -12 100
-7 0 -35 -34 -62 -76 -28 -41 -54 -78 -58 -80 -5 -3 -8 25 -7 63 1 88 1 93
-11 93 -6 0 -10 -40 -10 -100z"/>
<path d="M3545 3670 c-11 -4 -35 -14 -53 -21 -44 -16 -62 -46 -68 -109 -8 -93
20 -139 87 -145 38 -3 88 41 90 80 3 60 -1 76 -26 100 -28 29 -79 33 -106 9
-15 -13 -17 -14 -15 -1 4 27 27 46 65 53 38 7 61 20 61 35 0 11 -8 10 -35 -1z
m1 -98 c18 -12 34 -49 34 -79 0 -64 -62 -99 -105 -59 -23 20 -29 37 -26 84 2
44 62 78 97 54z"/>
<path d="M5810 3640 c6 -11 16 -20 23 -21 7 0 20 -2 29 -4 9 -2 24 6 34 16 21
24 11 38 -11 15 -20 -20 -39 -20 -55 -1 -18 22 -32 18 -20 -5z"/>
<path d="M3623 3594 c-8 -4 -6 -18 9 -52 46 -106 57 -148 44 -173 -6 -13 -17
-24 -24 -24 -18 0 -18 -19 -1 -23 9 -1 22 5 31 15 22 26 108 252 98 258 -11 7
-26 -22 -55 -103 l-23 -65 -32 87 c-18 47 -33 86 -34 85 0 0 -6 -3 -13 -5z"/>
<path d="M3824 3572 c8 -16 22 -34 30 -41 9 -8 16 -20 16 -28 0 -14 -46 -81
-65 -95 -6 -5 -2 -8 7 -8 10 0 31 18 47 40 l29 40 35 -43 c44 -53 59 -43 18
14 -17 23 -31 46 -31 51 0 4 14 27 30 50 40 55 27 64 -17 11 l-35 -43 -29 40
c-34 46 -57 54 -35 12z"/>
<path d="M4015 3592 c-3 -3 -5 -48 -5 -99 0 -70 3 -94 12 -91 8 3 12 32 13 89
l0 84 44 0 c24 0 46 5 48 10 3 11 -102 17 -112 7z"/>
<path d="M4185 3588 c-11 -6 -21 -12 -23 -13 -1 -1 -4 -12 -7 -24 -5 -26 11
-28 25 -2 22 42 100 39 100 -3 0 -24 -21 -36 -68 -36 -24 0 -72 -40 -72 -60 0
-6 11 -22 25 -36 19 -19 31 -23 57 -19 18 3 37 10 44 16 7 6 15 4 23 -5 13
-15 41 -11 41 6 0 5 -4 6 -10 3 -11 -7 -11 -9 -14 89 -2 54 -6 71 -21 82 -23
17 -72 18 -100 2z m97 -119 c-5 -32 -40 -58 -71 -52 -34 6 -41 11 -41 32 0 25
19 39 60 43 50 6 55 4 52 -23z"/>
<path d="M4384 3586 c-2 -6 -5 -45 -8 -86 -3 -41 -5 -76 -5 -77 -1 -2 -8 -3
-16 -3 -8 0 -15 -4 -15 -10 0 -17 39 -11 49 8 6 10 11 50 13 88 l3 69 43 1
c47 0 44 9 43 -109 0 -49 3 -67 12 -64 11 3 19 154 10 182 -5 14 -124 14 -129
1z"/>
<path d="M4553 3588 c-5 -10 -5 -10 32 -12 l30 -1 1 -84 c0 -55 5 -86 12 -89
9 -3 12 22 12 86 l0 89 30 -2 c18 -1 30 3 30 10 0 13 -138 16 -147 3z"/>
<path d="M4744 3576 c-23 -19 -28 -33 -30 -75 -3 -69 25 -106 84 -106 42 0 82
26 82 52 0 18 -19 16 -27 -3 -8 -20 -45 -34 -72 -27 -18 5 -51 48 -51 68 0 3
36 5 81 5 70 0 80 2 75 16 -3 9 -6 22 -6 30 0 8 -11 26 -25 39 -31 32 -75 32
-111 1z m96 -16 c37 -37 26 -50 -40 -50 -53 0 -60 2 -60 19 0 22 35 51 62 51
10 0 27 -9 38 -20z"/>
<path d="M4933 3459 c0 -101 3 -139 12 -139 8 0 12 18 11 54 -1 49 0 53 14 41
8 -8 30 -16 47 -19 62 -11 111 65 91 141 -15 56 -80 81 -124 48 -21 -16 -38
-20 -30 -6 3 5 0 11 -8 14 -12 5 -14 -19 -13 -134z m131 105 c49 -49 15 -160
-46 -149 -43 9 -63 45 -59 108 3 46 73 74 105 41z"/>
<path d="M5198 3589 c-44 -25 -57 -106 -26 -156 11 -18 27 -33 36 -34 9 0 25
-2 36 -4 30 -6 64 16 75 46 12 35 3 37 -24 5 -29 -35 -57 -40 -88 -15 -22 17
-27 29 -27 65 0 77 66 113 108 59 23 -29 32 -32 32 -10 0 43 -77 71 -122 44z"/>
<path d="M5370 3499 c0 -76 3 -100 13 -96 6 2 11 17 10 32 -2 27 20 65 38 65
4 0 21 -22 39 -50 18 -27 39 -50 46 -50 10 0 1 21 -27 61 l-41 61 37 38 c52
53 17 46 -38 -8 -24 -23 -46 -42 -49 -42 -3 0 -5 18 -4 40 2 25 -2 41 -11 44
-10 4 -13 -15 -13 -95z"/>
<path d="M5566 3593 c-3 -3 -6 -48 -6 -100 0 -119 11 -121 85 -11 l55 83 0
-83 c0 -48 4 -82 10 -82 11 0 11 -4 13 107 1 58 -2 84 -10 88 -7 2 -31 -23
-55 -58 -81 -120 -76 -119 -74 -27 2 76 -3 98 -18 83z"/>
<path d="M5779 3557 c-2 -142 -1 -157 14 -157 7 0 35 34 63 75 27 41 52 75 55
75 3 0 5 -34 4 -75 -1 -56 2 -75 12 -75 10 0 13 24 13 100 0 74 -3 99 -12 98
-7 -2 -37 -39 -68 -83 l-55 -79 -3 74 c-3 85 -22 122 -23 47z"/>
<path d="M251 3475 c-7 -9 -38 -80 -207 -482 l-43 -103 78 0 79 0 28 65 27 66
101 -3 100 -3 25 -62 24 -63 79 0 c43 0 78 4 78 8 0 5 -16 46 -36 93 -20 46
-41 96 -47 112 -7 16 -20 27 -32 28 -11 0 -71 1 -132 1 -62 0 -113 4 -113 8 0
5 29 81 65 168 36 87 65 162 65 168 0 12 -130 12 -139 -1z"/>
<path d="M781 3479 c-73 -15 -122 -83 -123 -169 0 -68 17 -114 58 -150 40 -34
30 -33 190 -35 66 -1 125 -5 131 -8 15 -10 22 -57 12 -84 -8 -22 -12 -23 -170
-25 l-161 -3 -23 -58 -24 -58 209 3 210 3 30 31 c82 82 71 245 -21 299 -29 17
-53 20 -164 20 -71 0 -136 4 -142 8 -7 5 -13 23 -13 42 0 66 -3 65 164 65
l151 0 22 57 c13 31 21 58 19 61 -7 6 -323 7 -355 1z"/>
<path d="M1263 3464 c-75 -37 -106 -167 -61 -253 40 -77 58 -85 216 -88 116
-2 139 -5 150 -20 12 -17 11 -61 -3 -82 -4 -7 -64 -11 -164 -11 l-158 0 -22
-51 c-11 -29 -21 -56 -21 -60 0 -5 86 -9 191 -9 216 0 238 5 278 68 32 48 35
148 7 205 -35 71 -59 80 -219 81 l-142 1 -9 28 c-6 17 -6 37 0 55 11 31 5 30
189 31 l120 1 17 43 c10 23 20 50 24 60 6 16 -7 17 -177 17 -148 0 -190 -4
-216 -16z"/>
<path d="M1737 3353 c1 -71 3 -203 3 -295 l0 -168 239 0 238 0 -2 53 c-2 28
-3 54 -4 57 -1 3 -77 5 -171 5 l-170 -1 0 63 0 63 173 0 174 0 -2 57 -1 58
-172 0 -172 -1 0 58 c0 48 3 58 18 59 9 1 87 2 172 2 l155 2 0 58 0 57 -240 0
-240 0 2 -127z"/>
<path d="M2259 3473 c-1 -5 -2 -30 -3 -58 l-1 -50 84 -5 84 -5 0 -232 0 -233
66 0 66 0 0 233 0 232 91 3 91 3 0 59 -1 60 -238 0 c-131 0 -239 -3 -239 -7z"/>
<path d="M3463 3159 c-21 -11 -38 -48 -27 -58 3 -3 13 4 22 16 22 27 56 37 82
23 29 -15 26 -48 -5 -55 -14 -3 -36 -7 -49 -10 -13 -3 -34 -13 -47 -24 -20
-16 -22 -23 -14 -47 14 -38 61 -52 104 -31 17 9 31 12 31 7 0 -11 30 -21 42
-14 6 4 5 10 -3 15 -13 8 -16 22 -18 114 -1 22 -5 46 -10 54 -11 17 -80 24
-108 10z m93 -135 c-13 -49 -106 -56 -106 -9 0 29 13 38 65 45 44 6 50 1 41
-36z"/>
<path d="M3758 3150 c-8 -14 -26 -54 -38 -89 l-24 -64 -30 81 c-17 45 -36 82
-43 82 -14 0 -7 -27 31 -120 29 -72 28 -119 -5 -127 -25 -7 -25 -23 0 -23 27
0 36 14 86 144 44 115 55 167 23 116z"/>
<path d="M3802 3158 c-9 -4 -14 -7 -9 -9 22 -6 29 -7 47 -8 18 -1 20 -8 20
-91 0 -67 3 -88 13 -85 8 4 12 30 10 90 -1 58 3 85 10 86 7 1 21 2 31 3 11 0
21 6 23 11 3 11 -118 14 -145 3z"/>
<path d="M4013 3159 c-51 -19 -74 -102 -44 -157 26 -49 115 -53 145 -7 20 30
20 35 2 35 -8 0 -17 -9 -21 -19 -7 -23 -49 -35 -75 -21 -46 25 -54 97 -15 135
31 32 50 31 81 0 31 -31 49 -33 33 -2 -23 43 -57 54 -106 36z"/>
<path d="M4212 3159 c-44 -17 -62 -102 -33 -156 37 -70 138 -52 158 28 24 95
-40 161 -125 128z m78 -27 c13 -10 23 -33 27 -59 5 -35 2 -45 -20 -67 -32 -31
-60 -33 -86 -5 -48 52 -21 144 45 148 7 1 22 -7 34 -17z"/>
<path d="M4450 3159 c-13 -6 -28 -15 -32 -22 -5 -8 -8 -6 -8 6 0 9 -4 17 -10
17 -10 0 -11 -23 -11 -155 0 -105 0 -115 11 -115 6 0 10 23 10 51 0 50 0 50
22 35 32 -23 73 -20 105 8 24 21 27 31 28 81 0 50 -3 60 -28 81 -30 26 -48 28
-87 13z m73 -28 c33 -31 21 -125 -18 -143 -56 -25 -106 31 -89 99 13 53 71 77
107 44z"/>
<path d="M4664 3160 c-69 -27 -73 -159 -7 -189 13 -6 35 -11 49 -11 27 0 74
40 74 64 0 21 -27 10 -33 -13 -6 -26 -54 -35 -82 -17 -43 29 -41 122 4 146 27
14 69 3 76 -21 7 -20 35 -27 35 -9 0 6 -11 22 -25 35 -25 26 -54 30 -91 15z"/>
<path d="M4958 3152 c-8 -9 -35 -46 -59 -82 l-44 -65 -3 78 c-3 79 -21 109
-23 37 -3 -141 -1 -160 15 -154 8 3 38 41 67 85 28 43 52 79 53 79 1 0 1 -36
1 -80 -1 -60 2 -80 12 -80 9 0 12 23 12 95 0 52 -4 97 -8 100 -5 2 -15 -3 -23
-13z"/>
<path d="M5178 3158 c0 -7 -1 -26 -2 -43 -1 -29 -3 -30 -53 -33 -29 -2 -53 1
-54 5 -1 4 -2 21 -3 37 0 16 -6 31 -12 33 -12 4 -14 -180 -2 -192 6 -7 20 26
17 41 -1 5 -1 19 0 32 1 21 5 23 54 20 52 -3 52 -3 53 -38 2 -57 4 -61 14 -55
13 8 12 193 -1 201 -5 3 -10 -1 -11 -8z"/>
<path d="M5262 3160 c-14 -9 -10 -190 4 -190 8 0 11 25 10 87 l-1 88 47 -2
c26 -1 50 2 53 7 4 6 -2 10 -12 11 -10 0 -35 2 -56 3 -21 1 -41 -1 -45 -4z"/>
</g>
</svg>
